<?xml version="1.0" encoding="UTF-8" standalone="no"?>
<!DOCTYPE svg PUBLIC "-//W3C//DTD SVG 1.1//EN"
 "http://www.w3.org/Graphics/SVG/1.1/DTD/svg11.dtd">
<!-- Generated by graphviz version 3.0.0 (20220404.1115)
 -->
<!-- Pages: 1 -->
<svg width="2312pt" height="1772pt"
 viewBox="0.00 0.00 2312.37 1772.00" xmlns="http://www.w3.org/2000/svg" xmlns:xlink="http://www.w3.org/1999/xlink">
<g id="graph0" class="graph" transform="scale(1 1) rotate(0) translate(4 1768)">
<polygon fill="white" stroke="transparent" points="-4,4 -4,-1768 2308.37,-1768 2308.37,4 -4,4"/>
<!-- D0 -->
<g id="node1" class="node">
<title>D0</title>
<path fill="none" stroke="black" d="M860.37,-1764C860.37,-1764 830.37,-1764 830.37,-1764 824.37,-1764 818.37,-1758 818.37,-1752 818.37,-1752 818.37,-1740 818.37,-1740 818.37,-1734 824.37,-1728 830.37,-1728 830.37,-1728 860.37,-1728 860.37,-1728 866.37,-1728 872.37,-1734 872.37,-1740 872.37,-1740 872.37,-1752 872.37,-1752 872.37,-1758 866.37,-1764 860.37,-1764"/>
<text text-anchor="middle" x="845.37" y="-1741.8" font-family="Times,serif" font-size="14.00">begin</text>
</g>
<!-- D7 -->
<g id="node4" class="node">
<title>D7</title>
<polygon fill="none" stroke="black" points="877.33,-1692 813.42,-1692 813.42,-1656 877.33,-1656 877.33,-1692"/>
<text text-anchor="middle" x="845.37" y="-1669.8" font-family="Times,serif" font-size="14.00">int i = 1;</text>
</g>
<!-- D0&#45;&gt;D7 -->
<g id="edge23" class="edge">
<title>D0&#45;&gt;D7</title>
<path fill="none" stroke="black" d="M845.37,-1727.7C845.37,-1719.98 845.37,-1710.71 845.37,-1702.11"/>
<polygon fill="black" stroke="black" points="848.87,-1702.1 845.37,-1692.1 841.87,-1702.1 848.87,-1702.1"/>
</g>
<!-- D1 -->
<g id="node2" class="node">
<title>D1</title>
<path fill="none" stroke="black" d="M1426.37,-36C1426.37,-36 1396.37,-36 1396.37,-36 1390.37,-36 1384.37,-30 1384.37,-24 1384.37,-24 1384.37,-12 1384.37,-12 1384.37,-6 1390.37,0 1396.37,0 1396.37,0 1426.37,0 1426.37,0 1432.37,0 1438.37,-6 1438.37,-12 1438.37,-12 1438.37,-24 1438.37,-24 1438.37,-30 1432.37,-36 1426.37,-36"/>
<text text-anchor="middle" x="1411.37" y="-13.8" font-family="Times,serif" font-size="14.00">end</text>
</g>
<!-- D6 -->
<g id="node3" class="node">
<title>D6</title>
<polygon fill="none" stroke="black" points="845.37,-1620 797.48,-1602 845.37,-1584 893.27,-1602 845.37,-1620"/>
<text text-anchor="middle" x="845.37" y="-1597.8" font-family="Times,serif" font-size="14.00">i&lt;=n?</text>
</g>
<!-- D6&#45;&gt;D1 -->
<g id="edge1" class="edge">
<title>D6:e&#45;&gt;D1:n</title>
<path fill="none" stroke="black" d="M894.37,-1602C973.11,-1602 2304.37,-1537.74 2304.37,-1459 2304.37,-1459 2304.37,-1459 2304.37,-161 2304.37,35.86 1442.49,-226.83 1412.19,-46.13"/>
<polygon fill="black" stroke="black" points="1415.67,-45.69 1411.37,-36 1408.69,-46.25 1415.67,-45.69"/>
<text text-anchor="middle" x="1451.57" y="-98.01" font-family="Times,serif" font-size="14.00">N</text>
</g>
<!-- D11 -->
<g id="node6" class="node">
<title>D11</title>
<polygon fill="none" stroke="black" points="672.72,-1548 556.03,-1548 556.03,-1512 672.72,-1512 672.72,-1548"/>
<text text-anchor="middle" x="614.37" y="-1525.8" font-family="Times,serif" font-size="14.00">int min = 100005;</text>
</g>
<!-- D6&#45;&gt;D11 -->
<g id="edge52" class="edge">
<title>D6:s&#45;&gt;D11:n</title>
<path fill="none" stroke="black" d="M845.37,-1584C845.37,-1483.95 631.2,-1639.53 615.3,-1558.46"/>
<polygon fill="black" stroke="black" points="618.74,-1557.65 614.37,-1548 611.77,-1558.27 618.74,-1557.65"/>
<text text-anchor="middle" x="724.73" y="-1570.23" font-family="Times,serif" font-size="14.00">Y</text>
</g>
<!-- D7&#45;&gt;D6 -->
<g id="edge2" class="edge">
<title>D7&#45;&gt;D6</title>
<path fill="none" stroke="black" d="M845.37,-1655.7C845.37,-1647.98 845.37,-1638.71 845.37,-1630.11"/>
<polygon fill="black" stroke="black" points="848.87,-1630.1 845.37,-1620.1 841.87,-1630.1 848.87,-1630.1"/>
</g>
<!-- D8 -->
<g id="node5" class="node">
<title>D8</title>
<polygon fill="none" stroke="black" points="858.37,-972 804.37,-972 804.37,-936 858.37,-936 858.37,-972"/>
<text text-anchor="middle" x="831.37" y="-949.8" font-family="Times,serif" font-size="14.00">i++</text>
</g>
<!-- D8&#45;&gt;D6 -->
<g id="edge4" class="edge">
<title>D8&#45;&gt;D6</title>
<path fill="none" stroke="black" d="M834.2,-972.43C838.3,-999.16 845.37,-1051.91 845.37,-1097 845.37,-1459 845.37,-1459 845.37,-1459 845.37,-1499 845.37,-1545.35 845.37,-1573.92"/>
<polygon fill="black" stroke="black" points="841.87,-1573.95 845.37,-1583.95 848.87,-1573.95 841.87,-1573.95"/>
</g>
<!-- D13 -->
<g id="node7" class="node">
<title>D13</title>
<polygon fill="none" stroke="black" points="371.2,-1476 275.54,-1476 275.54,-1440 371.2,-1440 371.2,-1476"/>
<text text-anchor="middle" x="323.37" y="-1453.8" font-family="Times,serif" font-size="14.00">int index = &#45;1;</text>
</g>
<!-- D11&#45;&gt;D13 -->
<g id="edge3" class="edge">
<title>D11&#45;&gt;D13</title>
<path fill="none" stroke="black" d="M555.83,-1514.92C504.95,-1502.68 431.66,-1485.05 381.04,-1472.87"/>
<polygon fill="black" stroke="black" points="381.77,-1469.45 371.23,-1470.51 380.14,-1476.25 381.77,-1469.45"/>
</g>
<!-- D18 -->
<g id="node9" class="node">
<title>D18</title>
<polygon fill="none" stroke="black" points="318.33,-1404 254.42,-1404 254.42,-1368 318.33,-1368 318.33,-1404"/>
<text text-anchor="middle" x="286.37" y="-1381.8" font-family="Times,serif" font-size="14.00">int j = 1;</text>
</g>
<!-- D13&#45;&gt;D18 -->
<g id="edge5" class="edge">
<title>D13&#45;&gt;D18</title>
<path fill="none" stroke="black" d="M314.23,-1439.7C309.97,-1431.64 304.82,-1421.89 300.11,-1412.98"/>
<polygon fill="black" stroke="black" points="303.18,-1411.31 295.41,-1404.1 296.99,-1414.58 303.18,-1411.31"/>
</g>
<!-- D17 -->
<g id="node8" class="node">
<title>D17</title>
<polygon fill="none" stroke="black" points="213.37,-1332 165.48,-1314 213.37,-1296 261.27,-1314 213.37,-1332"/>
<text text-anchor="middle" x="213.37" y="-1309.8" font-family="Times,serif" font-size="14.00">j&lt;=n?</text>
</g>
<!-- D22 -->
<g id="node11" class="node">
<title>D22</title>
<polygon fill="none" stroke="black" points="177.37,-1260 24.62,-1242 177.37,-1224 330.12,-1242 177.37,-1260"/>
<text text-anchor="middle" x="177.37" y="-1237.8" font-family="Times,serif" font-size="14.00">(!vis[j]&amp;&amp;res[j].c&lt;min)?</text>
</g>
<!-- D17&#45;&gt;D22 -->
<g id="edge14" class="edge">
<title>D17:s&#45;&gt;D22:n</title>
<path fill="none" stroke="black" d="M213.37,-1296C213.37,-1277.62 189.61,-1280.28 180.69,-1269.79"/>
<polygon fill="black" stroke="black" points="183.9,-1268.34 177.37,-1260 177.27,-1270.59 183.9,-1268.34"/>
<text text-anchor="middle" x="190.58" y="-1282.3" font-family="Times,serif" font-size="14.00">Y</text>
</g>
<!-- D31 -->
<g id="node14" class="node">
<title>D31</title>
<polygon fill="none" stroke="black" points="514.37,-1260 348.04,-1242 514.37,-1224 680.7,-1242 514.37,-1260"/>
<text text-anchor="middle" x="514.37" y="-1237.8" font-family="Times,serif" font-size="14.00">(index == &#45;1 || index == n)?</text>
</g>
<!-- D17&#45;&gt;D31 -->
<g id="edge6" class="edge">
<title>D17:e&#45;&gt;D31:n</title>
<path fill="none" stroke="black" d="M262.37,-1314C288.21,-1314 472.6,-1293.35 508.37,-1268.28"/>
<polygon fill="black" stroke="black" points="511.33,-1270.15 514.37,-1260 505.67,-1266.04 511.33,-1270.15"/>
<text text-anchor="middle" x="385.42" y="-1303.35" font-family="Times,serif" font-size="14.00">N</text>
</g>
<!-- D18&#45;&gt;D17 -->
<g id="edge7" class="edge">
<title>D18&#45;&gt;D17</title>
<path fill="none" stroke="black" d="M268.33,-1367.7C257.86,-1357.66 244.65,-1344.99 233.81,-1334.59"/>
<polygon fill="black" stroke="black" points="236.04,-1331.89 226.4,-1327.49 231.19,-1336.94 236.04,-1331.89"/>
</g>
<!-- D19 -->
<g id="node10" class="node">
<title>D19</title>
<polygon fill="none" stroke="black" points="204.37,-1044 150.37,-1044 150.37,-1008 204.37,-1008 204.37,-1044"/>
<text text-anchor="middle" x="177.37" y="-1021.8" font-family="Times,serif" font-size="14.00">j++</text>
</g>
<!-- D19&#45;&gt;D17 -->
<g id="edge9" class="edge">
<title>D19&#45;&gt;D17</title>
<path fill="none" stroke="black" d="M150.25,-1043.48C90,-1082.12 -45.07,-1181.25 15.37,-1260 33.96,-1284.22 116.56,-1299.78 169.03,-1307.41"/>
<polygon fill="black" stroke="black" points="168.7,-1310.9 179.09,-1308.83 169.68,-1303.97 168.7,-1310.9"/>
</g>
<!-- D22&#45;&gt;D19 -->
<g id="edge8" class="edge">
<title>D22:e&#45;&gt;D19:n</title>
<path fill="none" stroke="black" d="M331.37,-1242C342.66,-1242 332.9,-1176.13 234.37,-1080 215.94,-1062.02 187.09,-1070.48 179.34,-1054.2"/>
<polygon fill="black" stroke="black" points="182.7,-1053.15 177.37,-1044 175.83,-1054.48 182.7,-1053.15"/>
<text text-anchor="middle" x="229.31" y="-1067.4" font-family="Times,serif" font-size="14.00">N</text>
</g>
<!-- D27 -->
<g id="node12" class="node">
<title>D27</title>
<polygon fill="none" stroke="black" points="212.15,-1188 142.59,-1188 142.59,-1152 212.15,-1152 212.15,-1188"/>
<text text-anchor="middle" x="177.37" y="-1165.8" font-family="Times,serif" font-size="14.00">index = j;</text>
</g>
<!-- D22&#45;&gt;D27 -->
<g id="edge13" class="edge">
<title>D22:s&#45;&gt;D27:n</title>
<path fill="none" stroke="black" d="M177.37,-1224C177.37,-1212 177.37,-1206.75 177.37,-1198.12"/>
<polygon fill="black" stroke="black" points="180.87,-1198 177.37,-1188 173.87,-1198 180.87,-1198"/>
<text text-anchor="middle" x="172.32" y="-1210.43" font-family="Times,serif" font-size="14.00">Y</text>
</g>
<!-- D29 -->
<g id="node13" class="node">
<title>D29</title>
<polygon fill="none" stroke="black" points="225.19,-1116 129.56,-1116 129.56,-1080 225.19,-1080 225.19,-1116"/>
<text text-anchor="middle" x="177.37" y="-1093.8" font-family="Times,serif" font-size="14.00">min = res[j].c;</text>
</g>
<!-- D27&#45;&gt;D29 -->
<g id="edge10" class="edge">
<title>D27&#45;&gt;D29</title>
<path fill="none" stroke="black" d="M177.37,-1151.7C177.37,-1143.98 177.37,-1134.71 177.37,-1126.11"/>
<polygon fill="black" stroke="black" points="180.87,-1126.1 177.37,-1116.1 173.87,-1126.1 180.87,-1126.1"/>
</g>
<!-- D29&#45;&gt;D19 -->
<g id="edge11" class="edge">
<title>D29&#45;&gt;D19</title>
<path fill="none" stroke="black" d="M177.37,-1079.7C177.37,-1071.98 177.37,-1062.71 177.37,-1054.11"/>
<polygon fill="black" stroke="black" points="180.87,-1054.1 177.37,-1044.1 173.87,-1054.1 180.87,-1054.1"/>
</g>
<!-- D34 -->
<g id="node15" class="node">
<title>D34</title>
<polygon fill="none" stroke="black" points="537.37,-900 483.37,-900 483.37,-864 537.37,-864 537.37,-900"/>
<text text-anchor="middle" x="510.37" y="-877.8" font-family="Times,serif" font-size="14.00">return;</text>
</g>
<!-- D31&#45;&gt;D34 -->
<g id="edge17" class="edge">
<title>D31:s&#45;&gt;D34:n</title>
<path fill="none" stroke="black" d="M514.37,-1224C514.37,-1168.44 512.37,-1154.56 512.37,-1099 512.37,-1099 512.37,-1099 512.37,-1025 512.37,-973.02 510.62,-957.52 510.4,-910.25"/>
<polygon fill="black" stroke="black" points="513.9,-909.99 510.37,-900 506.9,-910.01 513.9,-909.99"/>
<text text-anchor="middle" x="507.32" y="-1093.95" font-family="Times,serif" font-size="14.00">Y</text>
</g>
<!-- D36 -->
<g id="node16" class="node">
<title>D36</title>
<polygon fill="none" stroke="black" points="738.19,-1188 624.55,-1188 624.55,-1152 738.19,-1152 738.19,-1188"/>
<text text-anchor="middle" x="681.37" y="-1165.8" font-family="Times,serif" font-size="14.00">vis[index] = true;</text>
</g>
<!-- D31&#45;&gt;D36 -->
<g id="edge12" class="edge">
<title>D31:e&#45;&gt;D36:n</title>
<path fill="none" stroke="black" d="M682.37,-1242C703.09,-1242 687.29,-1219.65 682.58,-1198.09"/>
<polygon fill="black" stroke="black" points="686.04,-1197.51 681.37,-1188 679.09,-1198.35 686.04,-1197.51"/>
<text text-anchor="middle" x="682.44" y="-1201.56" font-family="Times,serif" font-size="14.00">N</text>
</g>
<!-- D34&#45;&gt;D1 -->
<g id="edge16" class="edge">
<title>D34&#45;&gt;D1</title>
<path fill="none" stroke="black" d="M512.15,-863.97C514.77,-837.34 519.37,-784.21 519.37,-739 519.37,-739 519.37,-739 519.37,-161 519.37,-73.01 1204.97,-30.16 1374.04,-20.93"/>
<polygon fill="black" stroke="black" points="1374.39,-24.42 1384.19,-20.38 1374.01,-17.43 1374.39,-24.42"/>
</g>
<!-- D41 -->
<g id="node18" class="node">
<title>D41</title>
<polygon fill="none" stroke="black" points="709.83,-1116 652.92,-1116 652.92,-1080 709.83,-1080 709.83,-1116"/>
<text text-anchor="middle" x="681.37" y="-1093.8" font-family="Times,serif" font-size="14.00">int j=0;</text>
</g>
<!-- D36&#45;&gt;D41 -->
<g id="edge15" class="edge">
<title>D36&#45;&gt;D41</title>
<path fill="none" stroke="black" d="M681.37,-1151.7C681.37,-1143.98 681.37,-1134.71 681.37,-1126.11"/>
<polygon fill="black" stroke="black" points="684.87,-1126.1 681.37,-1116.1 677.87,-1126.1 684.87,-1126.1"/>
</g>
<!-- D40 -->
<g id="node17" class="node">
<title>D40</title>
<polygon fill="none" stroke="black" points="681.37,-1044 545.52,-1026 681.37,-1008 817.23,-1026 681.37,-1044"/>
<text text-anchor="middle" x="681.37" y="-1021.8" font-family="Times,serif" font-size="14.00">j&lt;roads[index].size()?</text>
</g>
<!-- D40&#45;&gt;D8 -->
<g id="edge18" class="edge">
<title>D40:e&#45;&gt;D8:n</title>
<path fill="none" stroke="black" d="M818.37,-1026C828.3,-1026 830.67,-999.03 831.21,-982.06"/>
<polygon fill="black" stroke="black" points="834.71,-982.05 831.37,-972 827.72,-981.94 834.71,-982.05"/>
<text text-anchor="middle" x="824.99" y="-1003.51" font-family="Times,serif" font-size="14.00">N</text>
</g>
<!-- D45 -->
<g id="node20" class="node">
<title>D45</title>
<polygon fill="none" stroke="black" points="759.78,-972 604.97,-972 604.97,-936 759.78,-936 759.78,-972"/>
<text text-anchor="middle" x="682.37" y="-949.8" font-family="Times,serif" font-size="14.00">r temp = roads[index][j];</text>
</g>
<!-- D40&#45;&gt;D45 -->
<g id="edge51" class="edge">
<title>D40:s&#45;&gt;D45:n</title>
<path fill="none" stroke="black" d="M681.37,-1008C681.37,-996 681.93,-990.75 682.22,-982.13"/>
<polygon fill="black" stroke="black" points="685.72,-982.05 682.37,-972 678.72,-981.94 685.72,-982.05"/>
<text text-anchor="middle" x="676.8" y="-994.43" font-family="Times,serif" font-size="14.00">Y</text>
</g>
<!-- D41&#45;&gt;D40 -->
<g id="edge19" class="edge">
<title>D41&#45;&gt;D40</title>
<path fill="none" stroke="black" d="M681.37,-1079.7C681.37,-1071.98 681.37,-1062.71 681.37,-1054.11"/>
<polygon fill="black" stroke="black" points="684.87,-1054.1 681.37,-1044.1 677.87,-1054.1 684.87,-1054.1"/>
</g>
<!-- D42 -->
<g id="node19" class="node">
<title>D42</title>
<polygon fill="none" stroke="black" points="1359.37,-108 1305.37,-108 1305.37,-72 1359.37,-72 1359.37,-108"/>
<text text-anchor="middle" x="1332.37" y="-85.8" font-family="Times,serif" font-size="14.00">j++</text>
</g>
<!-- D42&#45;&gt;D40 -->
<g id="edge21" class="edge">
<title>D42&#45;&gt;D40</title>
<path fill="none" stroke="black" d="M1305.02,-91.6C1199.41,-94.18 818.42,-105.98 704.37,-144 494.15,-214.08 565.37,-212.98 565.37,-233 565.37,-883 565.37,-883 565.37,-883 565.37,-924.89 570.22,-939.28 596.37,-972 608.17,-986.76 625.27,-998.54 641.04,-1007.21"/>
<polygon fill="black" stroke="black" points="639.64,-1010.43 650.12,-1011.96 642.88,-1004.22 639.64,-1010.43"/>
</g>
<!-- D47 -->
<g id="node21" class="node">
<title>D47</title>
<polygon fill="none" stroke="black" points="686.37,-900 593.71,-882 686.37,-864 779.04,-882 686.37,-900"/>
<text text-anchor="middle" x="686.37" y="-877.8" font-family="Times,serif" font-size="14.00">(vis[temp.a])?</text>
</g>
<!-- D45&#45;&gt;D47 -->
<g id="edge20" class="edge">
<title>D45&#45;&gt;D47</title>
<path fill="none" stroke="black" d="M683.36,-935.7C683.8,-927.98 684.33,-918.71 684.82,-910.11"/>
<polygon fill="black" stroke="black" points="688.32,-910.29 685.39,-900.1 681.33,-909.89 688.32,-910.29"/>
</g>
<!-- D50 -->
<g id="node22" class="node">
<title>D50</title>
<polygon fill="none" stroke="black" points="673.58,-756 609.16,-756 609.16,-720 673.58,-720 673.58,-756"/>
<text text-anchor="middle" x="641.37" y="-733.8" font-family="Times,serif" font-size="14.00">continue</text>
</g>
<!-- D47&#45;&gt;D50 -->
<g id="edge25" class="edge">
<title>D47:s&#45;&gt;D50:n</title>
<path fill="none" stroke="black" d="M686.37,-864C686.37,-815.55 647.31,-808.77 641.97,-766.02"/>
<polygon fill="black" stroke="black" points="645.47,-765.77 641.37,-756 638.48,-766.19 645.47,-765.77"/>
<text text-anchor="middle" x="658.67" y="-814.01" font-family="Times,serif" font-size="14.00">Y</text>
</g>
<!-- D52 -->
<g id="node23" class="node">
<title>D52</title>
<polygon fill="none" stroke="black" points="1166.37,-828 1078.84,-810 1166.37,-792 1253.9,-810 1166.37,-828"/>
<text text-anchor="middle" x="1166.37" y="-805.8" font-family="Times,serif" font-size="14.00">(temp.t==1)?</text>
</g>
<!-- D47&#45;&gt;D52 -->
<g id="edge22" class="edge">
<title>D47:e&#45;&gt;D52:n</title>
<path fill="none" stroke="black" d="M780.37,-882C820.55,-882 1118.41,-872.8 1161.25,-836.89"/>
<polygon fill="black" stroke="black" points="1164.41,-838.41 1166.37,-828 1158.34,-834.91 1164.41,-838.41"/>
<text text-anchor="middle" x="969.73" y="-876.71" font-family="Times,serif" font-size="14.00">N</text>
</g>
<!-- D50&#45;&gt;D42 -->
<g id="edge24" class="edge">
<title>D50&#45;&gt;D42</title>
<path fill="none" stroke="black" d="M633.68,-719.91C622.58,-693.62 603.37,-641.45 603.37,-595 603.37,-595 603.37,-595 603.37,-233 603.37,-161.78 1146.4,-107.72 1295.11,-94.25"/>
<polygon fill="black" stroke="black" points="1295.48,-97.73 1305.12,-93.35 1294.85,-90.76 1295.48,-97.73"/>
</g>
<!-- D57 -->
<g id="node24" class="node">
<title>D57</title>
<polygon fill="none" stroke="black" points="1166.37,-756 1050.74,-738 1166.37,-720 1282.01,-738 1166.37,-756"/>
<text text-anchor="middle" x="1166.37" y="-733.8" font-family="Times,serif" font-size="14.00">(res[index].t==1)?</text>
</g>
<!-- D52&#45;&gt;D57 -->
<g id="edge44" class="edge">
<title>D52:s&#45;&gt;D57:n</title>
<path fill="none" stroke="black" d="M1166.37,-792C1166.37,-780 1166.37,-774.75 1166.37,-766.12"/>
<polygon fill="black" stroke="black" points="1169.87,-766 1166.37,-756 1162.87,-766 1169.87,-766"/>
<text text-anchor="middle" x="1161.32" y="-778.43" font-family="Times,serif" font-size="14.00">Y</text>
</g>
<!-- D98 -->
<g id="node38" class="node">
<title>D98</title>
<polygon fill="none" stroke="black" points="2050.37,-468 1824.58,-450 2050.37,-432 2276.17,-450 2050.37,-468"/>
<text text-anchor="middle" x="2050.37" y="-445.8" font-family="Times,serif" font-size="14.00">(res[index].c+temp.c &lt; res[temp.a].c)?</text>
</g>
<!-- D52&#45;&gt;D98 -->
<g id="edge45" class="edge">
<title>D52:e&#45;&gt;D98:n</title>
<path fill="none" stroke="black" d="M1255.37,-810C1357.55,-810 1692.37,-769.18 1692.37,-667 1692.37,-667 1692.37,-667 1692.37,-593 1692.37,-428.09 2035.15,-627.59 2049.88,-478.34"/>
<polygon fill="black" stroke="black" points="2053.4,-478.15 2050.37,-468 2046.4,-477.82 2053.4,-478.15"/>
<text text-anchor="middle" x="1687.32" y="-661.96" font-family="Times,serif" font-size="14.00">N</text>
</g>
<!-- D62 -->
<g id="node25" class="node">
<title>D62</title>
<polygon fill="none" stroke="black" points="1134.01,-684 958.74,-684 958.74,-648 1134.01,-648 1134.01,-684"/>
<text text-anchor="middle" x="1046.37" y="-661.8" font-family="Times,serif" font-size="14.00">long long len = res[index].a;</text>
</g>
<!-- D57&#45;&gt;D62 -->
<g id="edge36" class="edge">
<title>D57:s&#45;&gt;D62:n</title>
<path fill="none" stroke="black" d="M1166.37,-720C1166.37,-668.23 1062.65,-729.73 1048.07,-693.89"/>
<polygon fill="black" stroke="black" points="1051.51,-693.26 1046.37,-684 1044.61,-694.45 1051.51,-693.26"/>
<text text-anchor="middle" x="1101.43" y="-706.18" font-family="Times,serif" font-size="14.00">Y</text>
</g>
<!-- D83 -->
<g id="node33" class="node">
<title>D83</title>
<polygon fill="none" stroke="black" points="1537.37,-468 1267.85,-450 1537.37,-432 1806.89,-450 1537.37,-468"/>
<text text-anchor="middle" x="1537.37" y="-445.8" font-family="Times,serif" font-size="14.00">(res[index].c+temp.c*temp.c &lt; res[temp.a].c)?</text>
</g>
<!-- D57&#45;&gt;D83 -->
<g id="edge37" class="edge">
<title>D57:e&#45;&gt;D83:n</title>
<path fill="none" stroke="black" d="M1283.37,-738C1444.75,-738 1533.68,-637.03 1537.26,-478.06"/>
<polygon fill="black" stroke="black" points="1540.76,-478.04 1537.37,-468 1533.76,-477.96 1540.76,-478.04"/>
<text text-anchor="middle" x="1471.76" y="-663.71" font-family="Times,serif" font-size="14.00">N</text>
</g>
<!-- D64 -->
<g id="node26" class="node">
<title>D64</title>
<polygon fill="none" stroke="black" points="1079.36,-612 981.38,-612 981.38,-576 1079.36,-576 1079.36,-612"/>
<text text-anchor="middle" x="1030.37" y="-589.8" font-family="Times,serif" font-size="14.00">len += temp.c;</text>
</g>
<!-- D62&#45;&gt;D64 -->
<g id="edge26" class="edge">
<title>D62&#45;&gt;D64</title>
<path fill="none" stroke="black" d="M1042.42,-647.7C1040.65,-639.98 1038.53,-630.71 1036.57,-622.11"/>
<polygon fill="black" stroke="black" points="1039.92,-621.07 1034.28,-612.1 1033.1,-622.63 1039.92,-621.07"/>
</g>
<!-- D66 -->
<g id="node27" class="node">
<title>D66</title>
<polygon fill="none" stroke="black" points="1085.47,-540 915.28,-540 915.28,-504 1085.47,-504 1085.47,-540"/>
<text text-anchor="middle" x="1000.37" y="-517.8" font-family="Times,serif" font-size="14.00">long long new_p = len*len;</text>
</g>
<!-- D64&#45;&gt;D66 -->
<g id="edge27" class="edge">
<title>D64&#45;&gt;D66</title>
<path fill="none" stroke="black" d="M1022.96,-575.7C1019.58,-567.81 1015.5,-558.3 1011.75,-549.55"/>
<polygon fill="black" stroke="black" points="1014.86,-547.92 1007.7,-540.1 1008.42,-550.67 1014.86,-547.92"/>
</g>
<!-- D68 -->
<g id="node28" class="node">
<title>D68</title>
<polygon fill="none" stroke="black" points="940.37,-468 631.21,-450 940.37,-432 1249.54,-450 940.37,-468"/>
<text text-anchor="middle" x="940.37" y="-445.8" font-family="Times,serif" font-size="14.00">(res[index].c+ new_p &#45; res[index].p &#160;&lt; res[temp.a].c)?</text>
</g>
<!-- D66&#45;&gt;D68 -->
<g id="edge28" class="edge">
<title>D66&#45;&gt;D68</title>
<path fill="none" stroke="black" d="M985.54,-503.7C978.24,-495.18 969.31,-484.76 961.33,-475.45"/>
<polygon fill="black" stroke="black" points="963.78,-472.94 954.62,-467.62 958.47,-477.49 963.78,-472.94"/>
</g>
<!-- D68&#45;&gt;D42 -->
<g id="edge29" class="edge">
<title>D68:e&#45;&gt;D42:n</title>
<path fill="none" stroke="black" d="M1250.37,-450C1258.5,-450 1281.37,-315.13 1281.37,-307 1281.37,-307 1281.37,-307 1281.37,-233 1281.37,-176.51 1326.57,-168.78 1331.87,-118"/>
<polygon fill="black" stroke="black" points="1335.36,-118.16 1332.37,-108 1328.37,-117.81 1335.36,-118.16"/>
<text text-anchor="middle" x="1276.32" y="-301.96" font-family="Times,serif" font-size="14.00">N</text>
</g>
<!-- D73 -->
<g id="node29" class="node">
<title>D73</title>
<polygon fill="none" stroke="black" points="1122.83,-396 827.92,-396 827.92,-360 1122.83,-360 1122.83,-396"/>
<text text-anchor="middle" x="975.37" y="-373.8" font-family="Times,serif" font-size="14.00">res[temp.a].c = res[index].c+new_p &#45;res[index].p;</text>
</g>
<!-- D68&#45;&gt;D73 -->
<g id="edge35" class="edge">
<title>D68:s&#45;&gt;D73:n</title>
<path fill="none" stroke="black" d="M940.37,-432C940.37,-413.87 963.48,-416.17 972.14,-405.7"/>
<polygon fill="black" stroke="black" points="975.53,-406.59 975.37,-396 968.89,-404.38 975.53,-406.59"/>
<text text-anchor="middle" x="952.56" y="-418.3" font-family="Times,serif" font-size="14.00">Y</text>
</g>
<!-- D75 -->
<g id="node30" class="node">
<title>D75</title>
<polygon fill="none" stroke="black" points="1082.4,-324 970.34,-324 970.34,-288 1082.4,-288 1082.4,-324"/>
<text text-anchor="middle" x="1026.37" y="-301.8" font-family="Times,serif" font-size="14.00">res[temp.a].t = 1;</text>
</g>
<!-- D73&#45;&gt;D75 -->
<g id="edge30" class="edge">
<title>D73&#45;&gt;D75</title>
<path fill="none" stroke="black" d="M987.98,-359.7C993.97,-351.47 1001.25,-341.48 1007.85,-332.42"/>
<polygon fill="black" stroke="black" points="1010.85,-334.25 1013.91,-324.1 1005.19,-330.13 1010.85,-334.25"/>
</g>
<!-- D77 -->
<g id="node31" class="node">
<title>D77</title>
<polygon fill="none" stroke="black" points="1201.34,-252 1055.41,-252 1055.41,-216 1201.34,-216 1201.34,-252"/>
<text text-anchor="middle" x="1128.37" y="-229.8" font-family="Times,serif" font-size="14.00">res[temp.a].p = new_p;</text>
</g>
<!-- D75&#45;&gt;D77 -->
<g id="edge31" class="edge">
<title>D75&#45;&gt;D77</title>
<path fill="none" stroke="black" d="M1051.32,-287.88C1064.41,-278.89 1080.63,-267.76 1094.81,-258.03"/>
<polygon fill="black" stroke="black" points="1097.06,-260.73 1103.32,-252.19 1093.1,-254.96 1097.06,-260.73"/>
</g>
<!-- D79 -->
<g id="node32" class="node">
<title>D79</title>
<polygon fill="none" stroke="black" points="1222.83,-180 1097.91,-180 1097.91,-144 1222.83,-144 1222.83,-180"/>
<text text-anchor="middle" x="1160.37" y="-157.8" font-family="Times,serif" font-size="14.00">res[temp.a].a = len;</text>
</g>
<!-- D77&#45;&gt;D79 -->
<g id="edge32" class="edge">
<title>D77&#45;&gt;D79</title>
<path fill="none" stroke="black" d="M1136.28,-215.7C1139.92,-207.73 1144.33,-198.1 1148.37,-189.26"/>
<polygon fill="black" stroke="black" points="1151.58,-190.65 1152.55,-180.1 1145.21,-187.74 1151.58,-190.65"/>
</g>
<!-- D79&#45;&gt;D42 -->
<g id="edge33" class="edge">
<title>D79&#45;&gt;D42</title>
<path fill="none" stroke="black" d="M1202.45,-143.88C1230.97,-132.27 1268.3,-117.08 1295.63,-105.95"/>
<polygon fill="black" stroke="black" points="1297.26,-109.07 1305.21,-102.06 1294.62,-102.58 1297.26,-109.07"/>
</g>
<!-- D83&#45;&gt;D42 -->
<g id="edge34" class="edge">
<title>D83:e&#45;&gt;D42:n</title>
<path fill="none" stroke="black" d="M1808.37,-450C1816.38,-450 1809.98,-439.58 1807.37,-432 1785.33,-368 1720.37,-374.69 1720.37,-307 1720.37,-307 1720.37,-307 1720.37,-233 1720.37,-129.17 1603.61,-174.54 1504.37,-144 1470.55,-133.59 1356.77,-144.55 1335.73,-117.64"/>
<polygon fill="black" stroke="black" points="1338.97,-116.29 1332.37,-108 1332.36,-118.59 1338.97,-116.29"/>
<text text-anchor="middle" x="1575.08" y="-160.4" font-family="Times,serif" font-size="14.00">N</text>
</g>
<!-- D88 -->
<g id="node34" class="node">
<title>D88</title>
<polygon fill="none" stroke="black" points="1637.5,-396 1373.24,-396 1373.24,-360 1637.5,-360 1637.5,-396"/>
<text text-anchor="middle" x="1505.37" y="-373.8" font-family="Times,serif" font-size="14.00">res[temp.a].c = res[index].c+temp.c*temp.c;</text>
</g>
<!-- D83&#45;&gt;D88 -->
<g id="edge43" class="edge">
<title>D83:s&#45;&gt;D88:n</title>
<path fill="none" stroke="black" d="M1537.37,-432C1537.37,-414.77 1516.65,-415.82 1508.56,-405.73"/>
<polygon fill="black" stroke="black" points="1511.81,-404.42 1505.37,-396 1505.16,-406.59 1511.81,-404.42"/>
<text text-anchor="middle" x="1516.48" y="-418.27" font-family="Times,serif" font-size="14.00">Y</text>
</g>
<!-- D90 -->
<g id="node35" class="node">
<title>D90</title>
<polygon fill="none" stroke="black" points="1546.4,-324 1434.34,-324 1434.34,-288 1546.4,-288 1546.4,-324"/>
<text text-anchor="middle" x="1490.37" y="-301.8" font-family="Times,serif" font-size="14.00">res[temp.a].t = 1;</text>
</g>
<!-- D88&#45;&gt;D90 -->
<g id="edge38" class="edge">
<title>D88&#45;&gt;D90</title>
<path fill="none" stroke="black" d="M1501.66,-359.7C1500.01,-351.98 1498.02,-342.71 1496.18,-334.11"/>
<polygon fill="black" stroke="black" points="1499.55,-333.15 1494.04,-324.1 1492.71,-334.62 1499.55,-333.15"/>
</g>
<!-- D92 -->
<g id="node36" class="node">
<title>D92</title>
<polygon fill="none" stroke="black" points="1546.93,-252 1355.82,-252 1355.82,-216 1546.93,-216 1546.93,-252"/>
<text text-anchor="middle" x="1451.37" y="-229.8" font-family="Times,serif" font-size="14.00">res[temp.a].p = temp.c*temp.c;</text>
</g>
<!-- D90&#45;&gt;D92 -->
<g id="edge39" class="edge">
<title>D90&#45;&gt;D92</title>
<path fill="none" stroke="black" d="M1480.73,-287.7C1476.24,-279.64 1470.81,-269.89 1465.85,-260.98"/>
<polygon fill="black" stroke="black" points="1468.83,-259.14 1460.9,-252.1 1462.71,-262.54 1468.83,-259.14"/>
</g>
<!-- D94 -->
<g id="node37" class="node">
<title>D94</title>
<polygon fill="none" stroke="black" points="1494.93,-180 1349.81,-180 1349.81,-144 1494.93,-144 1494.93,-180"/>
<text text-anchor="middle" x="1422.37" y="-157.8" font-family="Times,serif" font-size="14.00">res[temp.a].a = temp.c;</text>
</g>
<!-- D92&#45;&gt;D94 -->
<g id="edge40" class="edge">
<title>D92&#45;&gt;D94</title>
<path fill="none" stroke="black" d="M1444.2,-215.7C1440.94,-207.81 1437,-198.3 1433.37,-189.55"/>
<polygon fill="black" stroke="black" points="1436.52,-188 1429.46,-180.1 1430.05,-190.68 1436.52,-188"/>
</g>
<!-- D94&#45;&gt;D42 -->
<g id="edge41" class="edge">
<title>D94&#45;&gt;D42</title>
<path fill="none" stroke="black" d="M1400.12,-143.7C1388.79,-134.88 1374.84,-124.03 1362.55,-114.47"/>
<polygon fill="black" stroke="black" points="1364.41,-111.48 1354.36,-108.1 1360.11,-117.01 1364.41,-111.48"/>
</g>
<!-- D98&#45;&gt;D42 -->
<g id="edge42" class="edge">
<title>D98:e&#45;&gt;D42:n</title>
<path fill="none" stroke="black" d="M2277.37,-450C2285.38,-450 2279.58,-439.34 2276.37,-432 2245.39,-361.16 2155.37,-384.32 2155.37,-307 2155.37,-307 2155.37,-307 2155.37,-233 2155.37,-136.92 2051.67,-166.92 1958.37,-144 1926.85,-136.26 1410.72,-141.93 1340.31,-114.57"/>
<polygon fill="black" stroke="black" points="1342.31,-111.68 1332.37,-108 1337.84,-117.08 1342.31,-111.68"/>
<text text-anchor="middle" x="1802.27" y="-143.33" font-family="Times,serif" font-size="14.00">N</text>
</g>
<!-- D103 -->
<g id="node39" class="node">
<title>D103</title>
<polygon fill="none" stroke="black" points="2048.29,-396 1828.45,-396 1828.45,-360 2048.29,-360 2048.29,-396"/>
<text text-anchor="middle" x="1938.37" y="-373.8" font-family="Times,serif" font-size="14.00">res[temp.a].c = res[index].c+temp.c;</text>
</g>
<!-- D98&#45;&gt;D103 -->
<g id="edge50" class="edge">
<title>D98:s&#45;&gt;D103:n</title>
<path fill="none" stroke="black" d="M2050.37,-432C2050.37,-383.8 1955.19,-438.31 1940.32,-406.16"/>
<polygon fill="black" stroke="black" points="1943.69,-405.16 1938.37,-396 1936.81,-406.48 1943.69,-405.16"/>
<text text-anchor="middle" x="1989.22" y="-418.21" font-family="Times,serif" font-size="14.00">Y</text>
</g>
<!-- D105 -->
<g id="node40" class="node">
<title>D105</title>
<polygon fill="none" stroke="black" points="1981.4,-324 1869.34,-324 1869.34,-288 1981.4,-288 1981.4,-324"/>
<text text-anchor="middle" x="1925.37" y="-301.8" font-family="Times,serif" font-size="14.00">res[temp.a].t = 0;</text>
</g>
<!-- D103&#45;&gt;D105 -->
<g id="edge46" class="edge">
<title>D103&#45;&gt;D105</title>
<path fill="none" stroke="black" d="M1935.16,-359.7C1933.73,-351.98 1932,-342.71 1930.41,-334.11"/>
<polygon fill="black" stroke="black" points="1933.82,-333.3 1928.55,-324.1 1926.93,-334.58 1933.82,-333.3"/>
</g>
<!-- D107 -->
<g id="node41" class="node">
<title>D107</title>
<polygon fill="none" stroke="black" points="1976.01,-252 1860.73,-252 1860.73,-216 1976.01,-216 1976.01,-252"/>
<text text-anchor="middle" x="1918.37" y="-229.8" font-family="Times,serif" font-size="14.00">res[temp.a].p = 0;</text>
</g>
<!-- D105&#45;&gt;D107 -->
<g id="edge47" class="edge">
<title>D105&#45;&gt;D107</title>
<path fill="none" stroke="black" d="M1923.64,-287.7C1922.87,-279.98 1921.94,-270.71 1921.08,-262.11"/>
<polygon fill="black" stroke="black" points="1924.56,-261.71 1920.08,-252.1 1917.59,-262.4 1924.56,-261.71"/>
</g>
<!-- D109 -->
<g id="node42" class="node">
<title>D109</title>
<polygon fill="none" stroke="black" points="1949.73,-180 1835.02,-180 1835.02,-144 1949.73,-144 1949.73,-180"/>
<text text-anchor="middle" x="1892.37" y="-157.8" font-family="Times,serif" font-size="14.00">res[temp.a].a = 0;</text>
</g>
<!-- D107&#45;&gt;D109 -->
<g id="edge48" class="edge">
<title>D107&#45;&gt;D109</title>
<path fill="none" stroke="black" d="M1911.94,-215.7C1909.02,-207.81 1905.48,-198.3 1902.23,-189.55"/>
<polygon fill="black" stroke="black" points="1905.49,-188.26 1898.72,-180.1 1898.93,-190.7 1905.49,-188.26"/>
</g>
<!-- D109&#45;&gt;D42 -->
<g id="edge49" class="edge">
<title>D109&#45;&gt;D42</title>
<path fill="none" stroke="black" d="M1834.81,-153.81C1719.94,-139.45 1465.08,-107.59 1369.52,-95.64"/>
<polygon fill="black" stroke="black" points="1369.82,-92.15 1359.46,-94.39 1368.95,-99.1 1369.82,-92.15"/>
</g>
</g>
</svg>
