<?xml version="1.0" encoding="UTF-8" standalone="no"?>
<!DOCTYPE svg PUBLIC "-//W3C//DTD SVG 1.1//EN"
 "http://www.w3.org/Graphics/SVG/1.1/DTD/svg11.dtd">
<!-- Generated by graphviz version 3.0.0 (20220404.1115)
 -->
<!-- Pages: 1 -->
<svg width="552pt" height="2276pt"
 viewBox="0.00 0.00 552.18 2276.00" xmlns="http://www.w3.org/2000/svg" xmlns:xlink="http://www.w3.org/1999/xlink">
<g id="graph0" class="graph" transform="scale(1 1) rotate(0) translate(4 2272)">
<polygon fill="white" stroke="transparent" points="-4,4 -4,-2272 548.18,-2272 548.18,4 -4,4"/>
<!-- D0 -->
<g id="node1" class="node">
<title>D0</title>
<path fill="none" stroke="black" d="M346.35,-2268C346.35,-2268 316.35,-2268 316.35,-2268 310.35,-2268 304.35,-2262 304.35,-2256 304.35,-2256 304.35,-2244 304.35,-2244 304.35,-2238 310.35,-2232 316.35,-2232 316.35,-2232 346.35,-2232 346.35,-2232 352.35,-2232 358.35,-2238 358.35,-2244 358.35,-2244 358.35,-2256 358.35,-2256 358.35,-2262 352.35,-2268 346.35,-2268"/>
<text text-anchor="middle" x="331.35" y="-2245.8" font-family="Times,serif" font-size="14.00">begin</text>
</g>
<!-- D4 -->
<g id="node3" class="node">
<title>D4</title>
<polygon fill="none" stroke="black" points="502.47,-2196 160.23,-2196 160.23,-2160 502.47,-2160 502.47,-2196"/>
<text text-anchor="middle" x="331.35" y="-2173.8" font-family="Times,serif" font-size="14.00">TreeNode *test = (TreeNode *)malloc(sizeof(TreeNode));</text>
</g>
<!-- D0&#45;&gt;D4 -->
<g id="edge33" class="edge">
<title>D0&#45;&gt;D4</title>
<path fill="none" stroke="black" d="M331.35,-2231.7C331.35,-2223.98 331.35,-2214.71 331.35,-2206.11"/>
<polygon fill="black" stroke="black" points="334.85,-2206.1 331.35,-2196.1 327.85,-2206.1 334.85,-2206.1"/>
</g>
<!-- D1 -->
<g id="node2" class="node">
<title>D1</title>
<path fill="none" stroke="black" d="M401.35,-36C401.35,-36 371.35,-36 371.35,-36 365.35,-36 359.35,-30 359.35,-24 359.35,-24 359.35,-12 359.35,-12 359.35,-6 365.35,0 371.35,0 371.35,0 401.35,0 401.35,0 407.35,0 413.35,-6 413.35,-12 413.35,-12 413.35,-24 413.35,-24 413.35,-30 407.35,-36 401.35,-36"/>
<text text-anchor="middle" x="386.35" y="-13.8" font-family="Times,serif" font-size="14.00">end</text>
</g>
<!-- D6 -->
<g id="node4" class="node">
<title>D6</title>
<polygon fill="none" stroke="black" points="382.21,-2124 280.49,-2124 280.49,-2088 382.21,-2088 382.21,-2124"/>
<text text-anchor="middle" x="331.35" y="-2101.8" font-family="Times,serif" font-size="14.00">test&#45;&gt;data = &#39;a&#39;;</text>
</g>
<!-- D4&#45;&gt;D6 -->
<g id="edge1" class="edge">
<title>D4&#45;&gt;D6</title>
<path fill="none" stroke="black" d="M331.35,-2159.7C331.35,-2151.98 331.35,-2142.71 331.35,-2134.11"/>
<polygon fill="black" stroke="black" points="334.85,-2134.1 331.35,-2124.1 327.85,-2134.1 334.85,-2134.1"/>
</g>
<!-- D8 -->
<g id="node5" class="node">
<title>D8</title>
<polygon fill="none" stroke="black" points="506.75,-2052 155.94,-2052 155.94,-2016 506.75,-2016 506.75,-2052"/>
<text text-anchor="middle" x="331.35" y="-2029.8" font-family="Times,serif" font-size="14.00">test&#45;&gt;children[0] = (TreeNode *)malloc(sizeof(TreeNode));</text>
</g>
<!-- D6&#45;&gt;D8 -->
<g id="edge2" class="edge">
<title>D6&#45;&gt;D8</title>
<path fill="none" stroke="black" d="M331.35,-2087.7C331.35,-2079.98 331.35,-2070.71 331.35,-2062.11"/>
<polygon fill="black" stroke="black" points="334.85,-2062.1 331.35,-2052.1 327.85,-2062.1 334.85,-2062.1"/>
</g>
<!-- D10 -->
<g id="node6" class="node">
<title>D10</title>
<polygon fill="none" stroke="black" points="506.75,-1980 155.94,-1980 155.94,-1944 506.75,-1944 506.75,-1980"/>
<text text-anchor="middle" x="331.35" y="-1957.8" font-family="Times,serif" font-size="14.00">test&#45;&gt;children[1] = (TreeNode *)malloc(sizeof(TreeNode));</text>
</g>
<!-- D8&#45;&gt;D10 -->
<g id="edge3" class="edge">
<title>D8&#45;&gt;D10</title>
<path fill="none" stroke="black" d="M331.35,-2015.7C331.35,-2007.98 331.35,-1998.71 331.35,-1990.11"/>
<polygon fill="black" stroke="black" points="334.85,-1990.1 331.35,-1980.1 327.85,-1990.1 334.85,-1990.1"/>
</g>
<!-- D12 -->
<g id="node7" class="node">
<title>D12</title>
<polygon fill="none" stroke="black" points="506.75,-1908 155.94,-1908 155.94,-1872 506.75,-1872 506.75,-1908"/>
<text text-anchor="middle" x="331.35" y="-1885.8" font-family="Times,serif" font-size="14.00">test&#45;&gt;children[2] = (TreeNode *)malloc(sizeof(TreeNode));</text>
</g>
<!-- D10&#45;&gt;D12 -->
<g id="edge4" class="edge">
<title>D10&#45;&gt;D12</title>
<path fill="none" stroke="black" d="M331.35,-1943.7C331.35,-1935.98 331.35,-1926.71 331.35,-1918.11"/>
<polygon fill="black" stroke="black" points="334.85,-1918.1 331.35,-1908.1 327.85,-1918.1 334.85,-1918.1"/>
</g>
<!-- D14 -->
<g id="node8" class="node">
<title>D14</title>
<polygon fill="none" stroke="black" points="419.74,-1836 242.95,-1836 242.95,-1800 419.74,-1800 419.74,-1836"/>
<text text-anchor="middle" x="331.35" y="-1813.8" font-family="Times,serif" font-size="14.00">test&#45;&gt;children[0]&#45;&gt;data = &#39;b&#39;;</text>
</g>
<!-- D12&#45;&gt;D14 -->
<g id="edge5" class="edge">
<title>D12&#45;&gt;D14</title>
<path fill="none" stroke="black" d="M331.35,-1871.7C331.35,-1863.98 331.35,-1854.71 331.35,-1846.11"/>
<polygon fill="black" stroke="black" points="334.85,-1846.1 331.35,-1836.1 327.85,-1846.1 334.85,-1846.1"/>
</g>
<!-- D16 -->
<g id="node9" class="node">
<title>D16</title>
<polygon fill="none" stroke="black" points="419.46,-1764 243.24,-1764 243.24,-1728 419.46,-1728 419.46,-1764"/>
<text text-anchor="middle" x="331.35" y="-1741.8" font-family="Times,serif" font-size="14.00">test&#45;&gt;children[1]&#45;&gt;data = &#39;c&#39;;</text>
</g>
<!-- D14&#45;&gt;D16 -->
<g id="edge6" class="edge">
<title>D14&#45;&gt;D16</title>
<path fill="none" stroke="black" d="M331.35,-1799.7C331.35,-1791.98 331.35,-1782.71 331.35,-1774.11"/>
<polygon fill="black" stroke="black" points="334.85,-1774.1 331.35,-1764.1 327.85,-1774.1 334.85,-1774.1"/>
</g>
<!-- D18 -->
<g id="node10" class="node">
<title>D18</title>
<polygon fill="none" stroke="black" points="419.74,-1692 242.95,-1692 242.95,-1656 419.74,-1656 419.74,-1692"/>
<text text-anchor="middle" x="331.35" y="-1669.8" font-family="Times,serif" font-size="14.00">test&#45;&gt;children[2]&#45;&gt;data = &#39;d&#39;;</text>
</g>
<!-- D16&#45;&gt;D18 -->
<g id="edge7" class="edge">
<title>D16&#45;&gt;D18</title>
<path fill="none" stroke="black" d="M331.35,-1727.7C331.35,-1719.98 331.35,-1710.71 331.35,-1702.11"/>
<polygon fill="black" stroke="black" points="334.85,-1702.1 331.35,-1692.1 327.85,-1702.1 334.85,-1702.1"/>
</g>
<!-- D20 -->
<g id="node11" class="node">
<title>D20</title>
<polygon fill="none" stroke="black" points="414.65,-1620 248.04,-1620 248.04,-1584 414.65,-1584 414.65,-1620"/>
<text text-anchor="middle" x="331.35" y="-1597.8" font-family="Times,serif" font-size="14.00">test&#45;&gt;children[3] = NULL;</text>
</g>
<!-- D18&#45;&gt;D20 -->
<g id="edge8" class="edge">
<title>D18&#45;&gt;D20</title>
<path fill="none" stroke="black" d="M331.35,-1655.7C331.35,-1647.98 331.35,-1638.71 331.35,-1630.11"/>
<polygon fill="black" stroke="black" points="334.85,-1630.1 331.35,-1620.1 327.85,-1630.1 334.85,-1630.1"/>
</g>
<!-- D22 -->
<g id="node12" class="node">
<title>D22</title>
<polygon fill="none" stroke="black" points="544,-1548 118.69,-1548 118.69,-1512 544,-1512 544,-1548"/>
<text text-anchor="middle" x="331.35" y="-1525.8" font-family="Times,serif" font-size="14.00">test&#45;&gt;children[0]&#45;&gt;children[0] = (TreeNode *)malloc(sizeof(TreeNode));</text>
</g>
<!-- D20&#45;&gt;D22 -->
<g id="edge9" class="edge">
<title>D20&#45;&gt;D22</title>
<path fill="none" stroke="black" d="M331.35,-1583.7C331.35,-1575.98 331.35,-1566.71 331.35,-1558.11"/>
<polygon fill="black" stroke="black" points="334.85,-1558.1 331.35,-1548.1 327.85,-1558.1 334.85,-1558.1"/>
</g>
<!-- D24 -->
<g id="node13" class="node">
<title>D24</title>
<polygon fill="none" stroke="black" points="544,-1476 118.69,-1476 118.69,-1440 544,-1440 544,-1476"/>
<text text-anchor="middle" x="331.35" y="-1453.8" font-family="Times,serif" font-size="14.00">test&#45;&gt;children[0]&#45;&gt;children[1] = (TreeNode *)malloc(sizeof(TreeNode));</text>
</g>
<!-- D22&#45;&gt;D24 -->
<g id="edge10" class="edge">
<title>D22&#45;&gt;D24</title>
<path fill="none" stroke="black" d="M331.35,-1511.7C331.35,-1503.98 331.35,-1494.71 331.35,-1486.11"/>
<polygon fill="black" stroke="black" points="334.85,-1486.1 331.35,-1476.1 327.85,-1486.1 334.85,-1486.1"/>
</g>
<!-- D26 -->
<g id="node14" class="node">
<title>D26</title>
<polygon fill="none" stroke="black" points="456.71,-1404 205.98,-1404 205.98,-1368 456.71,-1368 456.71,-1404"/>
<text text-anchor="middle" x="331.35" y="-1381.8" font-family="Times,serif" font-size="14.00">test&#45;&gt;children[0]&#45;&gt;children[0]&#45;&gt;data = &#39;e&#39;;</text>
</g>
<!-- D24&#45;&gt;D26 -->
<g id="edge11" class="edge">
<title>D24&#45;&gt;D26</title>
<path fill="none" stroke="black" d="M331.35,-1439.7C331.35,-1431.98 331.35,-1422.71 331.35,-1414.11"/>
<polygon fill="black" stroke="black" points="334.85,-1414.1 331.35,-1404.1 327.85,-1414.1 334.85,-1414.1"/>
</g>
<!-- D28 -->
<g id="node15" class="node">
<title>D28</title>
<polygon fill="none" stroke="black" points="489.15,-1332 173.54,-1332 173.54,-1296 489.15,-1296 489.15,-1332"/>
<text text-anchor="middle" x="331.35" y="-1309.8" font-family="Times,serif" font-size="14.00">test&#45;&gt;children[0]&#45;&gt;children[0]&#45;&gt;children[0] = NULL;</text>
</g>
<!-- D26&#45;&gt;D28 -->
<g id="edge12" class="edge">
<title>D26&#45;&gt;D28</title>
<path fill="none" stroke="black" d="M331.35,-1367.7C331.35,-1359.98 331.35,-1350.71 331.35,-1342.11"/>
<polygon fill="black" stroke="black" points="334.85,-1342.1 331.35,-1332.1 327.85,-1342.1 334.85,-1342.1"/>
</g>
<!-- D30 -->
<g id="node16" class="node">
<title>D30</title>
<polygon fill="none" stroke="black" points="456.16,-1260 206.54,-1260 206.54,-1224 456.16,-1224 456.16,-1260"/>
<text text-anchor="middle" x="331.35" y="-1237.8" font-family="Times,serif" font-size="14.00">test&#45;&gt;children[0]&#45;&gt;children[1]&#45;&gt;data = &#39;f&#39;;</text>
</g>
<!-- D28&#45;&gt;D30 -->
<g id="edge13" class="edge">
<title>D28&#45;&gt;D30</title>
<path fill="none" stroke="black" d="M331.35,-1295.7C331.35,-1287.98 331.35,-1278.71 331.35,-1270.11"/>
<polygon fill="black" stroke="black" points="334.85,-1270.1 331.35,-1260.1 327.85,-1270.1 334.85,-1270.1"/>
</g>
<!-- D32 -->
<g id="node17" class="node">
<title>D32</title>
<polygon fill="none" stroke="black" points="489.15,-1188 173.54,-1188 173.54,-1152 489.15,-1152 489.15,-1188"/>
<text text-anchor="middle" x="331.35" y="-1165.8" font-family="Times,serif" font-size="14.00">test&#45;&gt;children[0]&#45;&gt;children[1]&#45;&gt;children[0] = NULL;</text>
</g>
<!-- D30&#45;&gt;D32 -->
<g id="edge14" class="edge">
<title>D30&#45;&gt;D32</title>
<path fill="none" stroke="black" d="M331.35,-1223.7C331.35,-1215.98 331.35,-1206.71 331.35,-1198.11"/>
<polygon fill="black" stroke="black" points="334.85,-1198.1 331.35,-1188.1 327.85,-1198.1 334.85,-1198.1"/>
</g>
<!-- D34 -->
<g id="node18" class="node">
<title>D34</title>
<polygon fill="none" stroke="black" points="451.9,-1116 210.79,-1116 210.79,-1080 451.9,-1080 451.9,-1116"/>
<text text-anchor="middle" x="331.35" y="-1093.8" font-family="Times,serif" font-size="14.00">test&#45;&gt;children[0]&#45;&gt;children[2] = NULL;</text>
</g>
<!-- D32&#45;&gt;D34 -->
<g id="edge15" class="edge">
<title>D32&#45;&gt;D34</title>
<path fill="none" stroke="black" d="M331.35,-1151.7C331.35,-1143.98 331.35,-1134.71 331.35,-1126.11"/>
<polygon fill="black" stroke="black" points="334.85,-1126.1 331.35,-1116.1 327.85,-1126.1 334.85,-1126.1"/>
</g>
<!-- D36 -->
<g id="node19" class="node">
<title>D36</title>
<polygon fill="none" stroke="black" points="544,-1044 118.69,-1044 118.69,-1008 544,-1008 544,-1044"/>
<text text-anchor="middle" x="331.35" y="-1021.8" font-family="Times,serif" font-size="14.00">test&#45;&gt;children[1]&#45;&gt;children[0] = (TreeNode *)malloc(sizeof(TreeNode));</text>
</g>
<!-- D34&#45;&gt;D36 -->
<g id="edge16" class="edge">
<title>D34&#45;&gt;D36</title>
<path fill="none" stroke="black" d="M331.35,-1079.7C331.35,-1071.98 331.35,-1062.71 331.35,-1054.11"/>
<polygon fill="black" stroke="black" points="334.85,-1054.1 331.35,-1044.1 327.85,-1054.1 334.85,-1054.1"/>
</g>
<!-- D38 -->
<g id="node20" class="node">
<title>D38</title>
<polygon fill="none" stroke="black" points="457,-972 205.7,-972 205.7,-936 457,-936 457,-972"/>
<text text-anchor="middle" x="331.35" y="-949.8" font-family="Times,serif" font-size="14.00">test&#45;&gt;children[1]&#45;&gt;children[0]&#45;&gt;data = &#39;g&#39;;</text>
</g>
<!-- D36&#45;&gt;D38 -->
<g id="edge17" class="edge">
<title>D36&#45;&gt;D38</title>
<path fill="none" stroke="black" d="M331.35,-1007.7C331.35,-999.98 331.35,-990.71 331.35,-982.11"/>
<polygon fill="black" stroke="black" points="334.85,-982.1 331.35,-972.1 327.85,-982.1 334.85,-982.1"/>
</g>
<!-- D40 -->
<g id="node21" class="node">
<title>D40</title>
<polygon fill="none" stroke="black" points="489.15,-900 173.54,-900 173.54,-864 489.15,-864 489.15,-900"/>
<text text-anchor="middle" x="331.35" y="-877.8" font-family="Times,serif" font-size="14.00">test&#45;&gt;children[1]&#45;&gt;children[0]&#45;&gt;children[0] = NULL;</text>
</g>
<!-- D38&#45;&gt;D40 -->
<g id="edge18" class="edge">
<title>D38&#45;&gt;D40</title>
<path fill="none" stroke="black" d="M331.35,-935.7C331.35,-927.98 331.35,-918.71 331.35,-910.11"/>
<polygon fill="black" stroke="black" points="334.85,-910.1 331.35,-900.1 327.85,-910.1 334.85,-910.1"/>
</g>
<!-- D42 -->
<g id="node22" class="node">
<title>D42</title>
<polygon fill="none" stroke="black" points="451.9,-828 210.79,-828 210.79,-792 451.9,-792 451.9,-828"/>
<text text-anchor="middle" x="331.35" y="-805.8" font-family="Times,serif" font-size="14.00">test&#45;&gt;children[1]&#45;&gt;children[1] = NULL;</text>
</g>
<!-- D40&#45;&gt;D42 -->
<g id="edge19" class="edge">
<title>D40&#45;&gt;D42</title>
<path fill="none" stroke="black" d="M331.35,-863.7C331.35,-855.98 331.35,-846.71 331.35,-838.11"/>
<polygon fill="black" stroke="black" points="334.85,-838.1 331.35,-828.1 327.85,-838.1 334.85,-838.1"/>
</g>
<!-- D44 -->
<g id="node23" class="node">
<title>D44</title>
<polygon fill="none" stroke="black" points="544,-756 118.69,-756 118.69,-720 544,-720 544,-756"/>
<text text-anchor="middle" x="331.35" y="-733.8" font-family="Times,serif" font-size="14.00">test&#45;&gt;children[2]&#45;&gt;children[0] = (TreeNode *)malloc(sizeof(TreeNode));</text>
</g>
<!-- D42&#45;&gt;D44 -->
<g id="edge20" class="edge">
<title>D42&#45;&gt;D44</title>
<path fill="none" stroke="black" d="M331.35,-791.7C331.35,-783.98 331.35,-774.71 331.35,-766.11"/>
<polygon fill="black" stroke="black" points="334.85,-766.1 331.35,-756.1 327.85,-766.1 334.85,-766.1"/>
</g>
<!-- D46 -->
<g id="node24" class="node">
<title>D46</title>
<polygon fill="none" stroke="black" points="544,-684 118.69,-684 118.69,-648 544,-648 544,-684"/>
<text text-anchor="middle" x="331.35" y="-661.8" font-family="Times,serif" font-size="14.00">test&#45;&gt;children[2]&#45;&gt;children[1] = (TreeNode *)malloc(sizeof(TreeNode));</text>
</g>
<!-- D44&#45;&gt;D46 -->
<g id="edge21" class="edge">
<title>D44&#45;&gt;D46</title>
<path fill="none" stroke="black" d="M331.35,-719.7C331.35,-711.98 331.35,-702.71 331.35,-694.11"/>
<polygon fill="black" stroke="black" points="334.85,-694.1 331.35,-684.1 327.85,-694.1 334.85,-694.1"/>
</g>
<!-- D48 -->
<g id="node25" class="node">
<title>D48</title>
<polygon fill="none" stroke="black" points="544,-612 118.69,-612 118.69,-576 544,-576 544,-612"/>
<text text-anchor="middle" x="331.35" y="-589.8" font-family="Times,serif" font-size="14.00">test&#45;&gt;children[2]&#45;&gt;children[2] = (TreeNode *)malloc(sizeof(TreeNode));</text>
</g>
<!-- D46&#45;&gt;D48 -->
<g id="edge22" class="edge">
<title>D46&#45;&gt;D48</title>
<path fill="none" stroke="black" d="M331.35,-647.7C331.35,-639.98 331.35,-630.71 331.35,-622.11"/>
<polygon fill="black" stroke="black" points="334.85,-622.1 331.35,-612.1 327.85,-622.1 334.85,-622.1"/>
</g>
<!-- D50 -->
<g id="node26" class="node">
<title>D50</title>
<polygon fill="none" stroke="black" points="457,-540 205.7,-540 205.7,-504 457,-504 457,-540"/>
<text text-anchor="middle" x="331.35" y="-517.8" font-family="Times,serif" font-size="14.00">test&#45;&gt;children[2]&#45;&gt;children[0]&#45;&gt;data = &#39;h&#39;;</text>
</g>
<!-- D48&#45;&gt;D50 -->
<g id="edge23" class="edge">
<title>D48&#45;&gt;D50</title>
<path fill="none" stroke="black" d="M331.35,-575.7C331.35,-567.98 331.35,-558.71 331.35,-550.11"/>
<polygon fill="black" stroke="black" points="334.85,-550.1 331.35,-540.1 327.85,-550.1 334.85,-550.1"/>
</g>
<!-- D52 -->
<g id="node27" class="node">
<title>D52</title>
<polygon fill="none" stroke="black" points="455.39,-468 207.31,-468 207.31,-432 455.39,-432 455.39,-468"/>
<text text-anchor="middle" x="331.35" y="-445.8" font-family="Times,serif" font-size="14.00">test&#45;&gt;children[2]&#45;&gt;children[1]&#45;&gt;data = &#39;i&#39;;</text>
</g>
<!-- D50&#45;&gt;D52 -->
<g id="edge24" class="edge">
<title>D50&#45;&gt;D52</title>
<path fill="none" stroke="black" d="M331.35,-503.7C331.35,-495.98 331.35,-486.71 331.35,-478.11"/>
<polygon fill="black" stroke="black" points="334.85,-478.1 331.35,-468.1 327.85,-478.1 334.85,-478.1"/>
</g>
<!-- D54 -->
<g id="node28" class="node">
<title>D54</title>
<polygon fill="none" stroke="black" points="455.39,-396 207.31,-396 207.31,-360 455.39,-360 455.39,-396"/>
<text text-anchor="middle" x="331.35" y="-373.8" font-family="Times,serif" font-size="14.00">test&#45;&gt;children[2]&#45;&gt;children[2]&#45;&gt;data = &#39;j&#39;;</text>
</g>
<!-- D52&#45;&gt;D54 -->
<g id="edge25" class="edge">
<title>D52&#45;&gt;D54</title>
<path fill="none" stroke="black" d="M331.35,-431.7C331.35,-423.98 331.35,-414.71 331.35,-406.11"/>
<polygon fill="black" stroke="black" points="334.85,-406.1 331.35,-396.1 327.85,-406.1 334.85,-406.1"/>
</g>
<!-- D59 -->
<g id="node30" class="node">
<title>D59</title>
<polygon fill="none" stroke="black" points="363.3,-324 299.39,-324 299.39,-288 363.3,-288 363.3,-324"/>
<text text-anchor="middle" x="331.35" y="-301.8" font-family="Times,serif" font-size="14.00">int i = 0;</text>
</g>
<!-- D54&#45;&gt;D59 -->
<g id="edge26" class="edge">
<title>D54&#45;&gt;D59</title>
<path fill="none" stroke="black" d="M331.35,-359.7C331.35,-351.98 331.35,-342.71 331.35,-334.11"/>
<polygon fill="black" stroke="black" points="334.85,-334.1 331.35,-324.1 327.85,-334.1 334.85,-334.1"/>
</g>
<!-- D58 -->
<g id="node29" class="node">
<title>D58</title>
<polygon fill="none" stroke="black" points="331.35,-252 276.8,-234 331.35,-216 385.9,-234 331.35,-252"/>
<text text-anchor="middle" x="331.35" y="-229.8" font-family="Times,serif" font-size="14.00">i &lt;= 2?</text>
</g>
<!-- D63 -->
<g id="node32" class="node">
<title>D63</title>
<polygon fill="none" stroke="black" points="312.54,-180 0.15,-180 0.15,-144 312.54,-144 312.54,-180"/>
<text text-anchor="middle" x="156.35" y="-157.8" font-family="Times,serif" font-size="14.00">test&#45;&gt;children[2]&#45;&gt;children[i]&#45;&gt;children[0] = NULL;</text>
</g>
<!-- D58&#45;&gt;D63 -->
<g id="edge32" class="edge">
<title>D58:s&#45;&gt;D63:n</title>
<path fill="none" stroke="black" d="M331.35,-216C331.35,-140.47 173.02,-247.9 157.56,-190.23"/>
<polygon fill="black" stroke="black" points="161,-189.52 156.35,-180 154.05,-190.34 161,-189.52"/>
<text text-anchor="middle" x="238.86" y="-202.18" font-family="Times,serif" font-size="14.00">Y</text>
</g>
<!-- D65 -->
<g id="node33" class="node">
<title>D65</title>
<polygon fill="none" stroke="black" points="506.9,-108 265.79,-108 265.79,-72 506.9,-72 506.9,-108"/>
<text text-anchor="middle" x="386.35" y="-85.8" font-family="Times,serif" font-size="14.00">test&#45;&gt;children[2]&#45;&gt;children[3] = NULL;</text>
</g>
<!-- D58&#45;&gt;D65 -->
<g id="edge27" class="edge">
<title>D58:e&#45;&gt;D65:n</title>
<path fill="none" stroke="black" d="M387.35,-234C439.96,-234 392.83,-172.22 386.94,-118.31"/>
<polygon fill="black" stroke="black" points="390.41,-117.78 386.35,-108 383.42,-118.18 390.41,-117.78"/>
<text text-anchor="middle" x="394.45" y="-171.09" font-family="Times,serif" font-size="14.00">N</text>
</g>
<!-- D59&#45;&gt;D58 -->
<g id="edge28" class="edge">
<title>D59&#45;&gt;D58</title>
<path fill="none" stroke="black" d="M331.35,-287.7C331.35,-279.98 331.35,-270.71 331.35,-262.11"/>
<polygon fill="black" stroke="black" points="334.85,-262.1 331.35,-252.1 327.85,-262.1 334.85,-262.1"/>
</g>
<!-- D60 -->
<g id="node31" class="node">
<title>D60</title>
<polygon fill="none" stroke="black" points="215.35,-108 161.35,-108 161.35,-72 215.35,-72 215.35,-108"/>
<text text-anchor="middle" x="188.35" y="-85.8" font-family="Times,serif" font-size="14.00">i++</text>
</g>
<!-- D60&#45;&gt;D58 -->
<g id="edge30" class="edge">
<title>D60&#45;&gt;D58</title>
<path fill="none" stroke="black" d="M215.6,-98.28C250.52,-108.19 308.12,-126.66 321.35,-144 334.81,-161.65 336.37,-187.29 335.11,-206.53"/>
<polygon fill="black" stroke="black" points="331.6,-206.45 334.15,-216.73 338.57,-207.1 331.6,-206.45"/>
</g>
<!-- D63&#45;&gt;D60 -->
<g id="edge29" class="edge">
<title>D63&#45;&gt;D60</title>
<path fill="none" stroke="black" d="M164.26,-143.7C167.9,-135.73 172.3,-126.1 176.34,-117.26"/>
<polygon fill="black" stroke="black" points="179.55,-118.65 180.53,-108.1 173.19,-115.74 179.55,-118.65"/>
</g>
<!-- D65&#45;&gt;D1 -->
<g id="edge31" class="edge">
<title>D65&#45;&gt;D1</title>
<path fill="none" stroke="black" d="M386.35,-71.7C386.35,-63.98 386.35,-54.71 386.35,-46.11"/>
<polygon fill="black" stroke="black" points="389.85,-46.1 386.35,-36.1 382.85,-46.1 389.85,-46.1"/>
</g>
</g>
</svg>
