<?xml version="1.0" encoding="UTF-8" standalone="no"?>
<!DOCTYPE svg PUBLIC "-//W3C//DTD SVG 1.1//EN"
 "http://www.w3.org/Graphics/SVG/1.1/DTD/svg11.dtd">
<!-- Generated by graphviz version 3.0.0 (20220404.1115)
 -->
<!-- Pages: 1 -->
<svg width="758pt" height="1855pt"
 viewBox="0.00 0.00 757.62 1855.20" xmlns="http://www.w3.org/2000/svg" xmlns:xlink="http://www.w3.org/1999/xlink">
<g id="graph0" class="graph" transform="scale(1 1) rotate(0) translate(4 1851.2)">
<polygon fill="white" stroke="transparent" points="-4,4 -4,-1851.2 753.62,-1851.2 753.62,4 -4,4"/>
<!-- D0 -->
<g id="node1" class="node">
<title>D0</title>
<path fill="none" stroke="black" d="M211.76,-1847.2C211.76,-1847.2 181.76,-1847.2 181.76,-1847.2 175.76,-1847.2 169.76,-1841.2 169.76,-1835.2 169.76,-1835.2 169.76,-1823.2 169.76,-1823.2 169.76,-1817.2 175.76,-1811.2 181.76,-1811.2 181.76,-1811.2 211.76,-1811.2 211.76,-1811.2 217.76,-1811.2 223.76,-1817.2 223.76,-1823.2 223.76,-1823.2 223.76,-1835.2 223.76,-1835.2 223.76,-1841.2 217.76,-1847.2 211.76,-1847.2"/>
<text text-anchor="middle" x="196.76" y="-1825" font-family="Times,serif" font-size="14.00">begin</text>
</g>
<!-- D4 -->
<g id="node3" class="node">
<title>D4</title>
<polygon fill="none" stroke="black" points="290.86,-1775.2 102.65,-1775.2 102.65,-1739.2 290.86,-1739.2 290.86,-1775.2"/>
<text text-anchor="middle" x="196.76" y="-1753" font-family="Times,serif" font-size="14.00">cout &lt;&lt; &quot;散列表如下：&quot; &lt;&lt; endl;</text>
</g>
<!-- D0&#45;&gt;D4 -->
<g id="edge35" class="edge">
<title>D0&#45;&gt;D4</title>
<path fill="none" stroke="black" d="M196.76,-1810.9C196.76,-1803.18 196.76,-1793.91 196.76,-1785.31"/>
<polygon fill="black" stroke="black" points="200.26,-1785.3 196.76,-1775.3 193.26,-1785.3 200.26,-1785.3"/>
</g>
<!-- D1 -->
<g id="node2" class="node">
<title>D1</title>
<path fill="none" stroke="black" d="M677.76,-36C677.76,-36 647.76,-36 647.76,-36 641.76,-36 635.76,-30 635.76,-24 635.76,-24 635.76,-12 635.76,-12 635.76,-6 641.76,0 647.76,0 647.76,0 677.76,0 677.76,0 683.76,0 689.76,-6 689.76,-12 689.76,-12 689.76,-24 689.76,-24 689.76,-30 683.76,-36 677.76,-36"/>
<text text-anchor="middle" x="662.76" y="-13.8" font-family="Times,serif" font-size="14.00">end</text>
</g>
<!-- D6 -->
<g id="node4" class="node">
<title>D6</title>
<polygon fill="none" stroke="black" points="252.52,-1703.2 140.99,-1703.2 140.99,-1667.2 252.52,-1667.2 252.52,-1703.2"/>
<text text-anchor="middle" x="196.76" y="-1681" font-family="Times,serif" font-size="14.00">FILE *fp1, *fp2;</text>
</g>
<!-- D4&#45;&gt;D6 -->
<g id="edge1" class="edge">
<title>D4&#45;&gt;D6</title>
<path fill="none" stroke="black" d="M196.76,-1738.9C196.76,-1731.18 196.76,-1721.91 196.76,-1713.31"/>
<polygon fill="black" stroke="black" points="200.26,-1713.3 196.76,-1703.3 193.26,-1713.3 200.26,-1713.3"/>
</g>
<!-- D8 -->
<g id="node5" class="node">
<title>D8</title>
<polygon fill="none" stroke="black" points="280.37,-1631.2 113.14,-1631.2 113.14,-1595.2 280.37,-1595.2 280.37,-1631.2"/>
<text text-anchor="middle" x="196.76" y="-1609" font-family="Times,serif" font-size="14.00">fp1 = fopen(fname, &quot;rb+&quot;);</text>
</g>
<!-- D6&#45;&gt;D8 -->
<g id="edge2" class="edge">
<title>D6&#45;&gt;D8</title>
<path fill="none" stroke="black" d="M196.76,-1666.9C196.76,-1659.18 196.76,-1649.91 196.76,-1641.31"/>
<polygon fill="black" stroke="black" points="200.26,-1641.3 196.76,-1631.3 193.26,-1641.3 200.26,-1641.3"/>
</g>
<!-- D10 -->
<g id="node6" class="node">
<title>D10</title>
<polygon fill="none" stroke="black" points="280.37,-1559.2 113.14,-1559.2 113.14,-1523.2 280.37,-1523.2 280.37,-1559.2"/>
<text text-anchor="middle" x="196.76" y="-1537" font-family="Times,serif" font-size="14.00">fp2 = fopen(Iname, &quot;rb+&quot;);</text>
</g>
<!-- D8&#45;&gt;D10 -->
<g id="edge3" class="edge">
<title>D8&#45;&gt;D10</title>
<path fill="none" stroke="black" d="M196.76,-1594.9C196.76,-1587.18 196.76,-1577.91 196.76,-1569.31"/>
<polygon fill="black" stroke="black" points="200.26,-1569.3 196.76,-1559.3 193.26,-1569.3 200.26,-1569.3"/>
</g>
<!-- D12 -->
<g id="node7" class="node">
<title>D12</title>
<polygon fill="none" stroke="black" points="196.76,-1487.2 0.24,-1469.2 196.76,-1451.2 393.27,-1469.2 196.76,-1487.2"/>
<text text-anchor="middle" x="196.76" y="-1465" font-family="Times,serif" font-size="14.00">(NULL == fp1 || NULL == fp2)?</text>
</g>
<!-- D10&#45;&gt;D12 -->
<g id="edge4" class="edge">
<title>D10&#45;&gt;D12</title>
<path fill="none" stroke="black" d="M196.76,-1522.9C196.76,-1515.18 196.76,-1505.91 196.76,-1497.31"/>
<polygon fill="black" stroke="black" points="200.26,-1497.3 196.76,-1487.3 193.26,-1497.3 200.26,-1497.3"/>
</g>
<!-- D17 -->
<g id="node8" class="node">
<title>D17</title>
<polygon fill="none" stroke="black" points="325.37,-1415.2 148.15,-1415.2 148.15,-1379.2 325.37,-1379.2 325.37,-1415.2"/>
<text text-anchor="middle" x="236.76" y="-1393" font-family="Times,serif" font-size="14.00">cout &lt;&lt; &quot;表打开失败&quot; &lt;&lt; endl;</text>
</g>
<!-- D12&#45;&gt;D17 -->
<g id="edge9" class="edge">
<title>D12:s&#45;&gt;D17:n</title>
<path fill="none" stroke="black" d="M196.76,-1451.2C196.76,-1431.39 224.19,-1436.11 233.62,-1424.73"/>
<polygon fill="black" stroke="black" points="236.95,-1425.79 236.76,-1415.2 230.3,-1423.6 236.95,-1425.79"/>
<text text-anchor="middle" x="211.98" y="-1437.32" font-family="Times,serif" font-size="14.00">Y</text>
</g>
<!-- D21 -->
<g id="node10" class="node">
<title>D21</title>
<polygon fill="none" stroke="black" points="332.54,-1271.2 276.98,-1271.2 276.98,-1235.2 332.54,-1235.2 332.54,-1271.2"/>
<text text-anchor="middle" x="304.76" y="-1249" font-family="Times,serif" font-size="14.00">int *A;</text>
</g>
<!-- D12&#45;&gt;D21 -->
<g id="edge5" class="edge">
<title>D12:e&#45;&gt;D21:n</title>
<path fill="none" stroke="black" d="M394.76,-1469.2C402.77,-1469.2 395.8,-1458.95 393.76,-1451.2 383.2,-1411.08 315.35,-1328.55 305.86,-1281.28"/>
<polygon fill="black" stroke="black" points="309.32,-1280.76 304.76,-1271.2 302.36,-1281.52 309.32,-1280.76"/>
<text text-anchor="middle" x="345.04" y="-1374.23" font-family="Times,serif" font-size="14.00">N</text>
</g>
<!-- D19 -->
<g id="node9" class="node">
<title>D19</title>
<polygon fill="none" stroke="black" points="305.46,-1343.2 248.05,-1343.2 248.05,-1307.2 305.46,-1307.2 305.46,-1343.2"/>
<text text-anchor="middle" x="276.76" y="-1321" font-family="Times,serif" font-size="14.00">exit(1);</text>
</g>
<!-- D17&#45;&gt;D19 -->
<g id="edge6" class="edge">
<title>D17&#45;&gt;D19</title>
<path fill="none" stroke="black" d="M246.64,-1378.9C251.25,-1370.84 256.82,-1361.09 261.91,-1352.18"/>
<polygon fill="black" stroke="black" points="265.06,-1353.72 266.98,-1343.3 258.98,-1350.25 265.06,-1353.72"/>
</g>
<!-- D19&#45;&gt;D21 -->
<g id="edge7" class="edge">
<title>D19&#45;&gt;D21</title>
<path fill="none" stroke="black" d="M283.68,-1306.9C286.83,-1299.01 290.63,-1289.5 294.14,-1280.75"/>
<polygon fill="black" stroke="black" points="297.45,-1281.89 297.91,-1271.3 290.95,-1279.29 297.45,-1281.89"/>
</g>
<!-- D23 -->
<g id="node11" class="node">
<title>D23</title>
<polygon fill="none" stroke="black" points="392.51,-1199.2 217.01,-1199.2 217.01,-1163.2 392.51,-1163.2 392.51,-1199.2"/>
<text text-anchor="middle" x="304.76" y="-1177" font-family="Times,serif" font-size="14.00">A = (int *)calloc(N + 1, b1);</text>
</g>
<!-- D21&#45;&gt;D23 -->
<g id="edge8" class="edge">
<title>D21&#45;&gt;D23</title>
<path fill="none" stroke="black" d="M304.76,-1234.9C304.76,-1227.18 304.76,-1217.91 304.76,-1209.31"/>
<polygon fill="black" stroke="black" points="308.26,-1209.3 304.76,-1199.3 301.26,-1209.3 308.26,-1209.3"/>
</g>
<!-- D25 -->
<g id="node12" class="node">
<title>D25</title>
<polygon fill="none" stroke="black" points="304.76,-1127.2 205.72,-1109.2 304.76,-1091.2 403.8,-1109.2 304.76,-1127.2"/>
<text text-anchor="middle" x="304.76" y="-1105" font-family="Times,serif" font-size="14.00">(NULL == A)?</text>
</g>
<!-- D23&#45;&gt;D25 -->
<g id="edge10" class="edge">
<title>D23&#45;&gt;D25</title>
<path fill="none" stroke="black" d="M304.76,-1162.9C304.76,-1155.18 304.76,-1145.91 304.76,-1137.31"/>
<polygon fill="black" stroke="black" points="308.26,-1137.3 304.76,-1127.3 301.26,-1137.3 308.26,-1137.3"/>
</g>
<!-- D30 -->
<g id="node13" class="node">
<title>D30</title>
<polygon fill="none" stroke="black" points="387.86,-1055.2 199.65,-1055.2 199.65,-1019.2 387.86,-1019.2 387.86,-1055.2"/>
<text text-anchor="middle" x="293.76" y="-1033" font-family="Times,serif" font-size="14.00">cout &lt;&lt; &quot;内存申请失败&quot; &lt;&lt; endl;</text>
</g>
<!-- D25&#45;&gt;D30 -->
<g id="edge15" class="edge">
<title>D25:s&#45;&gt;D30:n</title>
<path fill="none" stroke="black" d="M304.76,-1091.2C304.76,-1078.52 298.44,-1073.99 295.38,-1065.26"/>
<polygon fill="black" stroke="black" points="298.8,-1064.51 293.76,-1055.2 291.89,-1065.63 298.8,-1064.51"/>
<text text-anchor="middle" x="294.25" y="-1077.48" font-family="Times,serif" font-size="14.00">Y</text>
</g>
<!-- D34 -->
<g id="node15" class="node">
<title>D34</title>
<polygon fill="none" stroke="black" points="453.41,-911.2 256.1,-911.2 256.1,-875.2 453.41,-875.2 453.41,-911.2"/>
<text text-anchor="middle" x="354.76" y="-889" font-family="Times,serif" font-size="14.00">fread((char *)A, b1, N + 1, fp2);</text>
</g>
<!-- D25&#45;&gt;D34 -->
<g id="edge11" class="edge">
<title>D25:e&#45;&gt;D34:n</title>
<path fill="none" stroke="black" d="M404.76,-1109.2C408.05,-1109.2 411.19,-1079.77 396.76,-1019.2 391.49,-997.09 362.79,-949.92 356.13,-921.45"/>
<polygon fill="black" stroke="black" points="359.56,-920.64 354.76,-911.2 352.62,-921.58 359.56,-920.64"/>
<text text-anchor="middle" x="386.86" y="-992.51" font-family="Times,serif" font-size="14.00">N</text>
</g>
<!-- D32 -->
<g id="node14" class="node">
<title>D32</title>
<polygon fill="none" stroke="black" points="355.46,-983.2 298.05,-983.2 298.05,-947.2 355.46,-947.2 355.46,-983.2"/>
<text text-anchor="middle" x="326.76" y="-961" font-family="Times,serif" font-size="14.00">exit(1);</text>
</g>
<!-- D30&#45;&gt;D32 -->
<g id="edge12" class="edge">
<title>D30&#45;&gt;D32</title>
<path fill="none" stroke="black" d="M301.91,-1018.9C305.67,-1010.93 310.21,-1001.3 314.37,-992.46"/>
<polygon fill="black" stroke="black" points="317.59,-993.84 318.69,-983.3 311.26,-990.86 317.59,-993.84"/>
</g>
<!-- D32&#45;&gt;D34 -->
<g id="edge13" class="edge">
<title>D32&#45;&gt;D34</title>
<path fill="none" stroke="black" d="M333.68,-946.9C336.83,-939.01 340.63,-929.5 344.14,-920.75"/>
<polygon fill="black" stroke="black" points="347.45,-921.89 347.91,-911.3 340.95,-919.29 347.45,-921.89"/>
</g>
<!-- D36 -->
<g id="node16" class="node">
<title>D36</title>
<polygon fill="none" stroke="black" points="381.76,-839.2 327.76,-839.2 327.76,-803.2 381.76,-803.2 381.76,-839.2"/>
<text text-anchor="middle" x="354.76" y="-817" font-family="Times,serif" font-size="14.00">int p;</text>
</g>
<!-- D34&#45;&gt;D36 -->
<g id="edge14" class="edge">
<title>D34&#45;&gt;D36</title>
<path fill="none" stroke="black" d="M354.76,-874.9C354.76,-867.18 354.76,-857.91 354.76,-849.31"/>
<polygon fill="black" stroke="black" points="358.26,-849.3 354.76,-839.3 351.26,-849.3 358.26,-849.3"/>
</g>
<!-- D38 -->
<g id="node17" class="node">
<title>D38</title>
<polygon fill="none" stroke="black" points="413.91,-767.2 295.6,-767.2 295.6,-731.2 413.91,-731.2 413.91,-767.2"/>
<text text-anchor="middle" x="354.76" y="-745" font-family="Times,serif" font-size="14.00">struct FLNode pn;</text>
</g>
<!-- D36&#45;&gt;D38 -->
<g id="edge16" class="edge">
<title>D36&#45;&gt;D38</title>
<path fill="none" stroke="black" d="M354.76,-802.9C354.76,-795.18 354.76,-785.91 354.76,-777.31"/>
<polygon fill="black" stroke="black" points="358.26,-777.3 354.76,-767.3 351.26,-777.3 358.26,-777.3"/>
</g>
<!-- D43 -->
<g id="node19" class="node">
<title>D43</title>
<polygon fill="none" stroke="black" points="386.71,-695.2 322.8,-695.2 322.8,-659.2 386.71,-659.2 386.71,-695.2"/>
<text text-anchor="middle" x="354.76" y="-673" font-family="Times,serif" font-size="14.00">int i = 0;</text>
</g>
<!-- D38&#45;&gt;D43 -->
<g id="edge17" class="edge">
<title>D38&#45;&gt;D43</title>
<path fill="none" stroke="black" d="M354.76,-730.9C354.76,-723.18 354.76,-713.91 354.76,-705.31"/>
<polygon fill="black" stroke="black" points="358.26,-705.3 354.76,-695.3 351.26,-705.3 358.26,-705.3"/>
</g>
<!-- D42 -->
<g id="node18" class="node">
<title>D42</title>
<polygon fill="none" stroke="black" points="354.76,-623.2 283.32,-605.2 354.76,-587.2 426.19,-605.2 354.76,-623.2"/>
<text text-anchor="middle" x="354.76" y="-601" font-family="Times,serif" font-size="14.00">i &lt; N + 1?</text>
</g>
<!-- D47 -->
<g id="node21" class="node">
<title>D47</title>
<polygon fill="none" stroke="black" points="407.45,-551.2 302.07,-551.2 302.07,-515.2 407.45,-515.2 407.45,-551.2"/>
<text text-anchor="middle" x="354.76" y="-529" font-family="Times,serif" font-size="14.00">printf(&quot;%d:&quot;, i);</text>
</g>
<!-- D42&#45;&gt;D47 -->
<g id="edge31" class="edge">
<title>D42:s&#45;&gt;D47:n</title>
<path fill="none" stroke="black" d="M354.76,-587.2C354.76,-575.2 354.76,-569.95 354.76,-561.33"/>
<polygon fill="black" stroke="black" points="358.26,-561.2 354.76,-551.2 351.26,-561.2 358.26,-561.2"/>
<text text-anchor="middle" x="349.7" y="-573.63" font-family="Times,serif" font-size="14.00">Y</text>
</g>
<!-- D66 -->
<g id="node29" class="node">
<title>D66</title>
<polygon fill="none" stroke="black" points="532.33,-551.2 471.18,-551.2 471.18,-515.2 532.33,-515.2 532.33,-551.2"/>
<text text-anchor="middle" x="501.76" y="-529" font-family="Times,serif" font-size="14.00">free(A);</text>
</g>
<!-- D42&#45;&gt;D66 -->
<g id="edge18" class="edge">
<title>D42:e&#45;&gt;D66:n</title>
<path fill="none" stroke="black" d="M427.76,-605.2C464.81,-605.2 495.72,-594.19 500.97,-561.52"/>
<polygon fill="black" stroke="black" points="504.49,-561.44 501.76,-551.2 497.51,-560.9 504.49,-561.44"/>
<text text-anchor="middle" x="471.31" y="-599.77" font-family="Times,serif" font-size="14.00">N</text>
</g>
<!-- D43&#45;&gt;D42 -->
<g id="edge19" class="edge">
<title>D43&#45;&gt;D42</title>
<path fill="none" stroke="black" d="M354.76,-658.9C354.76,-651.18 354.76,-641.91 354.76,-633.31"/>
<polygon fill="black" stroke="black" points="358.26,-633.3 354.76,-623.3 351.26,-633.3 358.26,-633.3"/>
</g>
<!-- D44 -->
<g id="node20" class="node">
<title>D44</title>
<polygon fill="none" stroke="black" points="189.76,-257.6 135.76,-257.6 135.76,-221.6 189.76,-221.6 189.76,-257.6"/>
<text text-anchor="middle" x="162.76" y="-235.4" font-family="Times,serif" font-size="14.00">i++</text>
</g>
<!-- D44&#45;&gt;D42 -->
<g id="edge21" class="edge">
<title>D44&#45;&gt;D42</title>
<path fill="none" stroke="black" d="M164.49,-257.85C167.11,-285.38 171.76,-340.96 171.76,-388.2 171.76,-462.2 171.76,-462.2 171.76,-462.2 171.76,-533.18 258.76,-573.79 312.79,-592.16"/>
<polygon fill="black" stroke="black" points="311.87,-595.54 322.46,-595.34 314.05,-588.89 311.87,-595.54"/>
</g>
<!-- D49 -->
<g id="node22" class="node">
<title>D49</title>
<polygon fill="none" stroke="black" points="387.37,-479.2 322.15,-479.2 322.15,-443.2 387.37,-443.2 387.37,-479.2"/>
<text text-anchor="middle" x="354.76" y="-457" font-family="Times,serif" font-size="14.00">p = A[i];</text>
</g>
<!-- D47&#45;&gt;D49 -->
<g id="edge20" class="edge">
<title>D47&#45;&gt;D49</title>
<path fill="none" stroke="black" d="M354.76,-514.9C354.76,-507.18 354.76,-497.91 354.76,-489.31"/>
<polygon fill="black" stroke="black" points="358.26,-489.3 354.76,-479.3 351.26,-489.3 358.26,-489.3"/>
</g>
<!-- D51 -->
<g id="node23" class="node">
<title>D51</title>
<polygon fill="none" stroke="black" points="354.76,-407.2 286.66,-389.2 354.76,-371.2 422.85,-389.2 354.76,-407.2"/>
<text text-anchor="middle" x="354.76" y="-385" font-family="Times,serif" font-size="14.00">(&#45;1 != p)?</text>
</g>
<!-- D49&#45;&gt;D51 -->
<g id="edge22" class="edge">
<title>D49&#45;&gt;D51</title>
<path fill="none" stroke="black" d="M354.76,-442.9C354.76,-435.18 354.76,-425.91 354.76,-417.31"/>
<polygon fill="black" stroke="black" points="358.26,-417.3 354.76,-407.3 351.26,-417.3 358.26,-417.3"/>
</g>
<!-- D56 -->
<g id="node24" class="node">
<title>D56</title>
<polygon fill="none" stroke="black" points="463.4,-332.4 246.12,-332.4 246.12,-296.4 463.4,-296.4 463.4,-332.4"/>
<text text-anchor="middle" x="354.76" y="-310.2" font-family="Times,serif" font-size="14.00">fseek(fp1, (N + 1) * b1 + p * b2, 0);</text>
</g>
<!-- D51&#45;&gt;D56 -->
<g id="edge29" class="edge">
<title>D51:s&#45;&gt;D56:n</title>
<path fill="none" stroke="black" d="M354.76,-371.2C354.76,-358.34 354.76,-352.86 354.76,-343.46"/>
<polygon fill="black" stroke="black" points="358.26,-343.4 354.76,-333.4 351.26,-343.4 358.26,-343.4"/>
<text text-anchor="middle" x="349.7" y="-356.42" font-family="Times,serif" font-size="14.00">Y</text>
</g>
<!-- D64 -->
<g id="node28" class="node">
<title>D64</title>
<polygon fill="none" stroke="black" points="539.74,-335 481.77,-335 481.77,-293.8 539.74,-293.8 539.74,-335"/>
<text text-anchor="middle" x="510.76" y="-318.6" font-family="Times,serif" font-size="14.00">printf(&quot;</text>
<text text-anchor="middle" x="510.76" y="-301.8" font-family="Times,serif" font-size="14.00">&quot;);</text>
</g>
<!-- D51&#45;&gt;D64 -->
<g id="edge23" class="edge">
<title>D51:e&#45;&gt;D64:n</title>
<path fill="none" stroke="black" d="M423.76,-389.2C465.71,-389.2 504.25,-381.98 510.01,-345.2"/>
<polygon fill="black" stroke="black" points="513.51,-345.43 510.76,-335.2 506.53,-344.91 513.51,-345.43"/>
<text text-anchor="middle" x="475.42" y="-385.18" font-family="Times,serif" font-size="14.00">N</text>
</g>
<!-- D58 -->
<g id="node25" class="node">
<title>D58</title>
<polygon fill="none" stroke="black" points="472.69,-257.6 284.82,-257.6 284.82,-221.6 472.69,-221.6 472.69,-257.6"/>
<text text-anchor="middle" x="378.76" y="-235.4" font-family="Times,serif" font-size="14.00">fread((char *)&amp;pn, b2, 1, fp1);</text>
</g>
<!-- D56&#45;&gt;D58 -->
<g id="edge24" class="edge">
<title>D56&#45;&gt;D58</title>
<path fill="none" stroke="black" d="M360.44,-296.15C363.28,-287.53 366.78,-276.92 369.96,-267.29"/>
<polygon fill="black" stroke="black" points="373.3,-268.32 373.11,-257.73 366.65,-266.13 373.3,-268.32"/>
</g>
<!-- D60 -->
<g id="node26" class="node">
<title>D60</title>
<polygon fill="none" stroke="black" points="557.88,-182.8 245.63,-182.8 245.63,-146.8 557.88,-146.8 557.88,-182.8"/>
<text text-anchor="middle" x="401.76" y="-160.6" font-family="Times,serif" font-size="14.00">printf(&quot;%d&#45;&gt;%d(%s) &#160;&quot;, p, pn.data.key, pn.data.rest);</text>
</g>
<!-- D58&#45;&gt;D60 -->
<g id="edge25" class="edge">
<title>D58&#45;&gt;D60</title>
<path fill="none" stroke="black" d="M384.21,-221.35C386.93,-212.73 390.28,-202.12 393.32,-192.49"/>
<polygon fill="black" stroke="black" points="396.67,-193.52 396.34,-182.93 389.99,-191.41 396.67,-193.52"/>
</g>
<!-- D62 -->
<g id="node27" class="node">
<title>D62</title>
<polygon fill="none" stroke="black" points="351.65,-108 267.87,-108 267.87,-72 351.65,-72 351.65,-108"/>
<text text-anchor="middle" x="309.76" y="-85.8" font-family="Times,serif" font-size="14.00">p = pn.next;</text>
</g>
<!-- D60&#45;&gt;D62 -->
<g id="edge26" class="edge">
<title>D60&#45;&gt;D62</title>
<path fill="none" stroke="black" d="M379.95,-146.55C367.81,-136.94 352.52,-124.84 339.31,-114.39"/>
<polygon fill="black" stroke="black" points="341.42,-111.59 331.4,-108.13 337.07,-117.08 341.42,-111.59"/>
</g>
<!-- D62&#45;&gt;D51 -->
<g id="edge27" class="edge">
<title>D62&#45;&gt;D51</title>
<path fill="none" stroke="black" d="M273.24,-108.08C259.16,-116.71 244.58,-128.65 236.76,-144 198.16,-219.71 190.59,-263.86 236.76,-335.2 251.89,-358.59 280.06,-371.75 305.08,-379.11"/>
<polygon fill="black" stroke="black" points="304.27,-382.52 314.84,-381.75 306.1,-375.76 304.27,-382.52"/>
</g>
<!-- D64&#45;&gt;D44 -->
<g id="edge28" class="edge">
<title>D64&#45;&gt;D44</title>
<path fill="none" stroke="black" d="M481.7,-297.11C478.73,-295.8 475.72,-294.6 472.76,-293.6 447.21,-285 276.64,-258.13 199.96,-246.3"/>
<polygon fill="black" stroke="black" points="200.21,-242.79 189.79,-244.73 199.14,-249.71 200.21,-242.79"/>
</g>
<!-- D68 -->
<g id="node30" class="node">
<title>D68</title>
<polygon fill="none" stroke="black" points="565.56,-479.2 483.95,-479.2 483.95,-443.2 565.56,-443.2 565.56,-479.2"/>
<text text-anchor="middle" x="524.76" y="-457" font-family="Times,serif" font-size="14.00">fclose(fp1);</text>
</g>
<!-- D66&#45;&gt;D68 -->
<g id="edge30" class="edge">
<title>D66&#45;&gt;D68</title>
<path fill="none" stroke="black" d="M507.44,-514.9C510,-507.1 513.09,-497.71 515.94,-489.03"/>
<polygon fill="black" stroke="black" points="519.34,-489.9 519.14,-479.3 512.69,-487.71 519.34,-489.9"/>
</g>
<!-- D70 -->
<g id="node31" class="node">
<title>D70</title>
<polygon fill="none" stroke="black" points="588.56,-407.2 506.95,-407.2 506.95,-371.2 588.56,-371.2 588.56,-407.2"/>
<text text-anchor="middle" x="547.76" y="-385" font-family="Times,serif" font-size="14.00">fclose(fp2);</text>
</g>
<!-- D68&#45;&gt;D70 -->
<g id="edge32" class="edge">
<title>D68&#45;&gt;D70</title>
<path fill="none" stroke="black" d="M530.44,-442.9C533,-435.1 536.09,-425.71 538.94,-417.03"/>
<polygon fill="black" stroke="black" points="542.34,-417.9 542.14,-407.3 535.69,-415.71 542.34,-417.9"/>
</g>
<!-- D72 -->
<g id="node32" class="node">
<title>D72</title>
<polygon fill="none" stroke="black" points="749.48,-185.4 576.04,-185.4 576.04,-144.2 749.48,-144.2 749.48,-185.4"/>
<text text-anchor="middle" x="662.76" y="-169" font-family="Times,serif" font-size="14.00">cout &lt;&lt; &quot;输出结束！&quot; &lt;&lt; endl</text>
<text text-anchor="middle" x="662.76" y="-152.2" font-family="Times,serif" font-size="14.00"> &#160;&#160;&#160;&#160;&#160;&#160;&#160;&#160;&lt;&lt; endl;</text>
</g>
<!-- D70&#45;&gt;D72 -->
<g id="edge33" class="edge">
<title>D70&#45;&gt;D72</title>
<path fill="none" stroke="black" d="M556.59,-371.12C576.22,-333.15 623.66,-241.41 647.92,-194.49"/>
<polygon fill="black" stroke="black" points="651.11,-195.95 652.59,-185.46 644.89,-192.73 651.11,-195.95"/>
</g>
<!-- D72&#45;&gt;D1 -->
<g id="edge34" class="edge">
<title>D72&#45;&gt;D1</title>
<path fill="none" stroke="black" d="M662.76,-143.97C662.76,-118.7 662.76,-74.88 662.76,-46.42"/>
<polygon fill="black" stroke="black" points="666.26,-46.33 662.76,-36.33 659.26,-46.33 666.26,-46.33"/>
</g>
</g>
</svg>
