<?xml version="1.0" encoding="UTF-8" standalone="no"?>
<!DOCTYPE svg PUBLIC "-//W3C//DTD SVG 1.1//EN"
 "http://www.w3.org/Graphics/SVG/1.1/DTD/svg11.dtd">
<!-- Generated by graphviz version 3.0.0 (20220404.1115)
 -->
<!-- Pages: 1 -->
<svg width="549pt" height="554pt"
 viewBox="0.00 0.00 548.74 553.60" xmlns="http://www.w3.org/2000/svg" xmlns:xlink="http://www.w3.org/1999/xlink">
<g id="graph0" class="graph" transform="scale(1 1) rotate(0) translate(4 549.6)">
<polygon fill="white" stroke="transparent" points="-4,4 -4,-549.6 544.74,-549.6 544.74,4 -4,4"/>
<!-- D0 -->
<g id="node1" class="node">
<title>D0</title>
<path fill="none" stroke="black" d="M213.38,-545.6C213.38,-545.6 183.38,-545.6 183.38,-545.6 177.38,-545.6 171.38,-539.6 171.38,-533.6 171.38,-533.6 171.38,-521.6 171.38,-521.6 171.38,-515.6 177.38,-509.6 183.38,-509.6 183.38,-509.6 213.38,-509.6 213.38,-509.6 219.38,-509.6 225.38,-515.6 225.38,-521.6 225.38,-521.6 225.38,-533.6 225.38,-533.6 225.38,-539.6 219.38,-545.6 213.38,-545.6"/>
<text text-anchor="middle" x="198.38" y="-523.4" font-family="Times,serif" font-size="14.00">begin</text>
</g>
<!-- D4 -->
<g id="node3" class="node">
<title>D4</title>
<polygon fill="none" stroke="black" points="257.53,-473.6 139.24,-473.6 139.24,-437.6 257.53,-437.6 257.53,-473.6"/>
<text text-anchor="middle" x="198.38" y="-451.4" font-family="Times,serif" font-size="14.00">struct Elemtype x;</text>
</g>
<!-- D0&#45;&gt;D4 -->
<g id="edge9" class="edge">
<title>D0&#45;&gt;D4</title>
<path fill="none" stroke="black" d="M198.38,-509.3C198.38,-501.58 198.38,-492.31 198.38,-483.71"/>
<polygon fill="black" stroke="black" points="201.88,-483.7 198.38,-473.7 194.88,-483.7 201.88,-483.7"/>
</g>
<!-- D1 -->
<g id="node2" class="node">
<title>D1</title>
<path fill="none" stroke="black" d="M312.38,-36C312.38,-36 282.38,-36 282.38,-36 276.38,-36 270.38,-30 270.38,-24 270.38,-24 270.38,-12 270.38,-12 270.38,-6 276.38,0 282.38,0 282.38,0 312.38,0 312.38,0 318.38,0 324.38,-6 324.38,-12 324.38,-12 324.38,-24 324.38,-24 324.38,-30 318.38,-36 312.38,-36"/>
<text text-anchor="middle" x="297.38" y="-13.8" font-family="Times,serif" font-size="14.00">end</text>
</g>
<!-- D6 -->
<g id="node4" class="node">
<title>D6</title>
<polygon fill="none" stroke="black" points="332.1,-401.6 64.67,-401.6 64.67,-365.6 332.1,-365.6 332.1,-401.6"/>
<text text-anchor="middle" x="198.38" y="-379.4" font-family="Times,serif" font-size="14.00">cout &lt;&lt; &quot;请输入待插入元素的关键信息（序号）：&quot;;</text>
</g>
<!-- D4&#45;&gt;D6 -->
<g id="edge1" class="edge">
<title>D4&#45;&gt;D6</title>
<path fill="none" stroke="black" d="M198.38,-437.3C198.38,-429.58 198.38,-420.31 198.38,-411.71"/>
<polygon fill="black" stroke="black" points="201.88,-411.7 198.38,-401.7 194.88,-411.7 201.88,-411.7"/>
</g>
<!-- D8 -->
<g id="node5" class="node">
<title>D8</title>
<polygon fill="none" stroke="black" points="243.88,-329.6 152.88,-329.6 152.88,-293.6 243.88,-293.6 243.88,-329.6"/>
<text text-anchor="middle" x="198.38" y="-307.4" font-family="Times,serif" font-size="14.00">cin &gt;&gt; x.key;</text>
</g>
<!-- D6&#45;&gt;D8 -->
<g id="edge2" class="edge">
<title>D6&#45;&gt;D8</title>
<path fill="none" stroke="black" d="M198.38,-365.3C198.38,-357.58 198.38,-348.31 198.38,-339.71"/>
<polygon fill="black" stroke="black" points="201.88,-339.7 198.38,-329.7 194.88,-339.7 201.88,-339.7"/>
</g>
<!-- D10 -->
<g id="node6" class="node">
<title>D10</title>
<polygon fill="none" stroke="black" points="243.77,-257.6 153,-257.6 153,-221.6 243.77,-221.6 243.77,-257.6"/>
<text text-anchor="middle" x="198.38" y="-235.4" font-family="Times,serif" font-size="14.00">cout &lt;&lt; endl;</text>
</g>
<!-- D8&#45;&gt;D10 -->
<g id="edge3" class="edge">
<title>D8&#45;&gt;D10</title>
<path fill="none" stroke="black" d="M198.38,-293.3C198.38,-285.58 198.38,-276.31 198.38,-267.71"/>
<polygon fill="black" stroke="black" points="201.88,-267.7 198.38,-257.7 194.88,-267.7 201.88,-267.7"/>
</g>
<!-- D12 -->
<g id="node7" class="node">
<title>D12</title>
<polygon fill="none" stroke="black" points="198.38,-185.6 0.12,-167.6 198.38,-149.6 396.65,-167.6 198.38,-185.6"/>
<text text-anchor="middle" x="198.38" y="-163.4" font-family="Times,serif" font-size="14.00">(HashFileSearch(filename, &amp;x))?</text>
</g>
<!-- D10&#45;&gt;D12 -->
<g id="edge4" class="edge">
<title>D10&#45;&gt;D12</title>
<path fill="none" stroke="black" d="M198.38,-221.3C198.38,-213.58 198.38,-204.31 198.38,-195.71"/>
<polygon fill="black" stroke="black" points="201.88,-195.7 198.38,-185.7 194.88,-195.7 201.88,-195.7"/>
</g>
<!-- D15 -->
<g id="node8" class="node">
<title>D15</title>
<polygon fill="none" stroke="black" points="286.6,-113.4 60.16,-113.4 60.16,-72.2 286.6,-72.2 286.6,-113.4"/>
<text text-anchor="middle" x="173.38" y="-97" font-family="Times,serif" font-size="14.00">cout &lt;&lt; &quot;该元素在散列表中存在&quot; &lt;&lt; endl</text>
<text text-anchor="middle" x="173.38" y="-80.2" font-family="Times,serif" font-size="14.00"> &#160;&#160;&#160;&#160;&#160;&#160;&#160;&#160;&#160;&#160;&#160;&#160;&lt;&lt; endl;</text>
</g>
<!-- D12&#45;&gt;D15 -->
<g id="edge6" class="edge">
<title>D12:s&#45;&gt;D15:n</title>
<path fill="none" stroke="black" d="M198.38,-149.6C198.38,-134.23 182.82,-132.83 176.25,-123.35"/>
<polygon fill="black" stroke="black" points="179.56,-122.21 173.38,-113.6 172.85,-124.18 179.56,-122.21"/>
<text text-anchor="middle" x="180.62" y="-135.66" font-family="Times,serif" font-size="14.00">Y</text>
</g>
<!-- D17 -->
<g id="node9" class="node">
<title>D17</title>
<polygon fill="none" stroke="black" points="540.6,-113.4 304.16,-113.4 304.16,-72.2 540.6,-72.2 540.6,-113.4"/>
<text text-anchor="middle" x="422.38" y="-97" font-family="Times,serif" font-size="14.00">cout &lt;&lt; &quot;该元素在散列表中不存在&quot; &lt;&lt; endl</text>
<text text-anchor="middle" x="422.38" y="-80.2" font-family="Times,serif" font-size="14.00"> &#160;&#160;&#160;&#160;&#160;&#160;&#160;&#160;&#160;&#160;&#160;&#160;&lt;&lt; endl;</text>
</g>
<!-- D12&#45;&gt;D17 -->
<g id="edge8" class="edge">
<title>D12:e&#45;&gt;D17:n</title>
<path fill="none" stroke="black" d="M397.38,-167.6C420.42,-167.6 422.29,-146.69 422.39,-123.82"/>
<polygon fill="black" stroke="black" points="425.89,-123.6 422.38,-113.6 418.89,-123.6 425.89,-123.6"/>
<text text-anchor="middle" x="416.4" y="-146.43" font-family="Times,serif" font-size="14.00">N</text>
</g>
<!-- D15&#45;&gt;D1 -->
<g id="edge7" class="edge">
<title>D15&#45;&gt;D1</title>
<path fill="none" stroke="black" d="M206.94,-72.1C223.8,-62.2 244.24,-50.2 261.42,-40.12"/>
<polygon fill="black" stroke="black" points="263.22,-43.12 270.07,-35.04 259.67,-37.08 263.22,-43.12"/>
</g>
<!-- D17&#45;&gt;D1 -->
<g id="edge5" class="edge">
<title>D17&#45;&gt;D1</title>
<path fill="none" stroke="black" d="M388.56,-72.1C371.44,-62.13 350.66,-50.03 333.26,-39.9"/>
<polygon fill="black" stroke="black" points="334.92,-36.81 324.51,-34.8 331.39,-42.86 334.92,-36.81"/>
</g>
</g>
</svg>
