<?xml version="1.0" encoding="UTF-8" standalone="no"?>
<!DOCTYPE svg PUBLIC "-//W3C//DTD SVG 1.1//EN"
 "http://www.w3.org/Graphics/SVG/1.1/DTD/svg11.dtd">
<!-- Generated by graphviz version 3.0.0 (20220404.1115)
 -->
<!-- Pages: 1 -->
<svg width="642pt" height="1484pt"
 viewBox="0.00 0.00 642.34 1484.00" xmlns="http://www.w3.org/2000/svg" xmlns:xlink="http://www.w3.org/1999/xlink">
<g id="graph0" class="graph" transform="scale(1 1) rotate(0) translate(4 1480)">
<polygon fill="white" stroke="transparent" points="-4,4 -4,-1480 638.34,-1480 638.34,4 -4,4"/>
<!-- D0 -->
<g id="node1" class="node">
<title>D0</title>
<path fill="none" stroke="black" d="M208.34,-1476C208.34,-1476 178.34,-1476 178.34,-1476 172.34,-1476 166.34,-1470 166.34,-1464 166.34,-1464 166.34,-1452 166.34,-1452 166.34,-1446 172.34,-1440 178.34,-1440 178.34,-1440 208.34,-1440 208.34,-1440 214.34,-1440 220.34,-1446 220.34,-1452 220.34,-1452 220.34,-1464 220.34,-1464 220.34,-1470 214.34,-1476 208.34,-1476"/>
<text text-anchor="middle" x="193.34" y="-1453.8" font-family="Times,serif" font-size="14.00">begin</text>
</g>
<!-- D4 -->
<g id="node3" class="node">
<title>D4</title>
<polygon fill="none" stroke="black" points="247.11,-1404 139.58,-1404 139.58,-1368 247.11,-1368 247.11,-1404"/>
<text text-anchor="middle" x="193.34" y="-1381.8" font-family="Times,serif" font-size="14.00">FILE *fp1,*fp2;</text>
</g>
<!-- D0&#45;&gt;D4 -->
<g id="edge25" class="edge">
<title>D0&#45;&gt;D4</title>
<path fill="none" stroke="black" d="M193.34,-1439.7C193.34,-1431.98 193.34,-1422.71 193.34,-1414.11"/>
<polygon fill="black" stroke="black" points="196.84,-1414.1 193.34,-1404.1 189.84,-1414.1 196.84,-1414.1"/>
</g>
<!-- D1 -->
<g id="node2" class="node">
<title>D1</title>
<path fill="none" stroke="black" d="M507.34,-36C507.34,-36 477.34,-36 477.34,-36 471.34,-36 465.34,-30 465.34,-24 465.34,-24 465.34,-12 465.34,-12 465.34,-6 471.34,0 477.34,0 477.34,0 507.34,0 507.34,0 513.34,0 519.34,-6 519.34,-12 519.34,-12 519.34,-24 519.34,-24 519.34,-30 513.34,-36 507.34,-36"/>
<text text-anchor="middle" x="492.34" y="-13.8" font-family="Times,serif" font-size="14.00">end</text>
</g>
<!-- D6 -->
<g id="node4" class="node">
<title>D6</title>
<polygon fill="none" stroke="black" points="221.12,-1332 165.56,-1332 165.56,-1296 221.12,-1296 221.12,-1332"/>
<text text-anchor="middle" x="193.34" y="-1309.8" font-family="Times,serif" font-size="14.00">int *A;</text>
</g>
<!-- D4&#45;&gt;D6 -->
<g id="edge1" class="edge">
<title>D4&#45;&gt;D6</title>
<path fill="none" stroke="black" d="M193.34,-1367.7C193.34,-1359.98 193.34,-1350.71 193.34,-1342.11"/>
<polygon fill="black" stroke="black" points="196.84,-1342.1 193.34,-1332.1 189.84,-1342.1 196.84,-1342.1"/>
</g>
<!-- D8 -->
<g id="node5" class="node">
<title>D8</title>
<polygon fill="none" stroke="black" points="279.9,-1260 106.78,-1260 106.78,-1224 279.9,-1224 279.9,-1260"/>
<text text-anchor="middle" x="193.34" y="-1237.8" font-family="Times,serif" font-size="14.00">fp1 = fopen(fname, &quot;wb+&quot;);</text>
</g>
<!-- D6&#45;&gt;D8 -->
<g id="edge2" class="edge">
<title>D6&#45;&gt;D8</title>
<path fill="none" stroke="black" d="M193.34,-1295.7C193.34,-1287.98 193.34,-1278.71 193.34,-1270.11"/>
<polygon fill="black" stroke="black" points="196.84,-1270.1 193.34,-1260.1 189.84,-1270.1 196.84,-1270.1"/>
</g>
<!-- D10 -->
<g id="node6" class="node">
<title>D10</title>
<polygon fill="none" stroke="black" points="279.9,-1188 106.78,-1188 106.78,-1152 279.9,-1152 279.9,-1188"/>
<text text-anchor="middle" x="193.34" y="-1165.8" font-family="Times,serif" font-size="14.00">fp2 = fopen(Iname, &quot;wb+&quot;);</text>
</g>
<!-- D8&#45;&gt;D10 -->
<g id="edge3" class="edge">
<title>D8&#45;&gt;D10</title>
<path fill="none" stroke="black" d="M193.34,-1223.7C193.34,-1215.98 193.34,-1206.71 193.34,-1198.11"/>
<polygon fill="black" stroke="black" points="196.84,-1198.1 193.34,-1188.1 189.84,-1198.1 196.84,-1198.1"/>
</g>
<!-- D12 -->
<g id="node7" class="node">
<title>D12</title>
<polygon fill="none" stroke="black" points="193.34,-1116 0.16,-1098 193.34,-1080 386.53,-1098 193.34,-1116"/>
<text text-anchor="middle" x="193.34" y="-1093.8" font-family="Times,serif" font-size="14.00">(NULL == fp1|| NULL == fp2)?</text>
</g>
<!-- D10&#45;&gt;D12 -->
<g id="edge4" class="edge">
<title>D10&#45;&gt;D12</title>
<path fill="none" stroke="black" d="M193.34,-1151.7C193.34,-1143.98 193.34,-1134.71 193.34,-1126.11"/>
<polygon fill="black" stroke="black" points="196.84,-1126.1 193.34,-1116.1 189.84,-1126.1 196.84,-1126.1"/>
</g>
<!-- D17 -->
<g id="node8" class="node">
<title>D17</title>
<polygon fill="none" stroke="black" points="311.14,-1044 171.54,-1044 171.54,-1008 311.14,-1008 311.14,-1044"/>
<text text-anchor="middle" x="241.34" y="-1021.8" font-family="Times,serif" font-size="14.00">printf(&quot;打开表失败!/n&quot;);</text>
</g>
<!-- D12&#45;&gt;D17 -->
<g id="edge9" class="edge">
<title>D12:s&#45;&gt;D17:n</title>
<path fill="none" stroke="black" d="M193.34,-1080C193.34,-1057.5 227.51,-1066.32 238.19,-1053.61"/>
<polygon fill="black" stroke="black" points="241.55,-1054.59 241.34,-1044 234.9,-1052.41 241.55,-1054.59"/>
<text text-anchor="middle" x="212.36" y="-1066.19" font-family="Times,serif" font-size="14.00">Y</text>
</g>
<!-- D21 -->
<g id="node10" class="node">
<title>D21</title>
<polygon fill="none" stroke="black" points="390.09,-900 214.59,-900 214.59,-864 390.09,-864 390.09,-900"/>
<text text-anchor="middle" x="302.34" y="-877.8" font-family="Times,serif" font-size="14.00">A = (int *)calloc(N + 1, b1);</text>
</g>
<!-- D12&#45;&gt;D21 -->
<g id="edge5" class="edge">
<title>D12:e&#45;&gt;D21:n</title>
<path fill="none" stroke="black" d="M388.34,-1098C396.35,-1098 389.31,-1087.77 387.34,-1080 382.46,-1060.74 317.74,-948.65 304.64,-910.04"/>
<polygon fill="black" stroke="black" points="307.99,-908.96 302.34,-900 301.17,-910.53 307.99,-908.96"/>
<text text-anchor="middle" x="344.03" y="-1006.5" font-family="Times,serif" font-size="14.00">N</text>
</g>
<!-- D19 -->
<g id="node9" class="node">
<title>D19</title>
<polygon fill="none" stroke="black" points="303.05,-972 245.63,-972 245.63,-936 303.05,-936 303.05,-972"/>
<text text-anchor="middle" x="274.34" y="-949.8" font-family="Times,serif" font-size="14.00">exit(1);</text>
</g>
<!-- D17&#45;&gt;D19 -->
<g id="edge6" class="edge">
<title>D17&#45;&gt;D19</title>
<path fill="none" stroke="black" d="M249.5,-1007.7C253.26,-999.73 257.8,-990.1 261.96,-981.26"/>
<polygon fill="black" stroke="black" points="265.18,-982.64 266.28,-972.1 258.85,-979.66 265.18,-982.64"/>
</g>
<!-- D19&#45;&gt;D21 -->
<g id="edge7" class="edge">
<title>D19&#45;&gt;D21</title>
<path fill="none" stroke="black" d="M281.26,-935.7C284.42,-927.81 288.22,-918.3 291.72,-909.55"/>
<polygon fill="black" stroke="black" points="295.04,-910.69 295.5,-900.1 288.54,-908.09 295.04,-910.69"/>
</g>
<!-- D23 -->
<g id="node11" class="node">
<title>D23</title>
<polygon fill="none" stroke="black" points="302.34,-828 203.3,-810 302.34,-792 401.38,-810 302.34,-828"/>
<text text-anchor="middle" x="302.34" y="-805.8" font-family="Times,serif" font-size="14.00">(NULL == A)?</text>
</g>
<!-- D21&#45;&gt;D23 -->
<g id="edge8" class="edge">
<title>D21&#45;&gt;D23</title>
<path fill="none" stroke="black" d="M302.34,-863.7C302.34,-855.98 302.34,-846.71 302.34,-838.11"/>
<polygon fill="black" stroke="black" points="305.84,-838.1 302.34,-828.1 298.84,-838.1 305.84,-838.1"/>
</g>
<!-- D28 -->
<g id="node12" class="node">
<title>D28</title>
<polygon fill="none" stroke="black" points="375.64,-756 225.04,-756 225.04,-720 375.64,-720 375.64,-756"/>
<text text-anchor="middle" x="300.34" y="-733.8" font-family="Times,serif" font-size="14.00">printf(&quot;内存申请失败!/n&quot;);</text>
</g>
<!-- D23&#45;&gt;D28 -->
<g id="edge14" class="edge">
<title>D23:s&#45;&gt;D28:n</title>
<path fill="none" stroke="black" d="M302.34,-792C302.34,-779.98 301.22,-774.75 300.65,-766.13"/>
<polygon fill="black" stroke="black" points="304.15,-765.89 300.34,-756 297.15,-766.1 304.15,-765.89"/>
<text text-anchor="middle" x="296.31" y="-778.43" font-family="Times,serif" font-size="14.00">Y</text>
</g>
<!-- D35 -->
<g id="node15" class="node">
<title>D35</title>
<polygon fill="none" stroke="black" points="383.3,-612 319.39,-612 319.39,-576 383.3,-576 383.3,-612"/>
<text text-anchor="middle" x="351.34" y="-589.8" font-family="Times,serif" font-size="14.00">int i = 0;</text>
</g>
<!-- D23&#45;&gt;D35 -->
<g id="edge10" class="edge">
<title>D23:e&#45;&gt;D35:n</title>
<path fill="none" stroke="black" d="M402.34,-810C410.35,-810 402.49,-799.93 401.34,-792 396.63,-759.46 392.93,-751.74 384.34,-720 382.98,-714.96 361.04,-647.88 353.71,-621.88"/>
<polygon fill="black" stroke="black" points="357.07,-620.91 351.34,-612 350.27,-622.54 357.07,-620.91"/>
<text text-anchor="middle" x="376.01" y="-696.9" font-family="Times,serif" font-size="14.00">N</text>
</g>
<!-- D30 -->
<g id="node13" class="node">
<title>D30</title>
<polygon fill="none" stroke="black" points="352.05,-684 294.63,-684 294.63,-648 352.05,-648 352.05,-684"/>
<text text-anchor="middle" x="323.34" y="-661.8" font-family="Times,serif" font-size="14.00">exit(1);</text>
</g>
<!-- D28&#45;&gt;D30 -->
<g id="edge11" class="edge">
<title>D28&#45;&gt;D30</title>
<path fill="none" stroke="black" d="M306.03,-719.7C308.59,-711.9 311.68,-702.51 314.53,-693.83"/>
<polygon fill="black" stroke="black" points="317.93,-694.7 317.72,-684.1 311.28,-692.51 317.93,-694.7"/>
</g>
<!-- D30&#45;&gt;D35 -->
<g id="edge12" class="edge">
<title>D30&#45;&gt;D35</title>
<path fill="none" stroke="black" d="M330.26,-647.7C333.42,-639.81 337.22,-630.3 340.72,-621.55"/>
<polygon fill="black" stroke="black" points="344.04,-622.69 344.5,-612.1 337.54,-620.09 344.04,-622.69"/>
</g>
<!-- D34 -->
<g id="node14" class="node">
<title>D34</title>
<polygon fill="none" stroke="black" points="351.34,-540 279.91,-522 351.34,-504 422.78,-522 351.34,-540"/>
<text text-anchor="middle" x="351.34" y="-517.8" font-family="Times,serif" font-size="14.00">i &lt; N + 1?</text>
</g>
<!-- D39 -->
<g id="node17" class="node">
<title>D39</title>
<polygon fill="none" stroke="black" points="323.11,-468 253.57,-468 253.57,-432 323.11,-432 323.11,-468"/>
<text text-anchor="middle" x="288.34" y="-445.8" font-family="Times,serif" font-size="14.00">A[i] = &#45;1;</text>
</g>
<!-- D34&#45;&gt;D39 -->
<g id="edge19" class="edge">
<title>D34:s&#45;&gt;D39:n</title>
<path fill="none" stroke="black" d="M351.34,-504C351.34,-476.03 303.97,-493.75 291.38,-477.92"/>
<polygon fill="black" stroke="black" points="294.62,-476.54 288.34,-468 287.92,-478.59 294.62,-476.54"/>
<text text-anchor="middle" x="314.66" y="-490.19" font-family="Times,serif" font-size="14.00">Y</text>
</g>
<!-- D41 -->
<g id="node18" class="node">
<title>D41</title>
<polygon fill="none" stroke="black" points="605,-468 379.68,-468 379.68,-432 605,-432 605,-468"/>
<text text-anchor="middle" x="492.34" y="-445.8" font-family="Times,serif" font-size="14.00">fwrite((char *)A, (N + 1)*b1, 1, fp1);</text>
</g>
<!-- D34&#45;&gt;D41 -->
<g id="edge13" class="edge">
<title>D34:e&#45;&gt;D41:n</title>
<path fill="none" stroke="black" d="M424.34,-522C459.32,-522 486.75,-509.35 491.58,-478.25"/>
<polygon fill="black" stroke="black" points="495.09,-478.23 492.34,-468 488.11,-477.71 495.09,-478.23"/>
<text text-anchor="middle" x="464.35" y="-515.9" font-family="Times,serif" font-size="14.00">N</text>
</g>
<!-- D35&#45;&gt;D34 -->
<g id="edge15" class="edge">
<title>D35&#45;&gt;D34</title>
<path fill="none" stroke="black" d="M351.34,-575.7C351.34,-567.98 351.34,-558.71 351.34,-550.11"/>
<polygon fill="black" stroke="black" points="354.84,-550.1 351.34,-540.1 347.84,-550.1 354.84,-550.1"/>
</g>
<!-- D36 -->
<g id="node16" class="node">
<title>D36</title>
<polygon fill="none" stroke="black" points="338.34,-396 284.34,-396 284.34,-360 338.34,-360 338.34,-396"/>
<text text-anchor="middle" x="311.34" y="-373.8" font-family="Times,serif" font-size="14.00">i++</text>
</g>
<!-- D36&#45;&gt;D34 -->
<g id="edge17" class="edge">
<title>D36&#45;&gt;D34</title>
<path fill="none" stroke="black" d="M319.09,-396.41C323.42,-406.62 328.67,-419.87 332.34,-432 338.59,-452.64 343.57,-476.56 346.87,-494.4"/>
<polygon fill="black" stroke="black" points="343.45,-495.16 348.65,-504.39 350.34,-493.93 343.45,-495.16"/>
</g>
<!-- D39&#45;&gt;D36 -->
<g id="edge16" class="edge">
<title>D39&#45;&gt;D36</title>
<path fill="none" stroke="black" d="M294.03,-431.7C296.59,-423.9 299.68,-414.51 302.53,-405.83"/>
<polygon fill="black" stroke="black" points="305.93,-406.7 305.72,-396.1 299.28,-404.51 305.93,-406.7"/>
</g>
<!-- D43 -->
<g id="node19" class="node">
<title>D43</title>
<polygon fill="none" stroke="black" points="605,-396 379.68,-396 379.68,-360 605,-360 605,-396"/>
<text text-anchor="middle" x="492.34" y="-373.8" font-family="Times,serif" font-size="14.00">fwrite((char *)A, (N + 1)*b1, 1, fp2);</text>
</g>
<!-- D41&#45;&gt;D43 -->
<g id="edge18" class="edge">
<title>D41&#45;&gt;D43</title>
<path fill="none" stroke="black" d="M492.34,-431.7C492.34,-423.98 492.34,-414.71 492.34,-406.11"/>
<polygon fill="black" stroke="black" points="495.84,-406.1 492.34,-396.1 488.84,-406.1 495.84,-406.1"/>
</g>
<!-- D45 -->
<g id="node20" class="node">
<title>D45</title>
<polygon fill="none" stroke="black" points="522.92,-324 461.77,-324 461.77,-288 522.92,-288 522.92,-324"/>
<text text-anchor="middle" x="492.34" y="-301.8" font-family="Times,serif" font-size="14.00">free(A);</text>
</g>
<!-- D43&#45;&gt;D45 -->
<g id="edge20" class="edge">
<title>D43&#45;&gt;D45</title>
<path fill="none" stroke="black" d="M492.34,-359.7C492.34,-351.98 492.34,-342.71 492.34,-334.11"/>
<polygon fill="black" stroke="black" points="495.84,-334.1 492.34,-324.1 488.84,-334.1 495.84,-334.1"/>
</g>
<!-- D47 -->
<g id="node21" class="node">
<title>D47</title>
<polygon fill="none" stroke="black" points="533.15,-252 451.54,-252 451.54,-216 533.15,-216 533.15,-252"/>
<text text-anchor="middle" x="492.34" y="-229.8" font-family="Times,serif" font-size="14.00">fclose(fp1);</text>
</g>
<!-- D45&#45;&gt;D47 -->
<g id="edge21" class="edge">
<title>D45&#45;&gt;D47</title>
<path fill="none" stroke="black" d="M492.34,-287.7C492.34,-279.98 492.34,-270.71 492.34,-262.11"/>
<polygon fill="black" stroke="black" points="495.84,-262.1 492.34,-252.1 488.84,-262.1 495.84,-262.1"/>
</g>
<!-- D49 -->
<g id="node22" class="node">
<title>D49</title>
<polygon fill="none" stroke="black" points="533.15,-180 451.54,-180 451.54,-144 533.15,-144 533.15,-180"/>
<text text-anchor="middle" x="492.34" y="-157.8" font-family="Times,serif" font-size="14.00">fclose(fp2);</text>
</g>
<!-- D47&#45;&gt;D49 -->
<g id="edge22" class="edge">
<title>D47&#45;&gt;D49</title>
<path fill="none" stroke="black" d="M492.34,-215.7C492.34,-207.98 492.34,-198.71 492.34,-190.11"/>
<polygon fill="black" stroke="black" points="495.84,-190.1 492.34,-180.1 488.84,-190.1 495.84,-190.1"/>
</g>
<!-- D51 -->
<g id="node23" class="node">
<title>D51</title>
<polygon fill="none" stroke="black" points="634.35,-108 350.34,-108 350.34,-72 634.35,-72 634.35,-108"/>
<text text-anchor="middle" x="492.34" y="-85.8" font-family="Times,serif" font-size="14.00">cout&lt;&lt;&quot;**散列表初始化已完成！**&quot;&lt;&lt;endl&lt;&lt;endl;</text>
</g>
<!-- D49&#45;&gt;D51 -->
<g id="edge23" class="edge">
<title>D49&#45;&gt;D51</title>
<path fill="none" stroke="black" d="M492.34,-143.7C492.34,-135.98 492.34,-126.71 492.34,-118.11"/>
<polygon fill="black" stroke="black" points="495.84,-118.1 492.34,-108.1 488.84,-118.1 495.84,-118.1"/>
</g>
<!-- D51&#45;&gt;D1 -->
<g id="edge24" class="edge">
<title>D51&#45;&gt;D1</title>
<path fill="none" stroke="black" d="M492.34,-71.7C492.34,-63.98 492.34,-54.71 492.34,-46.11"/>
<polygon fill="black" stroke="black" points="495.84,-46.1 492.34,-36.1 488.84,-46.1 495.84,-46.1"/>
</g>
</g>
</svg>
