<?xml version="1.0" encoding="UTF-8" standalone="no"?>
<!DOCTYPE svg PUBLIC "-//W3C//DTD SVG 1.1//EN"
 "http://www.w3.org/Graphics/SVG/1.1/DTD/svg11.dtd">
<!-- Generated by graphviz version 3.0.0 (20220404.1115)
 -->
<!-- Pages: 1 -->
<svg width="1001pt" height="692pt"
 viewBox="0.00 0.00 1000.62 692.00" xmlns="http://www.w3.org/2000/svg" xmlns:xlink="http://www.w3.org/1999/xlink">
<g id="graph0" class="graph" transform="scale(1 1) rotate(0) translate(4 688)">
<polygon fill="white" stroke="transparent" points="-4,4 -4,-688 996.62,-688 996.62,4 -4,4"/>
<!-- D0 -->
<g id="node1" class="node">
<title>D0</title>
<path fill="none" stroke="black" d="M221.25,-684C221.25,-684 191.25,-684 191.25,-684 185.25,-684 179.25,-678 179.25,-672 179.25,-672 179.25,-660 179.25,-660 179.25,-654 185.25,-648 191.25,-648 191.25,-648 221.25,-648 221.25,-648 227.25,-648 233.25,-654 233.25,-660 233.25,-660 233.25,-672 233.25,-672 233.25,-678 227.25,-684 221.25,-684"/>
<text text-anchor="middle" x="206.25" y="-661.8" font-family="Times,serif" font-size="14.00">begin</text>
</g>
<!-- D4 -->
<g id="node3" class="node">
<title>D4</title>
<polygon fill="none" stroke="black" points="265.39,-612 147.11,-612 147.11,-576 265.39,-576 265.39,-612"/>
<text text-anchor="middle" x="206.25" y="-589.8" font-family="Times,serif" font-size="14.00">struct Elemtype x;</text>
</g>
<!-- D0&#45;&gt;D4 -->
<g id="edge13" class="edge">
<title>D0&#45;&gt;D4</title>
<path fill="none" stroke="black" d="M206.25,-647.7C206.25,-639.98 206.25,-630.71 206.25,-622.11"/>
<polygon fill="black" stroke="black" points="209.75,-622.1 206.25,-612.1 202.75,-622.1 209.75,-622.1"/>
</g>
<!-- D1 -->
<g id="node2" class="node">
<title>D1</title>
<path fill="none" stroke="black" d="M400.25,-36C400.25,-36 370.25,-36 370.25,-36 364.25,-36 358.25,-30 358.25,-24 358.25,-24 358.25,-12 358.25,-12 358.25,-6 364.25,0 370.25,0 370.25,0 400.25,0 400.25,0 406.25,0 412.25,-6 412.25,-12 412.25,-12 412.25,-24 412.25,-24 412.25,-30 406.25,-36 400.25,-36"/>
<text text-anchor="middle" x="385.25" y="-13.8" font-family="Times,serif" font-size="14.00">end</text>
</g>
<!-- D6 -->
<g id="node4" class="node">
<title>D6</title>
<polygon fill="none" stroke="black" points="336.47,-540 76.04,-540 76.04,-504 336.47,-504 336.47,-540"/>
<text text-anchor="middle" x="206.25" y="-517.8" font-family="Times,serif" font-size="14.00">cout&lt;&lt;&quot;请输入待删除元素的关键信息（序号）：&quot;;</text>
</g>
<!-- D4&#45;&gt;D6 -->
<g id="edge1" class="edge">
<title>D4&#45;&gt;D6</title>
<path fill="none" stroke="black" d="M206.25,-575.7C206.25,-567.98 206.25,-558.71 206.25,-550.11"/>
<polygon fill="black" stroke="black" points="209.75,-550.1 206.25,-540.1 202.75,-550.1 209.75,-550.1"/>
</g>
<!-- D8 -->
<g id="node5" class="node">
<title>D8</title>
<polygon fill="none" stroke="black" points="248.25,-468 164.25,-468 164.25,-432 248.25,-432 248.25,-468"/>
<text text-anchor="middle" x="206.25" y="-445.8" font-family="Times,serif" font-size="14.00">cin&gt;&gt;x.key;</text>
</g>
<!-- D6&#45;&gt;D8 -->
<g id="edge2" class="edge">
<title>D6&#45;&gt;D8</title>
<path fill="none" stroke="black" d="M206.25,-503.7C206.25,-495.98 206.25,-486.71 206.25,-478.11"/>
<polygon fill="black" stroke="black" points="209.75,-478.1 206.25,-468.1 202.75,-478.1 209.75,-478.1"/>
</g>
<!-- D10 -->
<g id="node6" class="node">
<title>D10</title>
<polygon fill="none" stroke="black" points="248.14,-396 164.36,-396 164.36,-360 248.14,-360 248.14,-396"/>
<text text-anchor="middle" x="206.25" y="-373.8" font-family="Times,serif" font-size="14.00">cout&lt;&lt;endl;</text>
</g>
<!-- D8&#45;&gt;D10 -->
<g id="edge3" class="edge">
<title>D8&#45;&gt;D10</title>
<path fill="none" stroke="black" d="M206.25,-431.7C206.25,-423.98 206.25,-414.71 206.25,-406.11"/>
<polygon fill="black" stroke="black" points="209.75,-406.1 206.25,-396.1 202.75,-406.1 209.75,-406.1"/>
</g>
<!-- D12 -->
<g id="node7" class="node">
<title>D12</title>
<polygon fill="none" stroke="black" points="206.25,-324 6.72,-306 206.25,-288 405.79,-306 206.25,-324"/>
<text text-anchor="middle" x="206.25" y="-301.8" font-family="Times,serif" font-size="14.00">(!HashFileSearch(filename,&amp;x))?</text>
</g>
<!-- D10&#45;&gt;D12 -->
<g id="edge4" class="edge">
<title>D10&#45;&gt;D12</title>
<path fill="none" stroke="black" d="M206.25,-359.7C206.25,-351.98 206.25,-342.71 206.25,-334.11"/>
<polygon fill="black" stroke="black" points="209.75,-334.1 206.25,-324.1 202.75,-334.1 209.75,-334.1"/>
</g>
<!-- D15 -->
<g id="node8" class="node">
<title>D15</title>
<polygon fill="none" stroke="black" points="322.25,-180 0.25,-180 0.25,-144 322.25,-144 322.25,-180"/>
<text text-anchor="middle" x="161.25" y="-157.8" font-family="Times,serif" font-size="14.00">cout&lt;&lt;&quot;该元素在散列表中不存在,不需要删除&quot;&lt;&lt;endl&lt;&lt;endl;</text>
</g>
<!-- D12&#45;&gt;D15 -->
<g id="edge5" class="edge">
<title>D12:s&#45;&gt;D15:n</title>
<path fill="none" stroke="black" d="M206.25,-288C206.25,-239.55 167.19,-232.77 161.85,-190.02"/>
<polygon fill="black" stroke="black" points="165.34,-189.77 161.25,-180 158.36,-190.19 165.34,-189.77"/>
<text text-anchor="middle" x="178.55" y="-238.01" font-family="Times,serif" font-size="14.00">Y</text>
</g>
<!-- D19 -->
<g id="node9" class="node">
<title>D19</title>
<polygon fill="none" stroke="black" points="528.18,-252 298.32,-252 298.32,-216 528.18,-216 528.18,-252"/>
<text text-anchor="middle" x="413.25" y="-229.8" font-family="Times,serif" font-size="14.00">bool mark=HashDelete(filename,&amp;x);</text>
</g>
<!-- D12&#45;&gt;D19 -->
<g id="edge8" class="edge">
<title>D12:e&#45;&gt;D19:n</title>
<path fill="none" stroke="black" d="M407.25,-306C428.1,-306 417.42,-283.75 414.11,-262.13"/>
<polygon fill="black" stroke="black" points="417.59,-261.67 413.25,-252 410.61,-262.26 417.59,-261.67"/>
<text text-anchor="middle" x="412.37" y="-282.55" font-family="Times,serif" font-size="14.00">N</text>
</g>
<!-- D15&#45;&gt;D1 -->
<g id="edge6" class="edge">
<title>D15&#45;&gt;D1</title>
<path fill="none" stroke="black" d="M159.94,-143.83C159.41,-123.89 161.78,-91.28 180.25,-72 203.2,-48.05 295.67,-31.53 348.24,-23.86"/>
<polygon fill="black" stroke="black" points="348.78,-27.32 358.19,-22.45 347.79,-20.39 348.78,-27.32"/>
</g>
<!-- D21 -->
<g id="node10" class="node">
<title>D21</title>
<polygon fill="none" stroke="black" points="421.25,-180 340.13,-162 421.25,-144 502.37,-162 421.25,-180"/>
<text text-anchor="middle" x="421.25" y="-157.8" font-family="Times,serif" font-size="14.00">(mark==1)?</text>
</g>
<!-- D19&#45;&gt;D21 -->
<g id="edge7" class="edge">
<title>D19&#45;&gt;D21</title>
<path fill="none" stroke="black" d="M415.23,-215.7C416.12,-207.87 417.2,-198.44 418.2,-189.73"/>
<polygon fill="black" stroke="black" points="421.69,-189.96 419.35,-179.62 414.74,-189.16 421.69,-189.96"/>
</g>
<!-- D24 -->
<g id="node11" class="node">
<title>D24</title>
<polygon fill="none" stroke="black" points="581.48,-108 189.02,-108 189.02,-72 581.48,-72 581.48,-108"/>
<text text-anchor="middle" x="385.25" y="-85.8" font-family="Times,serif" font-size="14.00">cout&lt;&lt;&quot;关键元素（序号）为&quot;&lt;&lt;x.key&lt;&lt;&quot;的元素删除成功&quot;&lt;&lt;endl&lt;&lt;endl;</text>
</g>
<!-- D21&#45;&gt;D24 -->
<g id="edge10" class="edge">
<title>D21:s&#45;&gt;D24:n</title>
<path fill="none" stroke="black" d="M421.25,-144C421.25,-125.62 397.49,-128.28 388.57,-117.79"/>
<polygon fill="black" stroke="black" points="391.78,-116.34 385.25,-108 385.15,-118.59 391.78,-116.34"/>
<text text-anchor="middle" x="398.46" y="-130.3" font-family="Times,serif" font-size="14.00">Y</text>
</g>
<!-- D26 -->
<g id="node12" class="node">
<title>D26</title>
<polygon fill="none" stroke="black" points="992.48,-108 600.02,-108 600.02,-72 992.48,-72 992.48,-108"/>
<text text-anchor="middle" x="796.25" y="-85.8" font-family="Times,serif" font-size="14.00">cout&lt;&lt;&quot;关键元素（序号）为&quot;&lt;&lt;x.key&lt;&lt;&quot;的元素删除失败&quot;&lt;&lt;endl&lt;&lt;endl;</text>
</g>
<!-- D21&#45;&gt;D26 -->
<g id="edge12" class="edge">
<title>D21:e&#45;&gt;D26:n</title>
<path fill="none" stroke="black" d="M503.25,-162C533.38,-162 751.38,-144.69 790.31,-116.62"/>
<polygon fill="black" stroke="black" points="793.46,-118.22 796.25,-108 787.7,-114.25 793.46,-118.22"/>
<text text-anchor="middle" x="646.57" y="-153.01" font-family="Times,serif" font-size="14.00">N</text>
</g>
<!-- D24&#45;&gt;D1 -->
<g id="edge11" class="edge">
<title>D24&#45;&gt;D1</title>
<path fill="none" stroke="black" d="M385.25,-71.7C385.25,-63.98 385.25,-54.71 385.25,-46.11"/>
<polygon fill="black" stroke="black" points="388.75,-46.1 385.25,-36.1 381.75,-46.1 388.75,-46.1"/>
</g>
<!-- D26&#45;&gt;D1 -->
<g id="edge9" class="edge">
<title>D26&#45;&gt;D1</title>
<path fill="none" stroke="black" d="M696.24,-71.97C607.74,-56.89 483.43,-35.72 422.24,-25.3"/>
<polygon fill="black" stroke="black" points="422.72,-21.83 412.27,-23.6 421.54,-28.73 422.72,-21.83"/>
</g>
</g>
</svg>
