<?xml version="1.0" encoding="UTF-8" standalone="no"?>
<!DOCTYPE svg PUBLIC "-//W3C//DTD SVG 1.1//EN"
 "http://www.w3.org/Graphics/SVG/1.1/DTD/svg11.dtd">
<!-- Generated by graphviz version 3.0.0 (20220404.1115)
 -->
<!-- Pages: 1 -->
<svg width="668pt" height="836pt"
 viewBox="0.00 0.00 668.37 836.00" xmlns="http://www.w3.org/2000/svg" xmlns:xlink="http://www.w3.org/1999/xlink">
<g id="graph0" class="graph" transform="scale(1 1) rotate(0) translate(4 832)">
<polygon fill="white" stroke="transparent" points="-4,4 -4,-832 664.37,-832 664.37,4 -4,4"/>
<!-- D0 -->
<g id="node1" class="node">
<title>D0</title>
<path fill="none" stroke="black" d="M263.5,-828C263.5,-828 233.5,-828 233.5,-828 227.5,-828 221.5,-822 221.5,-816 221.5,-816 221.5,-804 221.5,-804 221.5,-798 227.5,-792 233.5,-792 233.5,-792 263.5,-792 263.5,-792 269.5,-792 275.5,-798 275.5,-804 275.5,-804 275.5,-816 275.5,-816 275.5,-822 269.5,-828 263.5,-828"/>
<text text-anchor="middle" x="248.5" y="-805.8" font-family="Times,serif" font-size="14.00">begin</text>
</g>
<!-- D4 -->
<g id="node3" class="node">
<title>D4</title>
<polygon fill="none" stroke="black" points="307.64,-756 189.36,-756 189.36,-720 307.64,-720 307.64,-756"/>
<text text-anchor="middle" x="248.5" y="-733.8" font-family="Times,serif" font-size="14.00">struct Elemtype x;</text>
</g>
<!-- D0&#45;&gt;D4 -->
<g id="edge13" class="edge">
<title>D0&#45;&gt;D4</title>
<path fill="none" stroke="black" d="M248.5,-791.7C248.5,-783.98 248.5,-774.71 248.5,-766.11"/>
<polygon fill="black" stroke="black" points="252,-766.1 248.5,-756.1 245,-766.1 252,-766.1"/>
</g>
<!-- D1 -->
<g id="node2" class="node">
<title>D1</title>
<path fill="none" stroke="black" d="M337.5,-36C337.5,-36 307.5,-36 307.5,-36 301.5,-36 295.5,-30 295.5,-24 295.5,-24 295.5,-12 295.5,-12 295.5,-6 301.5,0 307.5,0 307.5,0 337.5,0 337.5,0 343.5,0 349.5,-6 349.5,-12 349.5,-12 349.5,-24 349.5,-24 349.5,-30 343.5,-36 337.5,-36"/>
<text text-anchor="middle" x="322.5" y="-13.8" font-family="Times,serif" font-size="14.00">end</text>
</g>
<!-- D6 -->
<g id="node4" class="node">
<title>D6</title>
<polygon fill="none" stroke="black" points="378.72,-684 118.29,-684 118.29,-648 378.72,-648 378.72,-684"/>
<text text-anchor="middle" x="248.5" y="-661.8" font-family="Times,serif" font-size="14.00">cout&lt;&lt;&quot;请输入待插入元素的关键信息（序号）：&quot;;</text>
</g>
<!-- D4&#45;&gt;D6 -->
<g id="edge1" class="edge">
<title>D4&#45;&gt;D6</title>
<path fill="none" stroke="black" d="M248.5,-719.7C248.5,-711.98 248.5,-702.71 248.5,-694.11"/>
<polygon fill="black" stroke="black" points="252,-694.1 248.5,-684.1 245,-694.1 252,-694.1"/>
</g>
<!-- D8 -->
<g id="node5" class="node">
<title>D8</title>
<polygon fill="none" stroke="black" points="290.5,-612 206.5,-612 206.5,-576 290.5,-576 290.5,-612"/>
<text text-anchor="middle" x="248.5" y="-589.8" font-family="Times,serif" font-size="14.00">cin&gt;&gt;x.key;</text>
</g>
<!-- D6&#45;&gt;D8 -->
<g id="edge2" class="edge">
<title>D6&#45;&gt;D8</title>
<path fill="none" stroke="black" d="M248.5,-647.7C248.5,-639.98 248.5,-630.71 248.5,-622.11"/>
<polygon fill="black" stroke="black" points="252,-622.1 248.5,-612.1 245,-622.1 252,-622.1"/>
</g>
<!-- D10 -->
<g id="node6" class="node">
<title>D10</title>
<polygon fill="none" stroke="black" points="290.39,-540 206.61,-540 206.61,-504 290.39,-504 290.39,-540"/>
<text text-anchor="middle" x="248.5" y="-517.8" font-family="Times,serif" font-size="14.00">cout&lt;&lt;endl;</text>
</g>
<!-- D8&#45;&gt;D10 -->
<g id="edge3" class="edge">
<title>D8&#45;&gt;D10</title>
<path fill="none" stroke="black" d="M248.5,-575.7C248.5,-567.98 248.5,-558.71 248.5,-550.11"/>
<polygon fill="black" stroke="black" points="252,-550.1 248.5,-540.1 245,-550.1 252,-550.1"/>
</g>
<!-- D12 -->
<g id="node7" class="node">
<title>D12</title>
<polygon fill="none" stroke="black" points="378.72,-468 118.29,-468 118.29,-432 378.72,-432 378.72,-468"/>
<text text-anchor="middle" x="248.5" y="-445.8" font-family="Times,serif" font-size="14.00">cout&lt;&lt;&quot;请输入待插入元素的附加信息（字符）：&quot;;</text>
</g>
<!-- D10&#45;&gt;D12 -->
<g id="edge4" class="edge">
<title>D10&#45;&gt;D12</title>
<path fill="none" stroke="black" d="M248.5,-503.7C248.5,-495.98 248.5,-486.71 248.5,-478.11"/>
<polygon fill="black" stroke="black" points="252,-478.1 248.5,-468.1 245,-478.1 252,-478.1"/>
</g>
<!-- D14 -->
<g id="node8" class="node">
<title>D14</title>
<polygon fill="none" stroke="black" points="290.5,-396 206.5,-396 206.5,-360 290.5,-360 290.5,-396"/>
<text text-anchor="middle" x="248.5" y="-373.8" font-family="Times,serif" font-size="14.00">cin&gt;&gt;x.rest;</text>
</g>
<!-- D12&#45;&gt;D14 -->
<g id="edge5" class="edge">
<title>D12&#45;&gt;D14</title>
<path fill="none" stroke="black" d="M248.5,-431.7C248.5,-423.98 248.5,-414.71 248.5,-406.11"/>
<polygon fill="black" stroke="black" points="252,-406.1 248.5,-396.1 245,-406.1 252,-406.1"/>
</g>
<!-- D16 -->
<g id="node9" class="node">
<title>D16</title>
<polygon fill="none" stroke="black" points="248.5,-324 53.56,-306 248.5,-288 443.44,-306 248.5,-324"/>
<text text-anchor="middle" x="248.5" y="-301.8" font-family="Times,serif" font-size="14.00">(HashFileSearch(filename,&amp;x))?</text>
</g>
<!-- D14&#45;&gt;D16 -->
<g id="edge6" class="edge">
<title>D14&#45;&gt;D16</title>
<path fill="none" stroke="black" d="M248.5,-359.7C248.5,-351.98 248.5,-342.71 248.5,-334.11"/>
<polygon fill="black" stroke="black" points="252,-334.1 248.5,-324.1 245,-334.1 252,-334.1"/>
</g>
<!-- D19 -->
<g id="node10" class="node">
<title>D19</title>
<polygon fill="none" stroke="black" points="361,-180 0,-180 0,-144 361,-144 361,-180"/>
<text text-anchor="middle" x="180.5" y="-157.8" font-family="Times,serif" font-size="14.00">cout&lt;&lt;&quot;该元素在散列表中已经存在，无需再次插入！&quot;&lt;&lt;endl&lt;&lt;endl;</text>
</g>
<!-- D16&#45;&gt;D19 -->
<g id="edge7" class="edge">
<title>D16:s&#45;&gt;D19:n</title>
<path fill="none" stroke="black" d="M248.5,-288C248.5,-234.93 188.98,-236.28 181.31,-190.23"/>
<polygon fill="black" stroke="black" points="184.78,-189.69 180.5,-180 177.8,-190.25 184.78,-189.69"/>
<text text-anchor="middle" x="209.38" y="-238.15" font-family="Times,serif" font-size="14.00">Y</text>
</g>
<!-- D23 -->
<g id="node11" class="node">
<title>D23</title>
<polygon fill="none" stroke="black" points="587.5,-252 321.5,-252 321.5,-216 587.5,-216 587.5,-252"/>
<text text-anchor="middle" x="454.5" y="-229.8" font-family="Times,serif" font-size="14.00">cout&lt;&lt;&quot;该元素在散列表中不存在&quot;&lt;&lt;endl&lt;&lt;endl;</text>
</g>
<!-- D16&#45;&gt;D23 -->
<g id="edge10" class="edge">
<title>D16:e&#45;&gt;D23:n</title>
<path fill="none" stroke="black" d="M444.5,-306C465.57,-306 457.72,-283.95 455.17,-262.21"/>
<polygon fill="black" stroke="black" points="458.65,-261.75 454.5,-252 451.67,-262.21 458.65,-261.75"/>
<text text-anchor="middle" x="452.52" y="-282.66" font-family="Times,serif" font-size="14.00">N</text>
</g>
<!-- D19&#45;&gt;D1 -->
<g id="edge8" class="edge">
<title>D19&#45;&gt;D1</title>
<path fill="none" stroke="black" d="M188.65,-143.67C198.3,-124.47 215.83,-93.41 237.5,-72 251.67,-58 270.17,-45.92 286.3,-36.84"/>
<polygon fill="black" stroke="black" points="288.35,-39.71 295.46,-31.86 285.01,-33.56 288.35,-39.71"/>
</g>
<!-- D25 -->
<g id="node12" class="node">
<title>D25</title>
<polygon fill="none" stroke="black" points="553.73,-180 379.28,-180 379.28,-144 553.73,-144 553.73,-180"/>
<text text-anchor="middle" x="466.5" y="-157.8" font-family="Times,serif" font-size="14.00">HashFileInOne(filename,x);</text>
</g>
<!-- D23&#45;&gt;D25 -->
<g id="edge9" class="edge">
<title>D23&#45;&gt;D25</title>
<path fill="none" stroke="black" d="M457.47,-215.7C458.79,-207.98 460.38,-198.71 461.85,-190.11"/>
<polygon fill="black" stroke="black" points="465.33,-190.55 463.57,-180.1 458.43,-189.37 465.33,-190.55"/>
</g>
<!-- D27 -->
<g id="node13" class="node">
<title>D27</title>
<polygon fill="none" stroke="black" points="660.23,-108 246.77,-108 246.77,-72 660.23,-72 660.23,-108"/>
<text text-anchor="middle" x="453.5" y="-85.8" font-family="Times,serif" font-size="14.00">cout&lt;&lt;&quot;关键元素（序号）为&quot;&lt;&lt;x.key&lt;&lt;&quot;的元素经插入完成！&quot;&lt;&lt;endl&lt;&lt;endl;</text>
</g>
<!-- D25&#45;&gt;D27 -->
<g id="edge11" class="edge">
<title>D25&#45;&gt;D27</title>
<path fill="none" stroke="black" d="M463.29,-143.7C461.86,-135.98 460.13,-126.71 458.54,-118.11"/>
<polygon fill="black" stroke="black" points="461.95,-117.3 456.68,-108.1 455.06,-118.58 461.95,-117.3"/>
</g>
<!-- D27&#45;&gt;D1 -->
<g id="edge12" class="edge">
<title>D27&#45;&gt;D1</title>
<path fill="none" stroke="black" d="M421.46,-71.88C402.49,-61.74 378.41,-48.88 358.76,-38.37"/>
<polygon fill="black" stroke="black" points="360.26,-35.21 349.79,-33.58 356.96,-41.38 360.26,-35.21"/>
</g>
</g>
</svg>
