<?xml version="1.0" encoding="UTF-8" standalone="no"?>
<!DOCTYPE svg PUBLIC "-//W3C//DTD SVG 1.1//EN"
 "http://www.w3.org/Graphics/SVG/1.1/DTD/svg11.dtd">
<!-- Generated by graphviz version 3.0.0 (20220404.1115)
 -->
<!-- Pages: 1 -->
<svg width="697pt" height="980pt"
 viewBox="0.00 0.00 697.23 980.00" xmlns="http://www.w3.org/2000/svg" xmlns:xlink="http://www.w3.org/1999/xlink">
<g id="graph0" class="graph" transform="scale(1 1) rotate(0) translate(4 976)">
<polygon fill="white" stroke="transparent" points="-4,4 -4,-976 693.23,-976 693.23,4 -4,4"/>
<!-- D0 -->
<g id="node1" class="node">
<title>D0</title>
<path fill="none" stroke="black" d="M126.41,-972C126.41,-972 96.41,-972 96.41,-972 90.41,-972 84.41,-966 84.41,-960 84.41,-960 84.41,-948 84.41,-948 84.41,-942 90.41,-936 96.41,-936 96.41,-936 126.41,-936 126.41,-936 132.41,-936 138.41,-942 138.41,-948 138.41,-948 138.41,-960 138.41,-960 138.41,-966 132.41,-972 126.41,-972"/>
<text text-anchor="middle" x="111.41" y="-949.8" font-family="Times,serif" font-size="14.00">begin</text>
</g>
<!-- D4 -->
<g id="node3" class="node">
<title>D4</title>
<polygon fill="none" stroke="black" points="111.41,-900 0.09,-882 111.41,-864 222.72,-882 111.41,-900"/>
<text text-anchor="middle" x="111.41" y="-877.8" font-family="Times,serif" font-size="14.00">(root == NULL)?</text>
</g>
<!-- D0&#45;&gt;D4 -->
<g id="edge21" class="edge">
<title>D0&#45;&gt;D4</title>
<path fill="none" stroke="black" d="M111.41,-935.7C111.41,-927.98 111.41,-918.71 111.41,-910.11"/>
<polygon fill="black" stroke="black" points="114.91,-910.1 111.41,-900.1 107.91,-910.1 114.91,-910.1"/>
</g>
<!-- D1 -->
<g id="node2" class="node">
<title>D1</title>
<path fill="none" stroke="black" d="M234.41,-36C234.41,-36 204.41,-36 204.41,-36 198.41,-36 192.41,-30 192.41,-24 192.41,-24 192.41,-12 192.41,-12 192.41,-6 198.41,0 204.41,0 204.41,0 234.41,0 234.41,0 240.41,0 246.41,-6 246.41,-12 246.41,-12 246.41,-24 246.41,-24 246.41,-30 240.41,-36 234.41,-36"/>
<text text-anchor="middle" x="219.41" y="-13.8" font-family="Times,serif" font-size="14.00">end</text>
</g>
<!-- D9 -->
<g id="node4" class="node">
<title>D9</title>
<polygon fill="none" stroke="black" points="120.55,-756 26.27,-756 26.27,-720 120.55,-720 120.55,-756"/>
<text text-anchor="middle" x="73.41" y="-733.8" font-family="Times,serif" font-size="14.00">return NULL;</text>
</g>
<!-- D4&#45;&gt;D9 -->
<g id="edge2" class="edge">
<title>D4:s&#45;&gt;D9:n</title>
<path fill="none" stroke="black" d="M111.41,-864C111.41,-846.99 104.09,-844.04 98.41,-828 88.34,-799.56 76.37,-791.54 73.88,-766.19"/>
<polygon fill="black" stroke="black" points="77.36,-765.83 73.41,-756 70.37,-766.15 77.36,-765.83"/>
<text text-anchor="middle" x="85.56" y="-813.99" font-family="Times,serif" font-size="14.00">Y</text>
</g>
<!-- D11 -->
<g id="node5" class="node">
<title>D11</title>
<polygon fill="none" stroke="black" points="411.57,-828 107.24,-828 107.24,-792 411.57,-792 411.57,-828"/>
<text text-anchor="middle" x="259.41" y="-805.8" font-family="Times,serif" font-size="14.00">BiTree retNode = (BiTree)malloc(sizeof(BiNode));</text>
</g>
<!-- D4&#45;&gt;D11 -->
<g id="edge1" class="edge">
<title>D4:e&#45;&gt;D11:n</title>
<path fill="none" stroke="black" d="M224.41,-882C249.54,-882 257.53,-862.38 259.1,-838.21"/>
<polygon fill="black" stroke="black" points="262.6,-838.1 259.41,-828 255.61,-837.89 262.6,-838.1"/>
<text text-anchor="middle" x="250.21" y="-863.74" font-family="Times,serif" font-size="14.00">N</text>
</g>
<!-- D9&#45;&gt;D1 -->
<g id="edge3" class="edge">
<title>D9&#45;&gt;D1</title>
<path fill="none" stroke="black" d="M71.83,-719.97C69.49,-693.33 65.41,-640.19 65.41,-595 65.41,-595 65.41,-595 65.41,-161 65.41,-97.34 137.41,-54.35 182.95,-33.52"/>
<polygon fill="black" stroke="black" points="184.5,-36.66 192.23,-29.41 181.67,-30.26 184.5,-36.66"/>
</g>
<!-- D13 -->
<g id="node6" class="node">
<title>D13</title>
<polygon fill="none" stroke="black" points="361.58,-756 187.23,-756 187.23,-720 361.58,-720 361.58,-756"/>
<text text-anchor="middle" x="274.41" y="-733.8" font-family="Times,serif" font-size="14.00">retNode&#45;&gt;data = root&#45;&gt;data;</text>
</g>
<!-- D11&#45;&gt;D13 -->
<g id="edge4" class="edge">
<title>D11&#45;&gt;D13</title>
<path fill="none" stroke="black" d="M263.11,-791.7C264.77,-783.98 266.75,-774.71 268.6,-766.11"/>
<polygon fill="black" stroke="black" points="272.07,-766.62 270.74,-756.1 265.22,-765.15 272.07,-766.62"/>
</g>
<!-- D15 -->
<g id="node7" class="node">
<title>D15</title>
<polygon fill="none" stroke="black" points="359.82,-684 196.99,-684 196.99,-648 359.82,-648 359.82,-684"/>
<text text-anchor="middle" x="278.41" y="-661.8" font-family="Times,serif" font-size="14.00">retNode&#45;&gt;rchild = NULL;</text>
</g>
<!-- D13&#45;&gt;D15 -->
<g id="edge5" class="edge">
<title>D13&#45;&gt;D15</title>
<path fill="none" stroke="black" d="M275.4,-719.7C275.84,-711.98 276.37,-702.71 276.86,-694.11"/>
<polygon fill="black" stroke="black" points="280.35,-694.29 277.43,-684.1 273.36,-693.89 280.35,-694.29"/>
</g>
<!-- D17 -->
<g id="node8" class="node">
<title>D17</title>
<polygon fill="none" stroke="black" points="370.21,-612 188.6,-612 188.6,-576 370.21,-576 370.21,-612"/>
<text text-anchor="middle" x="279.41" y="-589.8" font-family="Times,serif" font-size="14.00">Queue *que = createQueue();</text>
</g>
<!-- D15&#45;&gt;D17 -->
<g id="edge6" class="edge">
<title>D15&#45;&gt;D17</title>
<path fill="none" stroke="black" d="M278.65,-647.7C278.76,-639.98 278.9,-630.71 279.02,-622.11"/>
<polygon fill="black" stroke="black" points="282.52,-622.15 279.16,-612.1 275.52,-622.05 282.52,-622.15"/>
</g>
<!-- D22 -->
<g id="node10" class="node">
<title>D22</title>
<polygon fill="none" stroke="black" points="319.36,-540 255.45,-540 255.45,-504 319.36,-504 319.36,-540"/>
<text text-anchor="middle" x="287.41" y="-517.8" font-family="Times,serif" font-size="14.00">int i = 0;</text>
</g>
<!-- D17&#45;&gt;D22 -->
<g id="edge7" class="edge">
<title>D17&#45;&gt;D22</title>
<path fill="none" stroke="black" d="M281.38,-575.7C282.27,-567.98 283.33,-558.71 284.31,-550.11"/>
<polygon fill="black" stroke="black" points="287.79,-550.44 285.45,-540.1 280.84,-549.64 287.79,-550.44"/>
</g>
<!-- D21 -->
<g id="node9" class="node">
<title>D21</title>
<polygon fill="none" stroke="black" points="291.41,-468 122.32,-450 291.41,-432 460.49,-450 291.41,-468"/>
<text text-anchor="middle" x="291.41" y="-445.8" font-family="Times,serif" font-size="14.00">root&#45;&gt;children[i] != NULL?</text>
</g>
<!-- D26 -->
<g id="node12" class="node">
<title>D26</title>
<polygon fill="none" stroke="black" points="293.78,-396 93.03,-396 93.03,-360 293.78,-360 293.78,-396"/>
<text text-anchor="middle" x="193.41" y="-373.8" font-family="Times,serif" font-size="14.00">enQueue(que, root&#45;&gt;children[i]);</text>
</g>
<!-- D21&#45;&gt;D26 -->
<g id="edge13" class="edge">
<title>D21:s&#45;&gt;D26:n</title>
<path fill="none" stroke="black" d="M291.41,-432C291.41,-389.59 209.53,-433.4 195.45,-405.81"/>
<polygon fill="black" stroke="black" points="198.88,-405.07 193.41,-396 192.02,-406.5 198.88,-405.07"/>
<text text-anchor="middle" x="237.37" y="-418.2" font-family="Times,serif" font-size="14.00">Y</text>
</g>
<!-- D28 -->
<g id="node13" class="node">
<title>D28</title>
<polygon fill="none" stroke="black" points="689.05,-396 349.76,-396 349.76,-360 689.05,-360 689.05,-396"/>
<text text-anchor="middle" x="519.41" y="-373.8" font-family="Times,serif" font-size="14.00">retNode&#45;&gt;lchild = transform((TreeNode*)deQueue(que));</text>
</g>
<!-- D21&#45;&gt;D28 -->
<g id="edge8" class="edge">
<title>D21:e&#45;&gt;D28:n</title>
<path fill="none" stroke="black" d="M461.41,-450C493.05,-450 514.65,-434.84 518.71,-406.22"/>
<polygon fill="black" stroke="black" points="522.22,-406.21 519.41,-396 515.24,-405.74 522.22,-406.21"/>
<text text-anchor="middle" x="497.6" y="-441.25" font-family="Times,serif" font-size="14.00">N</text>
</g>
<!-- D22&#45;&gt;D21 -->
<g id="edge9" class="edge">
<title>D22&#45;&gt;D21</title>
<path fill="none" stroke="black" d="M288.4,-503.7C288.84,-495.98 289.37,-486.71 289.86,-478.11"/>
<polygon fill="black" stroke="black" points="293.35,-478.29 290.43,-468.1 286.36,-477.89 293.35,-478.29"/>
</g>
<!-- D23 -->
<g id="node11" class="node">
<title>D23</title>
<polygon fill="none" stroke="black" points="284.41,-324 230.41,-324 230.41,-288 284.41,-288 284.41,-324"/>
<text text-anchor="middle" x="257.41" y="-301.8" font-family="Times,serif" font-size="14.00">i++</text>
</g>
<!-- D23&#45;&gt;D21 -->
<g id="edge11" class="edge">
<title>D23&#45;&gt;D21</title>
<path fill="none" stroke="black" d="M277.79,-324.47C287.21,-333.91 297.41,-346.4 302.41,-360 309.84,-380.25 306.01,-404.66 300.92,-422.78"/>
<polygon fill="black" stroke="black" points="297.56,-421.81 297.95,-432.4 304.25,-423.88 297.56,-421.81"/>
</g>
<!-- D26&#45;&gt;D23 -->
<g id="edge10" class="edge">
<title>D26&#45;&gt;D23</title>
<path fill="none" stroke="black" d="M209.23,-359.7C216.98,-351.22 226.45,-340.86 234.93,-331.58"/>
<polygon fill="black" stroke="black" points="237.6,-333.85 241.77,-324.1 232.44,-329.12 237.6,-333.85"/>
</g>
<!-- D30 -->
<g id="node14" class="node">
<title>D30</title>
<polygon fill="none" stroke="black" points="604.33,-324 410.49,-324 410.49,-288 604.33,-288 604.33,-324"/>
<text text-anchor="middle" x="507.41" y="-301.8" font-family="Times,serif" font-size="14.00">BiNode *ptr = retNode&#45;&gt;lchild;</text>
</g>
<!-- D28&#45;&gt;D30 -->
<g id="edge12" class="edge">
<title>D28&#45;&gt;D30</title>
<path fill="none" stroke="black" d="M516.44,-359.7C515.12,-351.98 513.53,-342.71 512.05,-334.11"/>
<polygon fill="black" stroke="black" points="515.48,-333.37 510.34,-324.1 508.58,-334.55 515.48,-333.37"/>
</g>
<!-- D32 -->
<g id="node15" class="node">
<title>D32</title>
<polygon fill="none" stroke="black" points="485.41,-252 340.31,-234 485.41,-216 630.5,-234 485.41,-252"/>
<text text-anchor="middle" x="485.41" y="-229.8" font-family="Times,serif" font-size="14.00">(!isEmptyQueue(que))?</text>
</g>
<!-- D30&#45;&gt;D32 -->
<g id="edge14" class="edge">
<title>D30&#45;&gt;D32</title>
<path fill="none" stroke="black" d="M501.97,-287.7C499.48,-279.78 496.48,-270.23 493.72,-261.44"/>
<polygon fill="black" stroke="black" points="496.97,-260.11 490.63,-251.62 490.29,-262.21 496.97,-260.11"/>
</g>
<!-- D37 -->
<g id="node16" class="node">
<title>D37</title>
<polygon fill="none" stroke="black" points="487.79,-180 177.03,-180 177.03,-144 487.79,-144 487.79,-180"/>
<text text-anchor="middle" x="332.41" y="-157.8" font-family="Times,serif" font-size="14.00">ptr&#45;&gt;rchild = transform((TreeNode*)deQueue(que));</text>
</g>
<!-- D32&#45;&gt;D37 -->
<g id="edge19" class="edge">
<title>D32:s&#45;&gt;D37:n</title>
<path fill="none" stroke="black" d="M485.41,-216C485.41,-149.96 348.68,-239.03 333.73,-189.96"/>
<polygon fill="black" stroke="black" points="337.19,-189.45 332.41,-180 330.25,-190.37 337.19,-189.45"/>
<text text-anchor="middle" x="403.77" y="-202.22" font-family="Times,serif" font-size="14.00">Y</text>
</g>
<!-- D41 -->
<g id="node18" class="node">
<title>D41</title>
<polygon fill="none" stroke="black" points="655.09,-180 583.73,-180 583.73,-144 655.09,-144 655.09,-180"/>
<text text-anchor="middle" x="619.41" y="-157.8" font-family="Times,serif" font-size="14.00">free(que);</text>
</g>
<!-- D32&#45;&gt;D41 -->
<g id="edge15" class="edge">
<title>D32:e&#45;&gt;D41:n</title>
<path fill="none" stroke="black" d="M631.41,-234C639.42,-234 631.81,-223.89 630.41,-216 628.19,-203.52 623.01,-198.89 620.64,-190.1"/>
<polygon fill="black" stroke="black" points="624.09,-189.5 619.41,-180 617.14,-190.35 624.09,-189.5"/>
<text text-anchor="middle" x="622.42" y="-193.22" font-family="Times,serif" font-size="14.00">N</text>
</g>
<!-- D39 -->
<g id="node17" class="node">
<title>D39</title>
<polygon fill="none" stroke="black" points="428.01,-108 316.81,-108 316.81,-72 428.01,-72 428.01,-108"/>
<text text-anchor="middle" x="372.41" y="-85.8" font-family="Times,serif" font-size="14.00">ptr = ptr&#45;&gt;rchild;</text>
</g>
<!-- D37&#45;&gt;D39 -->
<g id="edge16" class="edge">
<title>D37&#45;&gt;D39</title>
<path fill="none" stroke="black" d="M342.29,-143.7C346.9,-135.64 352.47,-125.89 357.56,-116.98"/>
<polygon fill="black" stroke="black" points="360.71,-118.52 362.63,-108.1 354.63,-115.05 360.71,-118.52"/>
</g>
<!-- D39&#45;&gt;D32 -->
<g id="edge17" class="edge">
<title>D39&#45;&gt;D32</title>
<path fill="none" stroke="black" d="M428.07,-100.41C453.42,-107.77 481.12,-120.85 496.41,-144 508.69,-162.61 503.78,-188.26 497.08,-207.25"/>
<polygon fill="black" stroke="black" points="493.74,-206.17 493.38,-216.76 500.27,-208.71 493.74,-206.17"/>
</g>
<!-- D43 -->
<g id="node19" class="node">
<title>D43</title>
<polygon fill="none" stroke="black" points="629.31,-108 527.5,-108 527.5,-72 629.31,-72 629.31,-108"/>
<text text-anchor="middle" x="578.41" y="-85.8" font-family="Times,serif" font-size="14.00">return retNode;</text>
</g>
<!-- D41&#45;&gt;D43 -->
<g id="edge18" class="edge">
<title>D41&#45;&gt;D43</title>
<path fill="none" stroke="black" d="M609.27,-143.7C604.56,-135.64 598.85,-125.89 593.63,-116.98"/>
<polygon fill="black" stroke="black" points="596.5,-114.96 588.43,-108.1 590.46,-118.5 596.5,-114.96"/>
</g>
<!-- D43&#45;&gt;D1 -->
<g id="edge20" class="edge">
<title>D43&#45;&gt;D1</title>
<path fill="none" stroke="black" d="M527.35,-79.05C454.19,-64.78 321.23,-38.85 256.63,-26.26"/>
<polygon fill="black" stroke="black" points="256.98,-22.76 246.5,-24.28 255.64,-29.63 256.98,-22.76"/>
</g>
</g>
</svg>
