<?xml version="1.0" encoding="UTF-8" standalone="no"?>
<!DOCTYPE svg PUBLIC "-//W3C//DTD SVG 1.1//EN"
 "http://www.w3.org/Graphics/SVG/1.1/DTD/svg11.dtd">
<!-- Generated by graphviz version 3.0.0 (20220404.1115)
 -->
<!-- Pages: 1 -->
<svg width="1141pt" height="1268pt"
 viewBox="0.00 0.00 1140.84 1268.00" xmlns="http://www.w3.org/2000/svg" xmlns:xlink="http://www.w3.org/1999/xlink">
<g id="graph0" class="graph" transform="scale(1 1) rotate(0) translate(4 1264)">
<polygon fill="white" stroke="transparent" points="-4,4 -4,-1264 1136.84,-1264 1136.84,4 -4,4"/>
<!-- D0 -->
<g id="node1" class="node">
<title>D0</title>
<path fill="none" stroke="black" d="M321.91,-1260C321.91,-1260 291.91,-1260 291.91,-1260 285.91,-1260 279.91,-1254 279.91,-1248 279.91,-1248 279.91,-1236 279.91,-1236 279.91,-1230 285.91,-1224 291.91,-1224 291.91,-1224 321.91,-1224 321.91,-1224 327.91,-1224 333.91,-1230 333.91,-1236 333.91,-1236 333.91,-1248 333.91,-1248 333.91,-1254 327.91,-1260 321.91,-1260"/>
<text text-anchor="middle" x="306.91" y="-1237.8" font-family="Times,serif" font-size="14.00">begin</text>
</g>
<!-- D4 -->
<g id="node3" class="node">
<title>D4</title>
<polygon fill="none" stroke="black" points="333.91,-1188 279.91,-1188 279.91,-1152 333.91,-1152 333.91,-1188"/>
<text text-anchor="middle" x="306.91" y="-1165.8" font-family="Times,serif" font-size="14.00">X=1;</text>
</g>
<!-- D0&#45;&gt;D4 -->
<g id="edge36" class="edge">
<title>D0&#45;&gt;D4</title>
<path fill="none" stroke="black" d="M306.91,-1223.7C306.91,-1215.98 306.91,-1206.71 306.91,-1198.11"/>
<polygon fill="black" stroke="black" points="310.41,-1198.1 306.91,-1188.1 303.41,-1198.1 310.41,-1198.1"/>
</g>
<!-- D1 -->
<g id="node2" class="node">
<title>D1</title>
<path fill="none" stroke="black" d="M502.91,-36C502.91,-36 472.91,-36 472.91,-36 466.91,-36 460.91,-30 460.91,-24 460.91,-24 460.91,-12 460.91,-12 460.91,-6 466.91,0 472.91,0 472.91,0 502.91,0 502.91,0 508.91,0 514.91,-6 514.91,-12 514.91,-12 514.91,-24 514.91,-24 514.91,-30 508.91,-36 502.91,-36"/>
<text text-anchor="middle" x="487.91" y="-13.8" font-family="Times,serif" font-size="14.00">end</text>
</g>
<!-- D6 -->
<g id="node4" class="node">
<title>D6</title>
<polygon fill="none" stroke="black" points="380.68,-1116 233.14,-1116 233.14,-1080 380.68,-1080 380.68,-1116"/>
<text text-anchor="middle" x="306.91" y="-1093.8" font-family="Times,serif" font-size="14.00">struct point p={0,0,&#45;1};</text>
</g>
<!-- D4&#45;&gt;D6 -->
<g id="edge1" class="edge">
<title>D4&#45;&gt;D6</title>
<path fill="none" stroke="black" d="M306.91,-1151.7C306.91,-1143.98 306.91,-1134.71 306.91,-1126.11"/>
<polygon fill="black" stroke="black" points="310.41,-1126.1 306.91,-1116.1 303.41,-1126.1 310.41,-1126.1"/>
</g>
<!-- D8 -->
<g id="node5" class="node">
<title>D8</title>
<polygon fill="none" stroke="black" points="306.91,-1044 148.6,-1026 306.91,-1008 465.22,-1026 306.91,-1044"/>
<text text-anchor="middle" x="306.91" y="-1021.8" font-family="Times,serif" font-size="14.00">(maze[p.row][p.col]==1)?</text>
</g>
<!-- D6&#45;&gt;D8 -->
<g id="edge2" class="edge">
<title>D6&#45;&gt;D8</title>
<path fill="none" stroke="black" d="M306.91,-1079.7C306.91,-1071.98 306.91,-1062.71 306.91,-1054.11"/>
<polygon fill="black" stroke="black" points="310.41,-1054.1 306.91,-1044.1 303.41,-1054.1 310.41,-1054.1"/>
</g>
<!-- D13 -->
<g id="node6" class="node">
<title>D13</title>
<polygon fill="none" stroke="black" points="294.91,-972 240.91,-972 240.91,-936 294.91,-936 294.91,-972"/>
<text text-anchor="middle" x="267.91" y="-949.8" font-family="Times,serif" font-size="14.00">X=0;</text>
</g>
<!-- D8&#45;&gt;D13 -->
<g id="edge4" class="edge">
<title>D8:s&#45;&gt;D13:n</title>
<path fill="none" stroke="black" d="M306.91,-1008C306.91,-988.65 280.67,-992.69 271.23,-981.75"/>
<polygon fill="black" stroke="black" points="274.45,-980.34 267.91,-972 267.82,-982.59 274.45,-980.34"/>
<text text-anchor="middle" x="282.36" y="-994.2" font-family="Times,serif" font-size="14.00">Y</text>
</g>
<!-- D17 -->
<g id="node8" class="node">
<title>D17</title>
<polygon fill="none" stroke="black" points="557.25,-972 414.57,-972 414.57,-936 557.25,-936 557.25,-972"/>
<text text-anchor="middle" x="485.91" y="-949.8" font-family="Times,serif" font-size="14.00">maze[p.row][p.col]=2;</text>
</g>
<!-- D8&#45;&gt;D17 -->
<g id="edge3" class="edge">
<title>D8:e&#45;&gt;D17:n</title>
<path fill="none" stroke="black" d="M466.91,-1026C488.97,-1026 487.06,-1004.52 486.16,-982.23"/>
<polygon fill="black" stroke="black" points="489.65,-981.91 485.91,-972 482.66,-982.08 489.65,-981.91"/>
<text text-anchor="middle" x="481.57" y="-1003.16" font-family="Times,serif" font-size="14.00">N</text>
</g>
<!-- D15 -->
<g id="node7" class="node">
<title>D15</title>
<polygon fill="none" stroke="black" points="63.73,-828 0.09,-828 0.09,-792 63.73,-792 63.73,-828"/>
<text text-anchor="middle" x="31.91" y="-805.8" font-family="Times,serif" font-size="14.00">return 0;</text>
</g>
<!-- D13&#45;&gt;D15 -->
<g id="edge7" class="edge">
<title>D13&#45;&gt;D15</title>
<path fill="none" stroke="black" d="M240.84,-936.71C198.64,-911.32 117.07,-862.24 69.29,-833.49"/>
<polygon fill="black" stroke="black" points="70.87,-830.36 60.5,-828.2 67.26,-836.36 70.87,-830.36"/>
</g>
<!-- D15&#45;&gt;D1 -->
<g id="edge6" class="edge">
<title>D15&#45;&gt;D1</title>
<path fill="none" stroke="black" d="M31.32,-791.95C30.44,-765.3 28.91,-712.12 28.91,-667 28.91,-667 28.91,-667 28.91,-161 28.91,-73.01 340.65,-33.61 450.31,-22.47"/>
<polygon fill="black" stroke="black" points="450.97,-25.92 460.57,-21.45 450.27,-18.95 450.97,-25.92"/>
</g>
<!-- D19 -->
<g id="node9" class="node">
<title>D19</title>
<polygon fill="none" stroke="black" points="529.26,-900 446.55,-900 446.55,-864 529.26,-864 529.26,-900"/>
<text text-anchor="middle" x="487.91" y="-877.8" font-family="Times,serif" font-size="14.00">enqueue(p);</text>
</g>
<!-- D17&#45;&gt;D19 -->
<g id="edge5" class="edge">
<title>D17&#45;&gt;D19</title>
<path fill="none" stroke="black" d="M486.4,-935.7C486.62,-927.98 486.89,-918.71 487.13,-910.11"/>
<polygon fill="black" stroke="black" points="490.63,-910.2 487.42,-900.1 483.64,-910 490.63,-910.2"/>
</g>
<!-- D21 -->
<g id="node10" class="node">
<title>D21</title>
<polygon fill="none" stroke="black" points="497.91,-828 403.44,-810 497.91,-792 592.37,-810 497.91,-828"/>
<text text-anchor="middle" x="497.91" y="-805.8" font-family="Times,serif" font-size="14.00">(!is_empty())?</text>
</g>
<!-- D19&#45;&gt;D21 -->
<g id="edge8" class="edge">
<title>D19&#45;&gt;D21</title>
<path fill="none" stroke="black" d="M490.38,-863.7C491.5,-855.87 492.85,-846.44 494.09,-837.73"/>
<polygon fill="black" stroke="black" points="497.58,-838.02 495.53,-827.62 490.65,-837.03 497.58,-838.02"/>
</g>
<!-- D26 -->
<g id="node11" class="node">
<title>D26</title>
<polygon fill="none" stroke="black" points="543.16,-756 452.66,-756 452.66,-720 543.16,-720 543.16,-756"/>
<text text-anchor="middle" x="497.91" y="-733.8" font-family="Times,serif" font-size="14.00">p=dequeue();</text>
</g>
<!-- D21&#45;&gt;D26 -->
<g id="edge26" class="edge">
<title>D21:s&#45;&gt;D26:n</title>
<path fill="none" stroke="black" d="M497.91,-792C497.91,-780 497.91,-774.75 497.91,-766.12"/>
<polygon fill="black" stroke="black" points="501.41,-766 497.91,-756 494.41,-766 501.41,-766"/>
<text text-anchor="middle" x="492.85" y="-778.43" font-family="Times,serif" font-size="14.00">Y</text>
</g>
<!-- D53 -->
<g id="node22" class="node">
<title>D53</title>
<polygon fill="none" stroke="black" points="925.91,-540 744.54,-522 925.91,-504 1107.27,-522 925.91,-540"/>
<text text-anchor="middle" x="925.91" y="-517.8" font-family="Times,serif" font-size="14.00">(p.row==m&#45;1&amp;&amp;p.col==n&#45;1)?</text>
</g>
<!-- D21&#45;&gt;D53 -->
<g id="edge10" class="edge">
<title>D21:e&#45;&gt;D53:n</title>
<path fill="none" stroke="black" d="M593.91,-810C780.66,-810 920.77,-733.05 925.77,-550.2"/>
<polygon fill="black" stroke="black" points="929.27,-550.05 925.91,-540 922.27,-549.95 929.27,-550.05"/>
<text text-anchor="middle" x="822.95" y="-752.86" font-family="Times,serif" font-size="14.00">N</text>
</g>
<!-- D28 -->
<g id="node12" class="node">
<title>D28</title>
<polygon fill="none" stroke="black" points="497.91,-684 298.16,-666 497.91,-648 697.66,-666 497.91,-684"/>
<text text-anchor="middle" x="497.91" y="-661.8" font-family="Times,serif" font-size="14.00">((p.row==m&#45;1)&amp;&amp;(p.col==n&#45;1))?</text>
</g>
<!-- D26&#45;&gt;D28 -->
<g id="edge11" class="edge">
<title>D26&#45;&gt;D28</title>
<path fill="none" stroke="black" d="M497.91,-719.7C497.91,-711.98 497.91,-702.71 497.91,-694.11"/>
<polygon fill="black" stroke="black" points="501.41,-694.1 497.91,-684.1 494.41,-694.1 501.41,-694.1"/>
</g>
<!-- D31 -->
<g id="node13" class="node">
<title>D31</title>
<polygon fill="none" stroke="black" points="702.91,-612 648.91,-612 648.91,-576 702.91,-576 702.91,-612"/>
<text text-anchor="middle" x="675.91" y="-589.8" font-family="Times,serif" font-size="14.00">break</text>
</g>
<!-- D28&#45;&gt;D31 -->
<g id="edge14" class="edge">
<title>D28:s&#45;&gt;D31:n</title>
<path fill="none" stroke="black" d="M497.91,-648C497.91,-571.07 659.61,-681.41 674.77,-622.03"/>
<polygon fill="black" stroke="black" points="678.26,-622.33 675.91,-612 671.31,-621.54 678.26,-622.33"/>
<text text-anchor="middle" x="582.06" y="-634.25" font-family="Times,serif" font-size="14.00">Y</text>
</g>
<!-- D33 -->
<g id="node14" class="node">
<title>D33</title>
<polygon fill="none" stroke="black" points="362.91,-612 94.68,-594 362.91,-576 631.13,-594 362.91,-612"/>
<text text-anchor="middle" x="362.91" y="-589.8" font-family="Times,serif" font-size="14.00">((p.col+1&lt;n)&amp;&amp;(maze[p.row][p.col+1]==0))?</text>
</g>
<!-- D28&#45;&gt;D33 -->
<g id="edge12" class="edge">
<title>D28:e&#45;&gt;D33:n</title>
<path fill="none" stroke="black" d="M698.91,-666C706.92,-666 703.43,-653.81 697.91,-648 648.97,-596.47 391.1,-677.79 365.03,-622.15"/>
<polygon fill="black" stroke="black" points="368.38,-621.07 362.91,-612 361.53,-622.51 368.38,-621.07"/>
<text text-anchor="middle" x="517.81" y="-624.02" font-family="Times,serif" font-size="14.00">N</text>
</g>
<!-- D31&#45;&gt;D53 -->
<g id="edge9" class="edge">
<title>D31&#45;&gt;D53</title>
<path fill="none" stroke="black" d="M703.14,-585.38C743.32,-574.12 819.35,-552.84 871.3,-538.29"/>
<polygon fill="black" stroke="black" points="872.35,-541.63 881.03,-535.57 870.46,-534.89 872.35,-541.63"/>
</g>
<!-- D36 -->
<g id="node15" class="node">
<title>D36</title>
<polygon fill="none" stroke="black" points="463.04,-540 298.77,-540 298.77,-504 463.04,-504 463.04,-540"/>
<text text-anchor="middle" x="380.91" y="-517.8" font-family="Times,serif" font-size="14.00">visit(p.row,p.col+1,maze);</text>
</g>
<!-- D33&#45;&gt;D36 -->
<g id="edge16" class="edge">
<title>D33:s&#45;&gt;D36:n</title>
<path fill="none" stroke="black" d="M362.91,-576C362.91,-562.16 373.68,-558.9 378.56,-549.85"/>
<polygon fill="black" stroke="black" points="381.99,-550.54 380.91,-540 375.18,-548.91 381.99,-550.54"/>
<text text-anchor="middle" x="366.73" y="-562.32" font-family="Times,serif" font-size="14.00">Y</text>
</g>
<!-- D38 -->
<g id="node16" class="node">
<title>D38</title>
<polygon fill="none" stroke="black" points="398.91,-468 121.99,-450 398.91,-432 675.83,-450 398.91,-468"/>
<text text-anchor="middle" x="398.91" y="-445.8" font-family="Times,serif" font-size="14.00">((p.row+1&lt;m)&amp;&amp;(maze[p.row+1][p.col]==0))?</text>
</g>
<!-- D33&#45;&gt;D38 -->
<g id="edge13" class="edge">
<title>D33:e&#45;&gt;D38:n</title>
<path fill="none" stroke="black" d="M631.91,-594C639.92,-594 635.4,-582.63 630.91,-576 629.15,-573.4 449.69,-493.99 407.65,-472.97"/>
<polygon fill="black" stroke="black" points="409.33,-469.9 398.91,-468 405.87,-475.99 409.33,-469.9"/>
<text text-anchor="middle" x="513.28" y="-528.32" font-family="Times,serif" font-size="14.00">N</text>
</g>
<!-- D36&#45;&gt;D38 -->
<g id="edge15" class="edge">
<title>D36&#45;&gt;D38</title>
<path fill="none" stroke="black" d="M385.36,-503.7C387.36,-495.9 389.78,-486.51 392.01,-477.83"/>
<polygon fill="black" stroke="black" points="395.41,-478.66 394.51,-468.1 388.63,-476.92 395.41,-478.66"/>
</g>
<!-- D41 -->
<g id="node17" class="node">
<title>D41</title>
<polygon fill="none" stroke="black" points="486.04,-396 321.77,-396 321.77,-360 486.04,-360 486.04,-396"/>
<text text-anchor="middle" x="403.91" y="-373.8" font-family="Times,serif" font-size="14.00">visit(p.row+1,p.col,maze);</text>
</g>
<!-- D38&#45;&gt;D41 -->
<g id="edge19" class="edge">
<title>D38:s&#45;&gt;D41:n</title>
<path fill="none" stroke="black" d="M398.91,-432C398.91,-419.88 401.72,-414.78 403.13,-406.17"/>
<polygon fill="black" stroke="black" points="406.63,-406.24 403.91,-396 399.65,-405.7 406.63,-406.24"/>
<text text-anchor="middle" x="396.29" y="-418.43" font-family="Times,serif" font-size="14.00">Y</text>
</g>
<!-- D43 -->
<g id="node18" class="node">
<title>D43</title>
<polygon fill="none" stroke="black" points="408.91,-324 139.4,-306 408.91,-288 678.42,-306 408.91,-324"/>
<text text-anchor="middle" x="408.91" y="-301.8" font-family="Times,serif" font-size="14.00">((p.col&#45;1&gt;=0)&amp;&amp;(maze[p.row][p.col&#45;1]==0))?</text>
</g>
<!-- D38&#45;&gt;D43 -->
<g id="edge17" class="edge">
<title>D38:e&#45;&gt;D43:n</title>
<path fill="none" stroke="black" d="M676.91,-450C684.92,-450 680.57,-438.52 675.91,-432 673.84,-429.11 464.59,-349.22 418.02,-328.67"/>
<polygon fill="black" stroke="black" points="419.41,-325.44 408.91,-324 416.22,-331.67 419.41,-325.44"/>
<text text-anchor="middle" x="540.68" y="-384.13" font-family="Times,serif" font-size="14.00">N</text>
</g>
<!-- D41&#45;&gt;D43 -->
<g id="edge18" class="edge">
<title>D41&#45;&gt;D43</title>
<path fill="none" stroke="black" d="M405.14,-359.7C405.7,-351.98 406.36,-342.71 406.97,-334.11"/>
<polygon fill="black" stroke="black" points="410.47,-334.33 407.69,-324.1 403.48,-333.83 410.47,-334.33"/>
</g>
<!-- D46 -->
<g id="node19" class="node">
<title>D46</title>
<polygon fill="none" stroke="black" points="500.81,-252 339.01,-252 339.01,-216 500.81,-216 500.81,-252"/>
<text text-anchor="middle" x="419.91" y="-229.8" font-family="Times,serif" font-size="14.00">visit(p.row,p.col&#45;1,maze);</text>
</g>
<!-- D43&#45;&gt;D46 -->
<g id="edge22" class="edge">
<title>D43:s&#45;&gt;D46:n</title>
<path fill="none" stroke="black" d="M408.91,-288C408.91,-275.32 415.23,-270.79 418.29,-262.06"/>
<polygon fill="black" stroke="black" points="421.77,-262.43 419.91,-252 414.86,-261.31 421.77,-262.43"/>
<text text-anchor="middle" x="409.31" y="-274.28" font-family="Times,serif" font-size="14.00">Y</text>
</g>
<!-- D48 -->
<g id="node20" class="node">
<title>D48</title>
<polygon fill="none" stroke="black" points="431.91,-180 157.79,-162 431.91,-144 706.03,-162 431.91,-180"/>
<text text-anchor="middle" x="431.91" y="-157.8" font-family="Times,serif" font-size="14.00">((p.row&#45;1&gt;=0)&amp;&amp;(maze[p.row&#45;1][p.col]==0))?</text>
</g>
<!-- D43&#45;&gt;D48 -->
<g id="edge20" class="edge">
<title>D43:e&#45;&gt;D48:n</title>
<path fill="none" stroke="black" d="M679.91,-306C687.92,-306 683.48,-294.58 678.91,-288 677.02,-285.28 485.12,-205.76 440.92,-184.88"/>
<polygon fill="black" stroke="black" points="442.37,-181.68 431.91,-180 439.04,-187.84 442.37,-181.68"/>
<text text-anchor="middle" x="553.6" y="-240.17" font-family="Times,serif" font-size="14.00">N</text>
</g>
<!-- D46&#45;&gt;D48 -->
<g id="edge21" class="edge">
<title>D46&#45;&gt;D48</title>
<path fill="none" stroke="black" d="M422.87,-215.7C424.2,-207.98 425.79,-198.71 427.26,-190.11"/>
<polygon fill="black" stroke="black" points="430.74,-190.55 428.98,-180.1 423.84,-189.37 430.74,-190.55"/>
</g>
<!-- D48&#45;&gt;D21 -->
<g id="edge23" class="edge">
<title>D48:e&#45;&gt;D21:n</title>
<path fill="none" stroke="black" d="M706.91,-162C770.62,-162 716.91,-241.29 716.91,-305 716.91,-451 716.91,-451 716.91,-451 716.91,-530.86 715.1,-662.91 706.91,-684 677.29,-760.22 665.85,-792.08 592.39,-828 576.77,-835.64 522.23,-845.71 503.94,-837.02"/>
<polygon fill="black" stroke="black" points="506.71,-834.89 497.91,-829 501.12,-839.1 506.71,-834.89"/>
<text text-anchor="middle" x="711.67" y="-500.72" font-family="Times,serif" font-size="14.00">N</text>
</g>
<!-- D51 -->
<g id="node21" class="node">
<title>D51</title>
<polygon fill="none" stroke="black" points="370.81,-108 209.01,-108 209.01,-72 370.81,-72 370.81,-108"/>
<text text-anchor="middle" x="289.91" y="-85.8" font-family="Times,serif" font-size="14.00">visit(p.row&#45;1,p.col,maze);</text>
</g>
<!-- D48&#45;&gt;D51 -->
<g id="edge25" class="edge">
<title>D48:s&#45;&gt;D51:n</title>
<path fill="none" stroke="black" d="M431.91,-144C431.91,-82.83 306.58,-162.28 291.41,-118.14"/>
<polygon fill="black" stroke="black" points="294.83,-117.38 289.91,-108 287.91,-118.4 294.83,-117.38"/>
<text text-anchor="middle" x="355.66" y="-130.24" font-family="Times,serif" font-size="14.00">Y</text>
</g>
<!-- D51&#45;&gt;D21 -->
<g id="edge24" class="edge">
<title>D51&#45;&gt;D21</title>
<path fill="none" stroke="black" d="M209.09,-107.81C145.27,-126.38 66.91,-163.35 66.91,-233 66.91,-667 66.91,-667 66.91,-667 66.91,-742.98 311.57,-785.07 432.22,-801.22"/>
<polygon fill="black" stroke="black" points="432.07,-804.73 442.45,-802.56 432.99,-797.79 432.07,-804.73"/>
</g>
<!-- D58 -->
<g id="node23" class="node">
<title>D58</title>
<polygon fill="none" stroke="black" points="997.25,-468 854.57,-468 854.57,-432 997.25,-432 997.25,-468"/>
<text text-anchor="middle" x="925.91" y="-445.8" font-family="Times,serif" font-size="14.00">maze[p.row][p.col]=3;</text>
</g>
<!-- D53&#45;&gt;D58 -->
<g id="edge33" class="edge">
<title>D53:s&#45;&gt;D58:n</title>
<path fill="none" stroke="black" d="M925.91,-504C925.91,-492 925.91,-486.75 925.91,-478.12"/>
<polygon fill="black" stroke="black" points="929.41,-478 925.91,-468 922.41,-478 929.41,-478"/>
<text text-anchor="middle" x="920.85" y="-490.43" font-family="Times,serif" font-size="14.00">Y</text>
</g>
<!-- D71 -->
<g id="node27" class="node">
<title>D71</title>
<polygon fill="none" stroke="black" points="1130.91,-396 1076.91,-396 1076.91,-360 1130.91,-360 1130.91,-396"/>
<text text-anchor="middle" x="1103.91" y="-373.8" font-family="Times,serif" font-size="14.00">X=0;</text>
</g>
<!-- D53&#45;&gt;D71 -->
<g id="edge34" class="edge">
<title>D53:e&#45;&gt;D71:n</title>
<path fill="none" stroke="black" d="M1108.91,-522C1161.56,-522 1110.87,-460.26 1104.54,-406.31"/>
<polygon fill="black" stroke="black" points="1108.01,-405.77 1103.91,-396 1101.03,-406.2 1108.01,-405.77"/>
<text text-anchor="middle" x="1112.99" y="-458.8" font-family="Times,serif" font-size="14.00">N</text>
</g>
<!-- D60 -->
<g id="node24" class="node">
<title>D60</title>
<polygon fill="none" stroke="black" points="925.91,-396 796.73,-378 925.91,-360 1055.09,-378 925.91,-396"/>
<text text-anchor="middle" x="925.91" y="-373.8" font-family="Times,serif" font-size="14.00">(p.predecessor!=&#45;1)?</text>
</g>
<!-- D58&#45;&gt;D60 -->
<g id="edge27" class="edge">
<title>D58&#45;&gt;D60</title>
<path fill="none" stroke="black" d="M925.91,-431.7C925.91,-423.98 925.91,-414.71 925.91,-406.11"/>
<polygon fill="black" stroke="black" points="929.41,-406.1 925.91,-396.1 922.41,-406.1 929.41,-406.1"/>
</g>
<!-- D65 -->
<g id="node25" class="node">
<title>D65</title>
<polygon fill="none" stroke="black" points="1004.02,-324 849.8,-324 849.8,-288 1004.02,-288 1004.02,-324"/>
<text text-anchor="middle" x="926.91" y="-301.8" font-family="Times,serif" font-size="14.00">p=queue[p.predecessor];</text>
</g>
<!-- D60&#45;&gt;D65 -->
<g id="edge32" class="edge">
<title>D60:s&#45;&gt;D65:n</title>
<path fill="none" stroke="black" d="M925.91,-360C925.91,-348 926.47,-342.75 926.75,-334.13"/>
<polygon fill="black" stroke="black" points="930.25,-334.05 926.91,-324 923.25,-333.94 930.25,-334.05"/>
<text text-anchor="middle" x="921.34" y="-346.43" font-family="Times,serif" font-size="14.00">Y</text>
</g>
<!-- D73 -->
<g id="node28" class="node">
<title>D73</title>
<polygon fill="none" stroke="black" points="1086.73,-324 1023.09,-324 1023.09,-288 1086.73,-288 1086.73,-324"/>
<text text-anchor="middle" x="1054.91" y="-301.8" font-family="Times,serif" font-size="14.00">return 0;</text>
</g>
<!-- D60&#45;&gt;D73 -->
<g id="edge28" class="edge">
<title>D60:e&#45;&gt;D73:n</title>
<path fill="none" stroke="black" d="M1055.91,-378C1076.63,-378 1060.83,-355.65 1056.12,-334.09"/>
<polygon fill="black" stroke="black" points="1059.58,-333.51 1054.91,-324 1052.63,-334.35 1059.58,-333.51"/>
<text text-anchor="middle" x="1055.98" y="-337.56" font-family="Times,serif" font-size="14.00">N</text>
</g>
<!-- D67 -->
<g id="node26" class="node">
<title>D67</title>
<polygon fill="none" stroke="black" points="926.25,-252 783.57,-252 783.57,-216 926.25,-216 926.25,-252"/>
<text text-anchor="middle" x="854.91" y="-229.8" font-family="Times,serif" font-size="14.00">maze[p.row][p.col]=3;</text>
</g>
<!-- D65&#45;&gt;D67 -->
<g id="edge29" class="edge">
<title>D65&#45;&gt;D67</title>
<path fill="none" stroke="black" d="M909.11,-287.7C900.3,-279.14 889.53,-268.66 879.91,-259.3"/>
<polygon fill="black" stroke="black" points="882.11,-256.57 872.5,-252.1 877.23,-261.58 882.11,-256.57"/>
</g>
<!-- D67&#45;&gt;D60 -->
<g id="edge30" class="edge">
<title>D67&#45;&gt;D60</title>
<path fill="none" stroke="black" d="M846.11,-252.19C837.82,-270.98 828.39,-301.43 840.91,-324 849.8,-340.02 865.76,-351.83 881.47,-360.18"/>
<polygon fill="black" stroke="black" points="880.12,-363.41 890.64,-364.7 883.22,-357.14 880.12,-363.41"/>
</g>
<!-- D71&#45;&gt;D73 -->
<g id="edge31" class="edge">
<title>D71&#45;&gt;D73</title>
<path fill="none" stroke="black" d="M1091.8,-359.7C1086.04,-351.47 1079.05,-341.48 1072.7,-332.42"/>
<polygon fill="black" stroke="black" points="1075.48,-330.29 1066.88,-324.1 1069.75,-334.3 1075.48,-330.29"/>
</g>
<!-- D73&#45;&gt;D1 -->
<g id="edge35" class="edge">
<title>D73&#45;&gt;D1</title>
<path fill="none" stroke="black" d="M1034.64,-287.76C1011.54,-268.64 972.13,-237.64 934.91,-216 790.37,-131.96 603.35,-60.53 525,-32.12"/>
<polygon fill="black" stroke="black" points="525.71,-28.66 515.12,-28.56 523.34,-35.24 525.71,-28.66"/>
</g>
</g>
</svg>
